<?xml version="1.0" encoding="utf-8"?>
<!-- Generator: Adobe Illustrator 18.1.1, SVG Export Plug-In . SVG Version: 6.00 Build 0)  -->
<svg version="1.1" id="Layer_1" xmlns="http://www.w3.org/2000/svg" xmlns:xlink="http://www.w3.org/1999/xlink" x="0px" y="0px"
	 viewBox="339.6 -0.4 677.9 761.9" enable-background="new 339.6 -0.4 677.9 761.9" xml:space="preserve">
<g>
	<path fill="#FFFFFF" d="M849.7,216.3c-4.4-2.6-12.2-4.4-23.6-5.3c-2-10.3-5.1-20.3-9.2-30.5c-15.1-16.8-32.1-27.7-51.3-33
		L550.9,143h-7.8c-2,0-4.6-0.2-7.8-0.7c-5.6,5.5-8.9,12.2-6.3,20.9c1.3,4.2,3.1,7.8,5.1,11.6c0.7,0.4,1.1,1.1,1.5,1.5
		c12.2,0.7,20.3,3.3,24.5,8.3c-0.2,8.3-0.7,17.2-0.9,26.9c-20.1,0.2-36.5,1.1-48.7,2.2c-5.3,3.1-7.2,8.5-6.1,16.4
		c-5.8,10.9-10.7,24.7-14,41.5c-2.2,15.1-4.6,29.9-6.7,45c0.7,3.1,2.6,5.3,5.6,6.9c3.1,1.8,6.1,2,9.6,0.9
		c21.4-28.3,34.9-45.4,40.4-51.1c6.3-6.5,12.7-12,19.2-16.4c-0.4,26.2-0.4,56.1-0.4,89.5c0,69.7-0.7,123.2-2.2,160.9
		c-1.5,0.7-4.4,3.5-8.5,8.5c-4.2,4.8-7.6,7.2-10.7,7.2c-0.9,0-1.8-0.2-2.6-0.4c-0.2,0.2-0.7,0.2-0.9,0.4c-2.2,3.3-3.3,7.4-3.5,11.8
		c1.3,3.5,3.5,6.7,5.6,10c3.7,0.7,7.4,1.8,10.7,3.7c11.1-0.4,23.8-0.9,37.6-1.3c30.1-1.3,53.5-2,70.6-2.2
		c-0.2,12.9-0.2,24.3-0.2,34.1c-6.3,8.5-15.5,12.9-27.5,12.9c-3.3,0-9.2-0.4-17-1.3c-8.1-0.9-14.2-1.3-18.3-0.9
		c-7.2,5.6-9.8,11.8-7.8,18.5c1.5,6.7,5.6,10.3,12.5,10.7c6.3,0,12.7,0,19.2,0c12-3.1,26.5-4.6,43.2-4.6c7.4,0,19.2,0.4,34.9,1.1
		c15.8,0.7,27.5,1.1,35.4,1.1c21.4,0,39.5-2,54.6-5.8c0-12.5-8.3-18.7-24.7-18.7c-2,0-5.1,0-9.6,0c-4.2,0-7.2,0-9.6,0
		c-16.8,0-26.9-5.6-29.7-16.8c-0.2-7.2-0.4-16.8-0.9-28.6c3.5,0.2,6.7,0.4,10,0.9c4.8-1.5,16.2-3.3,33.6-5.1
		c13.8-1.5,24.7-4.2,32.5-7.8c19-9.2,34.3-18.7,46.1-29c11.8-27.1,22.9-58.1,18.7-84.7c-4-9.8-9.4-19-14-28.6
		c-6.3-6.9-13.8-14.2-22.5-21.4c-2-2-10.7-6.7-26.5-14.7c-10.5-5.3-15.8-12.5-15.8-21.4c1.1-0.7,10-6.5,27.1-17.4
		c6.5-4,12.2-8.1,17-12.7c5.6-8.3,9.4-17.6,13.6-26.9c0-0.7,0.2-1.1,0.2-1.8c4.4,3.1,8.7,6.1,13.1,8.9c4.6,5.6,8.9,11.4,13.6,17.4
		c5.6,7.2,10.7,10.7,15.1,10.7c1.5,0,3.3-0.7,5.1-1.8c-0.7-3.3-3.7-14.7-8.9-33.6c-3.7-13.8-5.8-25.6-6.1-34.9
		C860.9,230.1,857.6,221.2,849.7,216.3z M600.1,294.5C600.1,294.3,600.3,294.3,600.1,294.5c0.4-17.4,0.7-34.5,0.9-51.7
		c3.7-0.2,7.8-0.9,12.9-2c8.7-1.8,15.1-2.6,18.7-2.6c8.5,0,15.5,2.6,20.7,7.8c2.4,26,3.7,54.1,4.4,84.2c-13.1-0.4-25.1-2-36.3-4.4
		l-0.7-0.4c-4.4,0.9-8.7,1.1-13.1,1.1c-3.1,0-5.3-2-6.1-4.8c-0.4-0.9-0.7-2-0.9-2.9c-0.4-0.9-0.7-1.8-0.7-3.1l0,0
		C598.7,308.9,598.9,301.4,600.1,294.5z M655.8,465.5c-0.7,19.8-1.1,37.6-1.5,53.7c-8.1,0-14.7,0-19.8,0.2c-0.4-0.7-1.1-1.3-1.5-2
		c-8.9,1.3-18.7,0.4-27.1-1.8c-2-0.4-4.2-2.4-4.4-4.4c-1.1-5.5-1.8-10.7-2-16.2c-5.8-21.8-0.4-44.5-1.1-66.8
		c-0.7-23.2-6.3-47,0-69.9c1.3-4.6,5.8-5.5,9.2-3.7c2.2-0.4,4.6-0.4,6.7-0.4c3.7,0.2,7.2,0.4,10.9,1.3l3.5-1.3
		c9.8,0.2,19.4,0.7,29,0.9c0,0.4,0,0.7,0,1.1C658.2,379.8,657.3,416.3,655.8,465.5z M651.9,212.5c-18.5-0.4-35.6-0.9-51.1-1.1
		c0-2.2-0.2-4.4,0-6.5c-0.4-17.6,2.6-32.5,22.7-34.5c1.5-0.2,2.9,0.2,4,0.9c8.3-1.5,17-1.1,25.8-0.9c0.9,0,1.8-0.2,2.6-0.2
		c4.8,0,12.9,1.1,24,3.1s19.4,3.1,24.5,3.1c2.4,0,4.8-0.2,6.7-0.7l0.2-0.2c10.5-7.6,21.2-6.1,30.8,0.2c12.7-2,28.6,18.3,37.6,32.7
		C747.3,212.7,704.7,213.9,651.9,212.5z M773.5,378.7c0,1.1,0,2,0,3.1c25.4,12,37.8,46.3,34.5,72.9c-3.1,24-19.6,40.4-40.4,48.5
		c-3.7,2.9-8.1,5.3-12.7,7.4c-12,5.3-27.9,8.1-48.1,8.7c-0.2-7.2-0.7-15.1-0.9-23.4c-1.1-32.7-1.8-58.1-1.8-76.6
		c0-22.1,0.7-42.6,2.2-61.3c-0.4-0.2-0.7-0.7-1.1-0.9C733.7,359.1,756.5,366.4,773.5,378.7z M779.4,282.7
		c-5.8,16.2-17.9,29.4-37.2,36.9c-1.1,1.1-2.2,2-3.5,3.1c-10.9,2.4-21.8,4.2-32.5,5.5l-2-74.9l15.1-15.3c18.3-4.6,34.3-2.2,47.8,6.7
		c7.4,0.9,15.1,3.3,23.2,6.7C789,262.6,785.1,273.1,779.4,282.7z"/>
	<path fill="#FFFFFF" d="M410.7,330.5c0.7-16.2-2.2-31-2.2-47c0-8.7,2.2-17.6,3.3-26.2c1.1-9.4-0.2-19.4-0.7-28.8
		c-0.9-15.8,4.2-33.6-0.2-49.2c-2.6-9.4-1.1-18.7-2-28.1c0.2,0,0.7-0.2,0.7-0.7c0-0.7,0.2-1.5,0.2-2.2c0-0.4-0.4-0.9-0.9-0.9
		c-0.2,0-0.4,0-0.4,0c0-0.7-0.2-1.3-0.2-1.8c-0.2-0.9-0.9-1.1-1.5-1.1c-0.6,0-1.3,0.2-1.5,1.1c-1.8,7.8-0.7,17.2-0.2,25.1
		c0.4,8.5,2.9,16.4,2.9,24.9c0,8.9-0.9,17.9-1.1,26.9c-0.4,19,0,36.7-2.2,55.9c-2,17.4,3.1,34.5,1.8,52.2c-1.1,16,3.5,31,2.9,47.2
		c-0.9,21.2-0.2,42.1-0.2,63.3v123.6c0,3.1,4.6,3.1,4.6,0V447.5c0-21.4-0.2-43,0-64.4C413.7,365.5,410,347.8,410.7,330.5z"/>
	<path fill="#FFFFFF" d="M656.5,68.6c2.4,2.9,5.5,5.3,8.9,6.7l0.9,0.4c0.4,0,0.7,0.2,0.9,0.2l0.2,0.2c2.6,1.1,5.5,1.8,8.3,2.2
		c2.4,0.2,4.6,0.4,6.5,0.4l0,0c0.9,0,2,0,2.9-0.2c2.6-0.2,5.5-0.7,8.3-1.8c3.1-1.1,5.6-2.4,8.1-4.4c2.4-2,4.4-4.2,5.8-6.9
		c1.5-2.9,2.4-5.8,2.2-9.6c0-3.1-0.9-5.6-2.2-8.1c-0.7-1.3-1.5-2.4-2.6-3.5c1.3-0.2,2.9-0.7,4.2-0.9c2.4-0.7,4.8-1.5,7.2-2.6
		c3.5-1.5,6.3-3.3,8.5-5.3c2.2-2,4-4.4,5.1-6.5c1.1-2.4,1.8-4.6,1.8-6.9c0-0.7,0-1.5-0.2-2.2l-0.2-1.5h-3.5l-0.4,0.7
		c-0.2,0.2-0.2,0.4-0.4,0.9l-0.2,0.4c-1.1,4-4.2,6.9-6.5,8.7l-0.4,0.2c-1.8,1.1-3.7,2.2-6.1,3.3c-3.3,1.3-7.4,2.4-12.2,3.3
		c-2.2,0.2-4.4,0.4-6.5,0.9c-1.8,0.2-3.7,0.4-5.6,0.9c-2,0.2-3.7,0.7-5.1,0.9c-0.2,0-0.2,0-0.4,0l-4.2,0.2l0.7,0.7
		c-0.9,0.2-1.5,0.7-2.2,0.9c-3.7,1.8-6.5,4-8.3,6.7l-0.2,0.4v0.4c0,0.2,0,0.4,0,0.7v0.4l0.2,0.2c0,0.2,0.2,0.4,0.2,0.7l0.4,0.9h1.1
		c0,0,0.2,0,0.4,0h0.4l0.2-0.2c1.5-0.9,3.3-1.5,5.1-2l0.4-0.2c0.4-0.2,0.9-0.4,1.1-0.4l0.4,0.2l0.7-0.2c0.7-0.2,1.5-0.4,2.2-0.4
		c1.1-0.2,2.2-0.4,3.5-0.4h0.2c1.1-0.4,2.4-0.4,3.7-0.4h0.7c2.6-0.2,5.3-0.4,8.1-0.9c1.8,1.1,3.1,2.6,4.2,4.6c1.3,2.2,2,4.6,2,7.4
		c0,0.4,0,0.9,0,1.5c0,0.9-0.2,1.5-0.9,2.6c-0.4,0.9-0.9,1.5-1.3,2.4l-0.4,0.7h-0.2l-0.4,0.4c-0.9,1.1-2,2.2-3.1,3.1
		c-2,1.5-4.4,2.9-7.2,4c-2.9,0.9-5.6,1.5-8.5,1.5h-0.4c-2.6,0-5.1-0.4-7.4-1.3c-2.4-0.9-4.4-2.2-6.1-3.7c-1.8-1.5-3.1-3.5-4-5.5
		c-0.9-2-1.5-4-1.8-6.1c-0.2-2.2-0.2-4.4,0.2-6.3c0.2-2,0.7-4,1.3-5.6c0.7-1.8,1.5-3.3,2.6-4.8c0.9-1.1,2-2.2,3.5-3.3l0.9-0.7
		l-0.2-0.7c0.7-0.2,1.3-0.4,2-0.7c0.4-0.2,1.1-0.4,1.8-0.7c0.4-0.2,0.7-0.2,1.1-0.4c2-0.7,3.7-1.1,5.3-1.3s2.9-0.4,4.4-0.7h0.7
		l0.4-0.4c0.2-0.2,0.4-0.4,0.7-0.9l0.4-0.7l-0.2-0.9c-0.2-0.9-0.9-1.8-1.8-2.4l-0.4-0.4h-0.4c-0.9,0-1.8-0.2-2.6-0.4
		c-0.9-0.2-2-0.9-2.9-1.5c-0.9-0.7-1.3-2-1.5-3.5c-0.2-1.8,0-3.3,0.4-4.6c0.4-1.3,1.3-2.2,2.2-2.9c0.9-0.7,2-1.1,3.1-1.1
		c1.1-0.2,2,0,3.1,0.2c0.4,0.2,0.4,0.4,0.4,0.7c0,0.7,0.2,1.5,0.2,2.2c0,0.9,0.2,2,0.9,2.6c0.7,1.1,2,1.5,4.2,1.3
		c0.9,0,1.5-0.2,2.2-0.7l0.4-0.2l0.9-1.1v-0.4c0,0,0,0,0.2-0.2l0.7-0.9l-0.4-0.9c0.2-1.3-0.4-2.4-0.9-3.3c-0.2-0.4-0.4-1.1-0.4-1.3
		V8.9l-1.5-0.2h-0.2L693.1,8l-0.7-0.2c-2.2-0.9-4.8-1.3-8.5-1.1c-3.7,0.2-6.7,1.3-8.9,3.3c-2.2,1.8-4,4-4.8,6.3
		c-0.9,2.4-1.1,4.8-0.4,7.4c0.2,1.5,0.9,2.6,1.5,4c-1.5,0.4-3.1,1.1-4.6,1.8c-0.9,0.4-1.8,0.9-2.4,1.5l-0.2,0.2v0.2
		c-0.2,0-0.4,0.2-0.7,0.4c-1.3,0.9-2.6,2.2-3.7,3.5l-0.4,0.2l-0.2,0.4c-0.2,0.9-0.7,1.5-0.9,2l-0.7,0.4v0.9h-0.2l-0.2,0.4
		c-0.2,0.2-0.4,0.4-0.7,0.9c0,0.2-0.2,0.2-0.2,0.4l-0.4,0.2l-0.2,0.7c-0.2,0.7-0.7,1.5-0.9,2.2c0,0.2,0,0.2-0.2,0.4V45
		c0,0.4,0,0.9-0.2,1.3l-0.4,0.2l-0.2,0.7c-0.4,2.6-0.7,5.6-0.4,8.9C652.4,61.7,653.9,65.5,656.5,68.6z"/>
	<path fill="#FFFFFF" d="M445.2,87.1c-1.5-1.1-3.1-1.5-4.6-1.3c0.7-1.5,0.9-3.1,0.2-4.4c-2-3.3-2.6-7.8-6.7-9.2
		c-4.4-1.3-10.3,4.4-14,6.1c-1.3,0.4-5.1,1.8-5.6,3.5c0,0-0.2,0-0.2,0.2c-0.2,0.2-0.4,0.4-0.4,0.9c0.2,1.3,1.1,2.4,1.5,3.5
		c1.5,2.9,2.6,5.6,4.2,8.5c2.9,5.5,6.9,10.5,9.4,16c0,0.2,0.2,0.4,0.4,0.4c0,0.9,1.1,1.8,2.2,1.1c1.5-1.1,3.5-1.8,5.3-2.4
		c2-0.9,3.7-2,5.5-3.1c2-1.1,6.1-2.4,6.5-5.1c0-0.2,0-0.7-0.2-0.9C451.5,96.9,449.5,90.2,445.2,87.1z M422.7,93.2
		c-1.8-3.5-3.7-8.5-6.7-11.1c4.2-2,8.5-3.5,12.7-5.8c2.2-1.3,5.1-2.4,6.7-0.2c0.9,1.1,1.5,2.6,2,4c0.7,1.5,1.5,2.9,0.7,4.6
		c-0.7,1.5-1.1,1.8-1.3,2.6c-0.2,0.2-0.7,0.2-0.9,0.4c-4.4,2.2-8.5,4.6-12.2,7.6C423.4,94.5,422.9,93.8,422.7,93.2z M445,100.9
		c-0.7,0.4-0.7,1.1-0.2,1.5c-2.2,1.5-5.1,2.4-7.2,3.5c-2,0.9-4,2-5.8,3.1c-1.8-4.4-4.8-8.5-7.4-12.9c0.9,0,1.5-0.7,2.4-0.9
		c3.1-1.1,5.8-3.3,8.9-4.6c3.1-1.3,6.3-3.3,9.2,0.2C447.1,93.6,448.6,98.2,445,100.9z"/>
	<path fill="#FFFFFF" d="M468.1,93.6l0.2,0.2c3.5,0.9,7.6-1.3,10.7-2.9c3.3-1.3,7.4-1.5,10-4c1.1-0.9,0-2.4-1.1-2.4
		c-3.3-0.2-7.2,1.8-10,3.1c-2,0.9-4.2,1.8-6.1,2.6c-1.1,0.4-2,0.4-2.4,0.9c-1.5-4.2-4-8.1-5.3-12.5c0-0.2-0.2-0.4-0.2-0.7
		c2.2-0.2,4.2-1.1,6.1-2c1.1-0.4,2.4-0.9,3.7-1.1c1.3-0.4,2.4-1.3,3.7-1.5c1.5-0.4,0.9-2.6-0.7-2.4c-0.9,0.2-1.8,0.7-2.4,1.1
		c-1.5,0.9-3.3,1.1-5.1,1.8c-2,0.9-4,1.8-5.8,3.1c-1.3-4.4-2.6-9.2-5.1-13.1c3.1-1.5,6.5-3.5,9.8-4.4c2.9-0.9,6.5-2.2,8.7-4.4
		c0.2-0.2,0.2-0.7-0.2-0.7c-2.2-1.5-6.9,1.5-9.4,2.4c-3.7,1.3-7.4,2.9-10.9,4.4l0,0c-0.2-0.2-0.9,0-0.9,0.4v0.2
		c-0.7,0.7-0.2,1.8,0.4,2.2c1.1,4.6,3.3,9.2,4.8,13.3c1.3,3.7,2.4,7.2,3.7,10.9c0.2,0.4,1.5,3.1,1.5,3.3
		C465.5,93.2,466.8,93.8,468.1,93.6z"/>
	<path fill="#FFFFFF" d="M518.7,47.2c0.9,1.1,2.2-0.2,1.5-1.3c-4.2-6.5-13.8-5.5-19.4-1.3c-9.4,6.3-5.5,15.1-2.4,24
		c2.6,7.8,8.9,11.4,17,10.3c8.1-1.3,16-8.5,11.8-16.8c-1.1-2-4.2-0.7-3.3,1.3c3.3,7.2-5.3,11.1-10.7,12.2c-6.1,1.3-10-3.3-12.2-8.3
		c-2-4.6-5.6-12-2.9-16.8C502.1,44.5,514.1,41,518.7,47.2z"/>
	<path fill="#FFFFFF" d="M564.8,37.4c0.2,0,0.2,0,0.4,0c0.7,0.2,1.3-0.2,1.3-1.1c0.2-2.2-0.7-4.2-0.9-6.3c0-0.4-0.7-0.9-1.1-1.1
		c-7.4-2.2-19.2-2.6-24.3,5.1c-2.4,3.5-2.6,5.8-1.5,10c1.3,4.8,1.1,10.5,3.5,14.9c3.7,6.9,9.6,8.3,17,6.3
		c6.3-1.8,12.9-5.5,10.9-12.9c-0.4-2-3.7-1.5-3.5,0.4c0.7,6.7-6.1,8.5-11.4,9.8c-9.8,2.2-10.7-8.7-12-15.3c-0.7-2.9-2-7.4-0.7-10
		c2.2-4.2,8.1-5.6,12.2-6.1c2-0.2,7.8-0.4,8.5,1.3c0.2,0.7,0.4,3.3,1.5,3.1C563.9,35.8,563.9,37.2,564.8,37.4z"/>
	<path fill="#FFFFFF" d="M596.3,21.2c-0.2-0.2-0.7-0.2-0.9,0c-0.2,0-0.7,0-0.9,0.4c-2.4,4.8-3.3,10.5-5.3,15.3
		c-0.9,2.4-2,4.8-2.9,7.2c-0.4,0.4-0.7,0.9-0.4,1.3c-1.3,3.7-2.4,7.4-3.1,11.1c-0.4,1.8,2.4,2.6,2.9,0.9c0.7-4,2-7.6,3.3-11.6
		c2.4-0.9,5.8-1.1,8.1-1.3c2.9-0.2,5.8,0.2,8.7-0.4c0,0,0.2,0,0.2-0.2c1.5,3.1,3.1,6.1,4.4,9.2c0.9,2.4,4.6,1.5,4-1.1
		c-1.5-4.8-4-8.9-6.7-13.3C603.4,33.2,600.8,26.2,596.3,21.2z M594.9,41.7c-1.5,0.2-3.3,0.4-4.8,0.9c0.7-1.8,1.3-3.3,2-5.1
		c1.8-4.2,4-8.9,4.2-13.8c2.2,4.2,3.5,9.2,5.8,13.3c0.9,1.5,1.8,3.1,2.6,4.6C601.4,41.2,598.2,41.2,594.9,41.7z"/>
	<path fill="#FFFFFF" d="M751.7,25.6c0.2,0,0.4,0,0.4,0c-1.1,5.1-1.1,10-1.8,14.9c-0.2,0.9-0.2,1.8-0.2,2.6
		c-0.2,0.4-0.4,0.4-0.7,1.1c-0.4,0.9-0.2,2.2-0.4,3.1c-0.2,1.1-0.9,2-1.1,3.1c0,0.4-0.4,2,0,1.8c-0.7,0.4-0.7,1.1-0.4,1.5
		c-0.2,0.7-0.2,1.1-0.2,1.5l0,0c0,1.3,1.8,2,2.6,0.9c0.4,0,1.1-0.2,1.1-0.9c0.4-5.5,1.8-11.1,2.6-16.4c0.7-4,1.3-8.7,0.9-12.9
		c4,0.4,8.3,0.2,11.8,1.5c2.4,0.9,3.3-2.9,1.1-3.7c-5.1-2-11.1-1.1-16.4-2.4c-3.7-0.9-8.7-2.6-12.2-0.4c-0.4,0.2-0.4,1.1,0,1.3
		C742.5,24.3,747.7,24.5,751.7,25.6z"/>
	<path fill="#FFFFFF" d="M766.3,58.1c0,0.2,0,0.2,0.2,0.4c0.2,0.7,0.9,0.7,1.1,0c0-0.2,2.6-1.3,2.9-1.8c2-2.2,3.7-4.6,5.5-6.9
		c1.8,0.9,4.2,0.9,5.6,1.3c1.5,0.4,3.3,1.1,5.1,1.3c1.8,0.2,4.2,0,5.8,0.9h0.2c0.9,4,2,7.6,2.9,11.6c0.4,2,3.7,1.1,3.1-0.9
		c-1.5-6.5-3.1-13.3-4.6-19.8c-1.1-4.8-0.9-11.4-4-15.3c-0.2-0.4-0.9-0.2-1.1,0.2c-0.2,0.2-0.2,0.7-0.4,0.9
		c-0.2-0.2-0.7-0.2-1.1-0.2c-4.2,1.1-7.2,7.4-9.6,10.7c-4,5.5-6.7,12.5-11.6,17.2C766.3,57.4,766.3,57.7,766.3,58.1z M783.6,39
		c1.5-2.2,3.5-4,4.8-6.3c0.2,3.3,1.5,7.4,2,9.8c0.4,2.2,0.9,4.4,1.5,6.5c-2.4-0.4-4.8-0.2-7.2-1.1c-1.5-0.4-3.3-0.7-5.1-0.9
		c-0.7,0-1.3,0-2.2,0C779.6,44.5,781.6,41.9,783.6,39z"/>
	<path fill="#FFFFFF" d="M818.1,60.2c-0.7,2.4-1.3,4.8-1.8,7.2c-0.4,2.6,3.3,3.5,4,1.1c0.4-2.4,1.1-4.8,1.8-7.2
		c0.4-1.5,0.9-3.3,0.9-5.1c0.2-0.2,0.4-0.2,0.7-0.4l0,0c1.3-0.7,2.4-1.8,3.5-2.6c1.5-1.1,3.1-1.8,4.6-2.9c1.5-1.1,3.1-2,4.6-3.1
		c0.9-0.7,2-1.5,2.9-2.4c0.7-0.4,0.9-1.3,1.8-1.5c2.4-0.9,1.3-4.4-1.1-3.7c-1.3,0.4-2.2,1.3-3.1,2.2c-2,2.2-4.6,3.7-7.2,5.1
		c-2.4,1.3-5.5,3.3-7.2,5.8c-0.9-1.3-1.8-4.4-2-5.3c-0.7-2.4-1.8-4.4-2.9-6.5c-0.9-1.8-2-3.5-3.3-5.1c-0.2-0.4-2.4-2.6-2.4-3.3
		s-1.3-0.7-1.5,0c-0.4,2.4,3.1,6.1,4,8.3c1.8,3.5,2.9,6.9,4.2,10.5c0.2,0.9,0.7,2,1.1,3.1c-0.2,0.4-0.7,0.7-0.7,1.3
		C818.7,57.2,818.3,58.8,818.1,60.2z"/>
	<path fill="#FFFFFF" d="M853.6,45.2c0-1.1-1.8-1.3-2-0.2c-3.1,10.3-7.8,20.3-9.8,30.5c-0.2,1.1,0.7,2,1.5,2l0,0
		c3.5,1.1,6.5,2.9,10,4c2,0.7,3.7,1.3,5.5,2.2c1.1,0.4,2.9,0.7,3.7,1.3c2.2,1.5,4-2,2-3.5c-1.1-0.9-2.9-0.9-4.2-1.3
		c-1.8-0.7-3.3-1.8-5.3-2c-3.5-0.2-6.5-2.6-10-2.9c1.1-4.8,3.1-9.6,4.4-14.4C850.8,55.7,853.8,50.4,853.6,45.2z"/>
	<path fill="#FFFFFF" d="M881.4,91.5c3.3,1.1,6.1,2.9,9.4,4.4c0.2,0,0.4,0.2,0.7,0.2c2,2,5.1,3.3,7.6,2.4c6.7-2.9,6.5-11.1,10-16.5
		c2.4-4,4.6-9.4,2.2-14c-1.5-2.9-3.5-3.5-6.3-5.3c-1.1-0.7-8.1-2.6-10.3-3.7c-0.2-0.2-0.2-0.4-0.7-0.7c-0.2,0-0.4,0-0.4-0.2
		c0,0-0.2,0-0.4-0.2c-9.4-3.1-12.9,10.9-14.7,17.9c-1.5,5.3-4.2,7.2-1.1,12.5C878.3,89.3,880.1,91.1,881.4,91.5z M882.7,74.4
		c1.3-4.8,4.8-12.9,10.5-13.6c2.9,0.9,5.8,1.8,8.7,2.6c8.7,2.6,8.3,10.3,4.6,16.5c-2,3.5-3.3,6.9-5.1,10.7c-2,4.2-5.5,3.7-8.7,3.1
		c0-0.2-0.2-0.2-0.2-0.4c-2-2-4-3.3-6.5-4.2C877.4,86.4,881.2,79.9,882.7,74.4z"/>
	<path fill="#FFFFFF" d="M943.3,101.8c3.5-1.5,4.2-4.6,5.6-7.8c1.8-4,2.9-6.7,0-10.3c-1.3-1.8-2.2-2.4-4.4-3.1
		c-2.9-0.9-4.8-3.5-7.6-4.4c-2-0.7-4.6-1.8-6.3-0.7c-0.4-0.9-1.3-0.7-1.8,0c-2,5.3-5.1,10.7-7.6,15.8c-1.5,2.9-2.9,5.6-4.2,8.5
		c-0.7,1.5-2,2.4-1.8,4.2c0,0.4,0.7,1.1,1.1,1.1c0.2,0,0.7,0,0.9,0c0.4,0,1.1-0.7,1.1-1.1c0.4-2,2.6-4.8,3.5-6.5
		c0.4-1.1,0.9-2.2,1.5-3.3c0.2,0.4,0.4,0.7,1.1,0.9c2.4,0.4,4.6,1.8,6.7,2.4c0.9,0.2,1.8,0.7,2.6,1.1c-0.4,2.4-0.2,5.5,0.2,7.8
		c0.7,3.7,0.7,6.7,0.4,10.3c0,2.2,3.3,2,3.3,0l0,0c0-3.7,0.7-6.5-0.4-10c-0.7-2.2-0.4-4.6-0.9-6.7c1.3,0.7,2.9,1.1,4.4,1.5
		C941.8,102,942.5,102.2,943.3,101.8z M931.1,94.3c-1.5-0.4-4.2-2-6.3-2.2c0.7-1.1,1.1-2.4,1.8-3.5c1.1-2.6,4.4-7.4,4.6-11.1
		c1.3,0.4,2.6,0.7,4,1.1c2.9,1.1,4.6,3.5,7.4,4.6c4.8,1.8,5.8,4.6,3.7,9.4c-1.1,2.2-1.8,4.4-3.5,5.8
		C938.6,97.8,934.9,95.4,931.1,94.3z"/>
	<path fill="#FFFFFF" d="M579.4,693c-2.6-1.5-5.6-2.4-8.7-3.3c-1.5-0.4-3.3-1.1-4.8-0.9c-0.2-0.4-0.7-0.7-1.1-0.4
		c-3.3,0.7-4.6,7.4-5.5,9.8c-2.9,6.7-5.8,14.4-7.6,21.6c-0.4,2,2.4,2.9,3.1,0.9c1.1-4.2,3.1-8.3,5.1-12.7l0.2,0.2
		c3.1,1.1,7.2,2.9,11.1,4l0,0c0,0.2,0,0.4,0,0.7c0.7,1.5,0.7,2.9,2.2,4c0.9,2,1.5,4.2,2.2,6.1c0.7,1.5,1.5,3.5,1.8,5.1
		c0.4,3.1,4.8,2.4,4.2-0.7c-0.4-1.8-1.8-2.2-2.4-3.7c-1.3-2.2-2-4.8-2.9-7.2c-0.2-0.2-0.2-0.7-0.4-1.1l0,0c-0.2-0.7-0.7-1.1-0.9-2
		c0-0.2-0.2-0.7-0.4-0.9c5.6,0.9,10.7-0.7,11.4-8.5C586.2,699,584.2,695.6,579.4,693z M581.8,706.1c-0.9,3.7-4,4.2-7.2,3.7
		c-4.8-0.9-9.2-2.6-13.8-4.4c2.2-4.8,4-9.4,5.1-14.4c0.9,0.4,1.8,0.9,2.9,1.1c4.4,1.3,11.8,3.3,13.3,8.1
		C582.7,702.1,582.3,704.3,581.8,706.1z"/>
	<path fill="#FFFFFF" d="M608.7,700.6c-2.9-1.3-6.5,0.2-8.7,3.1c-4,5.6-4.4,14-6.3,20.5c-3.7,12.9,20.1,17.6,28.1,15.3
		c0.9-0.2,1.3-1.1,1.1-1.8c4.6-4.2,6.1-18.5,6.7-20.9C632.9,704.1,619,700.4,608.7,700.6z M625.9,720.2c-0.7,4-0.9,12.9-5.1,16.2
		c-7.4,2.2-26.7-2.2-23.4-13.1c2-6.5,2.4-20.3,12-19.6c0.4,0,0.7-0.2,0.7-0.4C620.5,704.3,628.6,707,625.9,720.2z"/>
	<path fill="#FFFFFF" d="M681.2,710.2c0.2-1.3-1.3-3.1-2.6-2c-1.8,1.3-2.4,3.1-3.3,5.1c-1.1,2.2-2.2,2.9-3.3,4.8
		c-1.1,2.2-1.8,4.4-3.1,6.3c-2.4,3.7-4.4,6.9-6.1,11.1c-0.4,0.9-0.9,1.5-1.1,2.2c-3.3-5.8-6.5-11.8-9.6-17.6
		c-1.5-3.1-2.6-6.3-4.4-9.4c-0.2-0.4-0.9-1.1-1.3-1.5c0-0.4-0.2-0.9-0.2-1.5c-0.2-0.7-1.1-0.7-1.3,0c-1.3,5.3,0,10.9-1.1,16.2
		c-1.1,5.1-1.3,11.1-1.8,16.4c-0.2,1.8,2.6,1.8,2.9,0c0.7-8.3,2.4-16.5,2.2-24.9c1.1,2.2,2.2,4.4,2.6,5.5c2.9,6.7,8.3,12.9,9.6,20.3
		c0.4,2.9,5.3,1.1,3.7-1.5c3.1-4,5.8-8.1,8.3-12.5c1.5-2.6,2.6-4.8,4-7.6c0.7-1.8,2.4-4.6,4-6.7c0,9.6-1.8,19.2-0.4,28.6
		c0.4,2.6,4.2,2,3.5-0.4C679.4,731.3,684,720,681.2,710.2z"/>
	<path fill="#FFFFFF" d="M721.3,737.1c-0.9,0.7-3.1,0.2-4,0.2c-2.6,0.2-5.1,0.7-7.6,0.7c-3.5,0-6.5-0.2-9.6,1.1
		c-0.2-4.6-0.2-9.2,0-13.8c0.9,0,2,0,2.6,0c1.3,0,2.9-0.4,4.2-0.7c2.9-0.7,5.6-0.2,8.3-1.1c1.3-0.4,0.9-2.2-0.2-2.2
		c-2.6-0.4-6.1,0.4-8.7,1.1c-1.8,0.4-4.4,0.7-6.1,1.5c0-0.2,0-0.4,0-0.7c0.2-3.1-1.1-6.9-1.5-10c-0.2-0.9-0.2-1.8-0.7-2.6
		c2.6,0.2,5.1-0.2,7.6-0.4c2-0.2,4-0.2,6.1-0.7c2.2-0.4,4.2,0,6.1-0.7c1.8-0.7,1.5-3.3-0.4-3.3c-5.1,0.2-9.8,1.1-14.9,1.8
		c-1.1,0.2-4.2,0.4-5.8,1.3c-0.4-0.4-1.3-0.2-1.3,0.7c0,4.2,0.2,8.7,0.9,12.7c0.7,3.3-0.2,6.7-0.2,10c0,3.1,0.2,6.1,0.4,9.2
		c0,1.8,2.2,2.2,3.1,1.3c2-0.2,4-0.9,5.8-0.9c2.4,0,4.8,0.2,7.2,0.2s4.6-0.7,6.9-0.9c1.3,0,2.2,0.2,3.3-0.4h0.2c0,0,0.2,0,0.2-0.2
		C725.5,739,723.5,735.5,721.3,737.1z"/>
	<path fill="#FFFFFF" d="M766.5,729.6c-2.6-1.1-5.3-3.3-7.4-5.3c-1.1-1.1-1.8-2.4-3.1-3.3c-0.4-0.4-1.3-0.7-2-0.9
		c4-2.2,6.3-5.6,5.1-11.6c-0.9-4.4-4.8-7.6-8.9-8.3c-3.7-0.7-9.2,0.2-13.1,2.2c-1.1,0.2-2,0.7-2.9,1.3c-0.4-0.2-1.3,0-1.3,0.7
		c0.9,10.7,1.8,21.6,3.1,32.5c0.4,3.5,4.6,1.3,3.7-0.7c-0.4-4-0.9-7.6-1.3-11.6c4-0.9,8.5-1.8,12.7-3.3c2.6,1.1,4,4,5.8,5.8
		c2,2.2,4.8,5.5,7.8,6.3C767.4,734.6,769.1,730.7,766.5,729.6z M737.9,721.1c-0.2-1.3-0.2-2.6-0.4-4c-0.4-2.6-0.2-7.2-1.5-10.5
		c1.3-0.4,2.4-0.4,3.3-1.5c0.2-0.2,0.2-0.4,0.4-0.7c6.7-1.3,14-3.1,16.5,5.1C759.5,719.3,744.4,719.5,737.9,721.1z"/>
	<path fill="#FFFFFF" d="M808.1,711.9c-1.3-3.7-3.3-7.2-4.8-10.9c-1.8-4.4-3.3-8.5-6.5-11.8c-4.8-4.6-12.9-1.1-17.9,2.6
		c-0.2-0.2-0.4-0.2-0.7-0.2c-3.5,0.4-7.4,4.6-7.8,8.1c-0.2,4,1.1,6.9,2.9,10.5c2,4,2.9,8.3,4.8,12.2c5.1,10.7,24,5.1,29.9-4.2
		c0.9-0.2,1.5-1.1,1.5-2.2c0-0.2,0-0.4-0.2-0.7c0.2-0.7,0.4-1.5,0.4-2.2C809.3,712.4,808.6,711.9,808.1,711.9z M793.4,724.2
		c-8.5,2.9-13.3-2.2-15.5-9.6c-1.3-4.4-4-8.1-4.4-12.5c-0.2-2.2,2.6-7.4,5.3-7.8c0.2,0,0.2-0.2,0.4-0.2c2-0.4,4-1.1,5.5-2
		c6.9-3.7,11.1-1.3,14.2,4.6c3.3,6.1,5.3,13.1,6.3,19.8C802.5,720.4,798.6,722.4,793.4,724.2z"/>
	<path fill="#FFFFFF" d="M821.7,633.8L821.7,633.8C822,633.8,822,633.8,821.7,633.8z"/>
	<path fill="#FFFFFF" d="M1016.5,612.6c-0.2-0.4-0.7-0.9-1.3-0.9c-3.7-0.9-4.6-3.5-7.6-5.3c-4.2-2.2-9.2-2-13.6-4
		c-1.3-0.7-4.8-2.9-8.1-4.2c0.4-0.2,0.9-0.4,1.1-0.7c-1.8-0.9-3.1-2.4-4-4.2c-0.4,0.4-1.1,0.9-1.5,1.1c-0.4-1.8-0.2-11.6-0.7-14
		c-1.3-5.8-0.9-13.1-3.1-18.7c0.2-0.2,0.4-0.7,0.4-1.1c0-0.2,0-0.4,0-0.7c0-1.8-2-2.2-3.1-1.3c-2.6,2.2-5.5,4.2-8.3,6.1
		c0.4-2.6,0.7-5.1,0.2-8.3c-0.9-7.4-0.2-12.9,0.4-20.1c1.5-15.8,2-32.5,1.5-48.3c-0.7-23.6-2.4-47.2-3.5-71v-164
		c1.1-29.7,1.5-59.6,0-89.3v-12.7c2.9,2.2,5.5,4.6,7.8,7.2c0.2,0.2,0.2,0.2,0.4,0.4c0.4,0.9,0.9,1.5,1.5,2.2l0.2,0.2
		c0.7,1.3,3.3,0.9,3.1-0.9l0,0c1.1-8.1,2-16.4,2-24.7c0-3.3,2.6-11.1,0.4-14.7c1.3-0.7,2.6-1.3,4.2-2c0,0.7,0.4,1.5,0.9,2
		c1.3-1.8,3.1-3.1,5.1-4.2c-0.2,0-0.7-0.2-0.9-0.2c4.8-2.4,9.6-4.8,14.7-6.9c3.5-1.3,9.2-2.2,11.8-4.8c1.1-1.3,0.4-2.6-0.9-3.1
		c-0.2-0.2-0.2-0.4-0.7-0.7C975,72.4,928.9,53,883.8,33.8c-22.1-9.4-47.4-14.4-70.6-19.6C790.7,8.9,765.8,5.6,742.5,4
		c-1.3,0-1.8,2.2-0.4,2.4c48.3,7.8,99.8,14.4,145.2,33.6c42.6,17.9,85.3,36.9,123.6,63.3c-2.4,0.9-5.3,2-5.1,2
		c-2.4,0.9-4.6,1.8-6.9,2.9c-6.9,3.3-13.8,7.4-20.5,11.1c-0.9,0.4-0.7,1.5-0.2,2.2c-0.2,2.2-0.9,4.6-1.1,6.7
		c-0.4,4.4-0.4,8.9-1.1,13.1c-0.7,4.6-0.7,8.9-0.9,13.6c-13.8-14-32.5-21.6-49.4-31.2c-17.4-10-38.3-18.5-57.2-25.1
		c-21.4-7.4-44.3-14-66.4-19.4c-19-4.8-41.7-9.8-61.3-7.8c-1.1,0-1.1,1.5,0,1.5c39.6,3.7,76.5,15.9,115,26.4
		c22.1,6.1,41.7,16.5,62.6,25.8c8.9,4,19,8.5,28.3,14.2l0,0c0.9,15.1,2,30.3,3.3,45.6c1.3,17.4-1.5,34.1-1.5,51.1
		c0,16-2.4,31.6-2.4,47.6v58.1c0,15.3-2.4,30.8-2.4,46.3c0,20.5,0,41,0,61.5c0,17,2.9,33.6,3.3,50.8c0.4,22.1-0.9,44.1-0.9,66.2
		c0,2.9,4.4,2.9,4.4,0c0.2-20.1,0.9-40.1,1.1-60.1c0-17.6-3.3-34.9-3.3-52.4c0-36.1-0.9-72,1.8-107.6c1.3-19,0.2-38.4,0.2-57.4
		c0-16.4,2.2-32.3,2.2-48.7c0-7.2,2.2-13.8,2.2-21.2c0-9.6,0-19-0.4-28.6c-0.7-9.6-1.5-19.2-2-28.8c-0.2-7.6-1.5-14-2.4-20.9
		c4.2,2.4,8.1,5.3,11.8,7.8v2.2c-0.4,7.8-0.2,15.8,0,23.4v10.5c0,3.3-0.2,6.5-0.4,9.8c-1.8,17.6-0.2,36.3-0.4,53.9
		c0,38.3-2,76.4-2,114.7c0,19.2,0.9,38.4,1.5,57.7c0.7,16.4,0,33.6,1.3,50v67.7c-0.2,2.2-0.4,4.4-0.9,6.7
		c-1.1,8.1,2.4,14.9-0.4,22.9c-0.2,0.4-0.2,0.9-0.2,1.1c-18.7,12.2-39,21.6-59.2,31.2c-26.2,12.7-55.5,17.9-81.5,31
		c-3.1,0.2-5.5,1.5-6.7,4.6c-0.4,1.1,0,2.2,0.9,3.1c0.7,1.5,0.9,3.5,1.5,5.1c1.5,2.9,2.4,6.3,3.5,9.4c-5.1,2.9-10,5.6-14.9,7.8
		c-19.4,8.5-38.4,16.8-59,22.5c-0.4-0.2-0.9-0.2-1.3-0.2c-10.9,2.2-22.5,3.7-33.6,5.3c-1.3,0.2-6.5,1.8-11.4,2.9
		c-0.9-0.7-2-0.9-3.3-0.9c-1.5,0-2.9,0.2-4.4,0.2c-13.8-1.8-27.7-1.1-41.7-2.4c-17.4-1.3-34.7-4.8-51.7-8.1
		c-16.4-3.1-29.7-9.6-44.5-16.8c-4-2-9.4-3.7-14.9-5.8c0.2-0.2,0.2-0.2,0.4-0.4c0.9-4.2,3.1-7.6,4.4-11.4c0.2-0.7,0.4-1.5,0.7-2.6
		c0.2-0.2,0.2-0.7,0.4-0.9c1.3-2.4,2.9-5.6,0.9-8.1c-0.7-1.1-1.5-2.4-2.6-2.9c-0.4-0.2-0.9,0-1.1,0.2c-0.2-0.2-0.7-0.4-1.1-0.4
		c-15.3-1.1-31.4-8.1-45.6-13.6c-16-6.1-31.9-11.8-47.2-19.6c-12.5-6.3-24.9-12.7-37.4-18.7c-6.3-3.1-12.2-7.2-18.1-11.1
		c0.7,0,1.5-0.2,1.5-1.1c3.5-15.5,1.5-33,1.5-48.9c0-18.3,0-36.9,0-55.2c0-15.1,2.4-32.5,0-47.2c-1.5-8.3-0.2-16.2,0.7-24.3
		c0.7-7.6-2.2-16-2.2-23.8c0-18.5,1.1-36.3,1.8-54.6c0.7-18.3-2.4-36.5,1.1-54.6c0.9-4.6,0.4-6.7-0.4-11.4
		c-1.8-10.9-0.7-22.9-0.7-33.8c0-21.6,0-43.2-0.2-64.8c0-0.2,0-0.4,0-0.7c5.5-3.1,10.7-5.5,12.5-6.3c8.9-4.8,17.4-9.8,26.5-14.4
		c21.2-10.5,43-19.4,65.5-26.7c43.7-14.2,88.9-29.2,135.4-29.2c2.6,0,2.6-4,0-4c-50.8,0.2-100.2,17.4-148.1,33.2
		c-22.5,7.4-44.8,17.6-65.5,29c-9.6,5.3-19.6,10.5-28.8,16.4c-0.9,0-1.8,0.4-2.4,1.1H389v1.1c-1.1,0.9-2.2,1.5-3.3,2.4
		c-1.5,1.1-4.8,3.1-7.2,5.3c-0.4-4.2,0-8.5,0-12.7c0-2,0-4,0-5.8c0.9-2.9,1.3-5.1,1.3-8.3c0-3.1,0.2-6.3-0.2-9.4
		c0.9-0.9,1.3-2.4,0.2-3.7c-1.5-1.8-3.5-1.8-5.8-2.4c-3.5-0.9-6.7-2.4-10.5-3.3c-6.9-1.8-14.2-4.4-21.2-6.5
		c3.3-2,17.6-9.4,19.8-10.5c11.1-6.3,22.5-12.5,34.1-18.3c24.7-12.9,49.2-26.7,74.9-36.5c26-10,53.9-16.5,81.3-21.6
		c13.6-2.4,27.3-4.8,40.8-7.2c13.3-2.4,28.1-7.6,41.7-6.7c1.1,0,1.3-1.5,0.2-2c-7.8-2.9-18.1,0.9-26,2.2
		c-13.1,2.4-26.5,4.4-39.5,6.3c-29,4.4-58.8,12-87.8,21.2c-24.9,7.8-49.4,20.1-72.4,32.1c-11.6,6.1-22.9,12.5-34.5,18.5
		c-11.8,6.3-22.5,15.8-34.3,21.6c-0.4,0.2-0.7,0.7-0.7,1.3c0,0.2,0,0.2,0,0.4c-0.4,0.4-0.2,1.3,0.4,2c5.8,3.7,13.6,5.1,19.8,7.8
		c2.6,1.1,5.5,1.8,8.3,2.9c2,0.9,6.5,1.1,8.3,2.4l0,0c-0.9,7.8-0.7,16-0.7,23.8c0,5.6-0.9,11.8,0.4,17.2c0.4,1.8,2.4,1.8,3.3,0.7
		c0.4-0.2,0.7-0.7,0.7-1.3c0-2,4.4-5.3,9.6-8.3v115.2c-1.3,10.7-0.4,21.6,0,32.3v16.8c-0.4,6.5-1.3,13.1-2.2,19.6
		c-1.1,10.5,0.7,22.1,0.7,32.5c0,14,1.3,26.7,0,40.4c-0.4,4.6,0.9,10,1.5,15.3v102.9c-0.2,9.2-0.7,18.5,0,27.5v12.2
		c-3.3-2-10.3-5.3-11.1-7.6c0-0.2-0.2-0.4-0.2-0.4l0,0c0-0.2,0-0.2,0-0.4c0-0.7-0.4-0.7-0.9-0.7s-0.7,0-0.9,0.7v0.2
		c-0.7,0.2-0.9,1.1-0.4,1.8c0,0.4,0.2,0.7,0.4,0.9l0,0c-0.2,8.9-0.4,17.6-0.7,26.7c0.4,0.9,0.7,2,0.4,2.9c0,0.9-0.2,1.5-0.4,2.4
		c0,2,0,4.2,0,6.1c-5.1,0.4-10.3,4.6-14.9,6.3c-6.3,2.4-12.7,6.3-19.2,8.3c-0.9,0.2-0.9,1.3-0.2,1.8c0,0.2,0.2,0.2,0.2,0.2
		c23.8,18.1,49.7,31.9,76.2,45.2c14.2,7.2,28.8,13.3,43.4,19.6c5.6,2.4,14,7.4,20.7,6.9c-2.4,3.7-4.6,7.6-5.8,11.6
		c-0.2,0.9,0.2,1.8,0.9,2.2c0,0.2,0.2,0.4,0.4,0.7c15.8,12.7,34.1,17.6,51.7,26.9c16.2,8.3,33.6,13.1,50.8,18.5
		c18.5,5.8,36.9,11.6,56.3,12.7c20.9,1.1,41.7,1.5,62.4,1.5c0.2,0,0.4,0,0.7-0.2c11.6,2,26-2.9,37.2-4.8
		c19.6-3.5,38.6-7.8,57.4-14.7c17.4-6.1,35.6-12.7,52.2-20.7c8.1-4,25.1-11.6,29-19.8c0.2-0.4,0.2-0.9,0.2-1.1
		c0.2-0.4,0.2-0.9,0-1.5c-1.3-3.5-2.9-6.9-4.8-10.5c8.3,0.2,20.1-5.8,27.1-8.1c16.2-5.1,31.4-14.4,47-21.2c14.7-6.3,27.3-16,41-23.8
		c1.3-0.7,2.4-1.5,3.7-2.2c0.2,0.4,0.7,0.7,1.1,0.4c6.1-2.9,11.1-7.4,16.8-10.9c3.1-2,5.1-3.7,5.8-4.6c0.7-0.2,1.1-0.4,1.8-0.9
		c0.4,0,0.9-0.4,1.1-0.7c0.2-0.2,0.7-0.4,0.9-0.7C1017.8,613.9,1017.3,612.8,1016.5,612.6z M818.3,641.4L818.3,641.4
		c3.5,0,6.7-0.4,10.3-0.4c1.8,0,5.1,0.4,6.5-0.7c1.5-0.9,5.8,0,7.8,1.3c-0.4,0.7-0.4,0.4-2.4,1.1c-0.2,0-0.4,0.2-0.7,0.4
		c-5.8,2.2-12,5.5-17.9,8.9c-0.9-2.4-1.5-4.8-2.4-7.2C819.3,643.8,819,642.5,818.3,641.4z M543.2,639.9c0.2,1.1,0,2.2-0.4,3.3
		c-0.4,0.9-1.1,1.8-1.8,2.4c-0.4,1.1-0.9,1.8-0.9,2c-1.1,3.1-2.4,6.3-2.9,9.4l0,0l0,0v0.2l0,0c-9.2-3.7-18.1-8.7-19.6-16.8l0,0
		c0.2,0.4,0.9,0.7,1.5,0.7c0-0.2,0-0.2,0-0.4c0.2,0.9,1.5,0.9,1.8,0v-0.2c3.5,0.2,7.2,0.7,10.3,0.9
		C534.2,641.6,540.1,642,543.2,639.9z M391.6,567.2c0,0.2,0,0.2,0,0.4s0.2,0.2,0.2,0.2c-0.4-0.2-0.7-0.4-1.1-0.7L391.6,567.2
		L391.6,567.2z M345,614.6c2.9-0.7,5.6-1.3,8.3-2.4c-1.1,1.3-2.4,2.9-3.1,4.4C348.4,615.7,346.7,615,345,614.6z M408.9,651.3
		c-12.5-5.8-23.8-12.2-35.6-19.4c-5.5-3.5-14.9-11.1-22.9-15.1c1.1-1.8,2.2-3.3,3.5-4.8c2.4-0.9,4.6-2,6.5-3.1
		c5.1-2.9,12.7-4.2,16.5-8.3h0.2c0.4,0,0.9-0.2,1.3-0.4c0.2-0.2,0.4-0.7,0.4-1.1c0-12.2-0.2-24.5-0.7-36.7
		c21.8,17.2,47.4,28.8,72.2,41.5c14,7.2,29,12.5,43.7,18.3c12.5,5.1,27.5,11.6,41.5,12.7c1.3-0.2,2.6,0,3.7,0.9c0,0,0.2,0,0.2,0.2
		l0,0c0.2,0.2,0.4,0.4,0.9,0.4c0.2,0.2,0.2,0.2,0.4,0.4c-4.6,3.7-23.4-0.7-28.6,0.2c-7.6,1.1-10,9.6-10.9,16.2
		c-3.5,5.8-6.5,12.2-9.6,18.1c-2.2,4.4-5.5,8.7-8.5,13.3l-0.2-0.2C457.8,678.7,432.7,662.6,408.9,651.3z M871.1,699.3
		c0.2,0.4,0.2,0.7,0.4,0.9c-5.6,8.1-23.2,15.8-31.2,19.6c-16.4,8.1-35.2,14.2-52.2,20.3c-15.5,5.5-31.4,7.8-47.4,11.1
		c-8.5,1.8-17.2,2.6-26,3.7c-6.1,0.7-11.6,3.5-17.9,2.9c-0.2,0-0.7,0-0.7,0.2c-37.6,0-73.3-1.5-109.4-13.6
		c-18.7-6.1-37.4-11.4-55.2-19.8c-17.2-8.3-35.6-13.3-51.1-24.9c0-0.2,0-0.4-0.2-0.7c-0.9-1.3,14-23.6,15.1-25.8
		c2.9-5.5,5.5-11.4,8.1-17l0,0c4.2-3.5,4-10.5,8.5-13.6v0.2c5.1,10,16.8,14.9,26.5,19.2c16,6.9,31,16.4,48.1,20.7
		c34.3,8.7,70.6,12.5,105.6,12.9c0.4,0,0.7,0,0.9-0.2c3.7,0.4,9.2-1.3,12-1.3c4.4,0,11.1-2,15.8-2.9c8.1-1.3,16.2-2,24-3.7
		c0.2,0,0.4-0.2,0.7-0.4c1.3,0,2.6-0.2,3.7-1.1c14-1.8,28.1-7.8,40.6-13.8c18.1-8.9,36.3-18.7,54.4-27.1c0.7-0.2,0.9-0.9,0.7-1.5
		c0,0,0.2,0,0.2-0.2c0.2,0,0.4-0.2,0.7-0.2c4,9.2,6.3,18.7,11.1,27.5c2.6,5.1,5.6,10.5,8.5,16c-0.7,0.4-0.7,0.9,0.4,0.9
		C868,691.4,869.8,695.4,871.1,699.3z M998.8,623.1c-11.6,6.3-23.2,12.7-34.3,19.8c-14.7,9.6-31.2,15.1-47,22.7
		c-9.8,4.8-19.4,9.2-29.7,12.5c-4.2,1.3-8.3,2.9-12.7,4.2c9.8-2.6,0.9-0.2-5.5,2.2c-0.2,0-0.4-0.2-0.4-0.2s0,0-0.2,0
		c-2.4-4.4-4.8-8.5-6.9-12.7c-5.1-9.4-7.8-22.7-14.7-31.2c0.4-3.3-5.3-4.8-8.3-5.1c-2-0.2-5.6-0.7-6.9,1.5c-0.4,0.7-6.9,0.2-7.8,0.4
		c-1.3,0.2-2.9,0.2-4.2,0.4c-5.6,0.7,0.4-3.3,1.3-4l0,0c27.7-8.5,56.1-16.2,81.9-29.4c12.5-6.5,25.6-10.3,37.2-18.5
		c7.2-5.3,34.1-14.7,33.8-24.7c0,0.4,0.2,0.9,0.4,1.1c2,11.4,2,22.9,3.5,34.3c0,0.4,0.2,0.9,0.4,1.1v0.2c-0.4,1.5,1.5,3.3,2.9,2.2
		c0.2,0,0.2-0.2,0.4-0.2c4.4,3.1,9.4,5.3,14,7.6c4,2.2,7.4,0.4,10.9,4.4c1.5,1.5,2.9,2.4,4.6,3.1
		C1007.5,617.4,1003,620.2,998.8,623.1z"/>
	<path fill="#FFFFFF" d="M414.1,619c-2.9-0.7-5.1-2.9-7.6-3.7c0.2-0.7,0.7-1.1,0.9-1.8c1.1-2,2.4-4,3.5-6.1c0.2,0.2,0.4,0.2,0.7,0.4
		c0.9,0.7,2,0.7,3.1,1.3c1.1,0.7,2.2,0.9,3.3,1.3c1.1,0.4,1.8,1.3,2.6,1.8c1.1,0.4,2.2-0.7,1.5-1.5c-1.3-2.2-3.7-2.6-5.6-3.7
		c-1.1-0.7-2.4-0.9-3.3-1.5c-1.1-0.9-2-1.5-3.1-2.2c-1.5-0.9-2.6,0.9-2,2.2c-1.5,2.6-3.1,5.5-4.2,8.3c0,0,0,0.2-0.2,0.2
		c-0.4,0.9-1.1,2-1.5,3.1c-1.1,1.8-2.2,3.5-3.1,5.3c-0.4,0.7-1.1,1.3-1.5,1.8c-0.7,0.7-0.2,1.5,0.4,1.8c0.7,1.3,2.2,2,3.3,2.6
		c1.1,0.7,2.2,1.1,3.3,1.8c1.8,0.9,2.9,2.2,4.4,3.3c1.8,1.1,3.5-2,1.5-2.9c-1.1-0.7-2.2-1.5-3.3-2.2c-1.1-0.7-2.2-1.1-3.5-1.5
		c-0.7-0.2-1.8-0.7-2.9-1.1l0.2-0.2v-0.4l0,0c0.7-2.4,2.2-4.6,3.5-6.7c0.4-0.2,0.7-0.7,0.9-1.1c0.9,0.7,1.8,1.3,2.6,2
		c1.5,1.3,3.3,2.4,5.3,2.9c0.2,0,0.4,0.2,0.7,0.2C415.9,622.2,416.1,619.4,414.1,619z"/>
	<path fill="#FFFFFF" d="M426.1,614.8c-4.6,1.3-4,6.3-2.2,9.6c2,3.7,5.8,7.4,6.3,11.6c-1.1,3.1-2.9,3.7-4.8,2.4
		c-1.1-0.9-2-1.8-3.1-2.9c-1.5-1.3-2.9-2.9-2.6-5.1c0.2-0.2,0.2-0.7,0-1.1c0,0,0-0.2-0.2-0.2c-0.4-0.9-2-0.9-2.4,0
		c-3.1,5.6,0.7,8.7,5.5,11.8c4.6,2.9,9.4,2.2,11.1-3.3c0.7-2-0.2-4.2-1.1-5.8c-0.7-1.5-8.7-12-5.5-13.3c2.9-1.1,6.7,0.2,9.2,1.8
		c0.9,0.4,1.5,2,2,3.3c-0.4,0.7-0.7,1.5-0.9,2.2c-0.2,0.7,0.2,1.1,0.7,1.3c0,0,0,0,0,0.2c0.2,0.4,0.7,0.4,1.1,0.2l0.2-0.2
		c0.2-0.2,0.4-0.2,0.4-0.7c2-2.4,1.8-6.1-0.7-8.3C435.9,614.8,430.5,613.7,426.1,614.8z"/>
	<path fill="#FFFFFF" d="M453.9,627.5c-1.3-0.7-2.4-1.5-3.5-2.2c0-0.2-0.2-0.7-0.7-0.7c-1.1-0.7-2.2-0.9-3.5-1.3c-0.2,0-0.4,0-0.4,0
		c-0.7,0-1.5,0.4-1.1,1.3c0.7,2,4,3.3,5.6,4.4c0.4,0.2,0.9,0.4,1.3,0.7c-3.3,6.5-6.3,13.3-10,19.8c-0.9,1.5,1.5,2.9,2.2,1.3
		c2.2-4,4.4-8.1,6.3-12c1.8-2,3.3-4.8,4.2-7.4c2.6,1.3,5.1,2.4,7.6,4c1.8,1.1,3.1-1.5,1.5-2.6C460.6,630.1,457.1,629,453.9,627.5z"
		/>
	<path fill="#FFFFFF" d="M457.8,655.8c-1.1-0.4-2.2,0.4-2.6,1.3c-0.2,0.4-0.2,1.1,0,1.3c0,0.2,0.2,0.4,0.4,0.7l0.2,0.2
		c0.2,0.2,0.4,0.4,0.7,0.7c0.2,0.2,0.4,0.2,0.7,0.2c1.1,0.2,2.4-0.7,2.2-2C459.5,657.1,458.9,656.3,457.8,655.8z"/>
	<path fill="#FFFFFF" d="M915.4,644.2c-1.8,1.3-3.7,1.8-5.5,2.6c-1.3,0.7-2.4,1.3-3.7,2c0.4-7.6,8.7-16.2,1.1-22.3
		c-2.6-2-6.1-0.9-8.7,0.7c-3.7,2.2-4.8,5.3-4,9.4c0.4,1.8,3.1,1.1,2.6-0.7c-0.7-4,2-7.2,6.1-7.4c4.8-0.4,4.2,5.8,3.1,8.7
		c-1.5,4.6-2.9,9.2-3.1,14c0,1.1,1.1,1.8,2,1.3c2-1.1,4-2.2,6.1-2.9c2.4-0.7,4.2-1.1,6.1-2.6C919.5,645.6,917.2,642.9,915.4,644.2z"
		/>
	<path fill="#FFFFFF" d="M926.6,619.4c-2.4-4.8-6.7-2.9-10.9-0.7c-0.4,0.2-0.7,0.7-0.7,0.9c-1.5,0.9-2.2,3.1-2.4,4.8
		c-0.7,3.7,3.1,10.3,5.1,12.9c2.4,3.3,4.4,6.7,8.9,5.5c1.5-0.4,3.1-1.5,4.4-2.4c0.7-0.7,1.3-3.7,0.7-3.3c0.4-0.2,0.7-0.9,0.7-1.3
		C931.5,629.7,929.1,624.6,926.6,619.4z M929.6,635.1c-0.9,1.5-0.4,2.2-2.2,3.5c-4,2.4-6.1-1.8-7.6-4.4c-0.9-1.8-2-3.5-2.9-5.3
		c-1.8-3.1-1.5-5.1,0.2-7.6c1.8-0.9,5.1-3.1,6.7-1.5c1.3,1.3,2.9,5.1,3.5,6.5C928.1,629.2,930.7,633.3,929.6,635.1z"/>
	<path fill="#FFFFFF" d="M944.9,629c-0.9,0.4-1.5,0.9-2.4,1.3c-0.9-2.6-3.3-5.5-3.7-7.4c-0.7-2.2-2.2-4.4-3.1-6.5
		c-0.9-2-1.5-3.7-2.9-5.5c-0.7-1.1-2.2-0.2-2.4,0.9c-0.4,2.9-0.4,6.3-1.1,9.2c-0.2,1.3,1.3,1.8,2,0.7c0,0,0,0,0-0.2l0,0
		c0.7-1.8,0.9-3.5,1.1-5.3c0.9,2.2,1.8,4.4,2.9,6.3c1.1,1.8,1.8,4.4,2.6,6.3c0.2,0.7,1.3,2.2,1.5,3.1c-0.9,0.7-2,1.3-2.6,2.2
		c-0.9,0.9-0.2,2,0.9,2c1.3-0.2,2.6-0.9,3.7-1.8c0.4,0,0.7-0.2,0.9-0.7c1.1-0.7,2.6-1.1,3.7-1.8C948.2,630.9,946.7,628.1,944.9,629z
		"/>
	<path fill="#FFFFFF" d="M953.4,611.7c-3.3-0.9-6.1,0.4-7.8,3.1c-1.3-2.2-2.2-4.6-3.5-6.7c1.8-0.7,3.1-1.8,4.8-2.4
		c0.9-0.2,1.8-0.4,2.4-0.9c0.2-0.2,0.7-0.2,0.9-0.4c0.9-0.4,1.1,0,0.2-0.7c1.8,1.1,3.7-1.3,2.4-2.6c-1.5-1.5-3.5-0.2-5.1,0.7
		c-1.1,0.7-2.4,0.9-3.5,1.5c-1.5,0.9-3.1,2-4.2,3.1c-0.4,0.2-0.4,0.9-0.2,1.3l0,0c-0.2,0.2-0.2,0.7,0,0.9l0,0
		c1.5,3.1,2.6,6.5,4.6,9.2c0.4,0.7,1.8,1.1,2.2,0.2c1.8-3.3,6.1-4.8,8.3-1.1c0.4,0.9,0.9,1.8,1.1,2.9c0.9,3.1-0.9,4.4-5.1,4
		c-0.7-1.5-3.3-0.7-2.9,1.1c2.2,7.6,12,2.6,10.9-4.2C958.4,617.2,956.9,612.6,953.4,611.7z"/>
</g>
</svg>
