<?xml version="1.0" encoding="utf-8"?>
<!-- Generator: Adobe Illustrator 18.1.1, SVG Export Plug-In . SVG Version: 6.00 Build 0)  -->
<svg version="1.1" id="Layer_1" xmlns="http://www.w3.org/2000/svg" xmlns:xlink="http://www.w3.org/1999/xlink" x="0px" y="0px"
	 viewBox="-315 336.1 733.8 733.8" enable-background="new -315 336.1 733.8 733.8" xml:space="preserve">
<g id="Layer_2" display="none">
	<g display="inline" opacity="0.5">
		<polygon points="35.4,621.5 1341.1,1339.9 35.4,2058.3 		"/>
	</g>
</g>
<g id="Layer_1_1_">
	<path fill="#FFFFFF" d="M-120,532.2V876c0,18.7,14.3,34.2,33.1,34.2c5.5,0,11-1.1,16.5-4.4L237,736.1c1.1,0,2.2-1.1,2.2-1.1
		c11-6.6,17.6-17.6,17.6-30.9c0-13.2-6.6-25.3-17.6-30.9c-1.1,0-2.2-1.1-2.2-1.1L-70.4,503.6c-4.4-2.2-11-4.4-17.6-4.4
		C-105.6,497-120,513.5-120,532.2"/>
	<path fill="#FFFFFF" d="M51.9,336.1C-150.8,336.1-315,500.3-315,703s164.2,366.9,366.9,366.9S418.8,905.8,418.8,703
		C418.8,500.3,254.7,336.1,51.9,336.1z M51.9,1030.3c-179.6,0-326.2-146.5-326.2-326.2c0-179.6,146.5-326.2,326.2-326.2
		c179.6,0,326.2,146.5,326.2,326.2C378.1,883.7,231.5,1030.3,51.9,1030.3z"/>
</g>
</svg>
