<?xml version="1.0" encoding="utf-8"?>
<!-- Generator: Adobe Illustrator 18.1.1, SVG Export Plug-In . SVG Version: 6.00 Build 0)  -->
<svg version="1.1" id="Layer_1" xmlns="http://www.w3.org/2000/svg" xmlns:xlink="http://www.w3.org/1999/xlink" x="0px" y="0px"
	 viewBox="0 0 1024 768" enable-background="new 0 0 1024 768" xml:space="preserve">
<g enable-background="new    ">
	<path fill="#FFFFFF" d="M14.9,260.9c0,28.9,42.2,21.8,42.2,57.2c0,15.9-12.3,28.3-28.3,28.3C12.7,346.4,0,334,0,318.1h14.9
		c0,7.8,6.5,14,14,14c8.4,0,14-6.2,14-14c0-28.3-42.9-21.8-42.9-57.2c0-15.6,12.7-28.3,28.9-28.3c15.9,0,28.3,12.7,28.3,28.3H42.9
		c0-7.8-5.5-13.6-14-13.6C21.4,247.2,14.9,253.1,14.9,260.9z"/>
	<path fill="#FFFFFF" d="M86.4,264.5c-4.9,7.1-8.1,15.9-8.1,25c0,9.4,3.2,17.5,8.1,24.7c2.9,4.2,5.8,7.1,10.1,10.1
		c6.8,4.9,15.3,8.1,24.7,8.1c9.1,0,17.9-3.2,24.7-8.1c3.9-2.9,7.5-5.8,10.4-10.1l9.7,10.1c-1.3,2.3-3.2,3.9-4.5,5.2
		c-1.6,1.9-3.6,3.9-5.2,5.2c-9.7,7.1-21.8,11.7-35.1,11.7c-13,0-25.3-4.5-34.8-11.7c-2.3-1.3-3.9-3.2-5.2-5.2
		c-1.9-1.3-3.9-2.9-5.2-5.2c-7.1-9.4-11.7-21.8-11.7-34.8c0-13.3,4.5-25.3,11.7-35.1c1.3-1.6,3.2-3.6,5.2-5.2
		c1.3-1.3,2.9-3.2,5.2-4.5c9.4-7.8,21.8-12.3,34.8-12.3c13.3,0,25.3,4.5,35.1,12.3c1.6,1.3,3.6,3.2,5.2,4.5c1.3,1.6,3.2,3.6,4.5,5.2
		l-9.7,10.1c-2.9-3.6-6.5-7.1-10.4-10.1c-6.8-4.9-15.6-7.5-24.7-7.5c-9.4,0-17.9,2.6-24.7,7.5C92.3,257.3,89.4,260.9,86.4,264.5z"/>
	<path fill="#FFFFFF" d="M237.2,232.6v14.6c-23.4,0-42.6,18.8-42.6,42.6v37.4v19.2h-14.3v-56.5v-57.2h14.3v19.8
		C204.7,240.4,220.3,232.6,237.2,232.6z"/>
	<path fill="#FFFFFF" d="M359.4,289.8c0,30.9-26,56.5-57.5,56.5c-30.9,0-56.9-25.7-56.9-56.5c0-31.5,26-57.2,56.9-57.2
		C333.4,232.6,359.4,258.3,359.4,289.8z M345.1,289.8c0-23.7-18.5-42.6-43.2-42.6c-23.4,0-42.6,18.8-42.6,42.6
		c0,23.4,19.2,42.2,42.6,42.2C326.6,332.1,345.1,313.2,345.1,289.8z"/>
	<path fill="#FFFFFF" d="M366.2,118.2h14.3v228.1h-14.3V118.2z"/>
	<path fill="#FFFFFF" d="M395.1,118.2h14.3v228.1h-14.3V118.2z"/>
	<path fill="#FFFFFF" d="M581.6,118.2h14.3v228.1h-14.3v-18.8c-10.4,11.7-25.3,18.8-42.6,18.8s-32.2-7.1-42.9-18.8
		c-8.8-10.4-14-23.7-14-38c0-14.6,5.2-27.6,14-37.7c10.7-11.7,25.7-19.5,42.9-19.5s32.2,7.8,42.6,19.5V118.2z M581.6,289.5
		c0-23.7-19.2-42.6-42.6-42.6s-42.9,18.8-42.9,42.6c0,23.4,19.5,42.9,42.9,42.9S581.6,312.9,581.6,289.5z"/>
	<path fill="#FFFFFF" d="M718.1,289.8c0,30.9-26,56.5-57.5,56.5c-30.9,0-56.9-25.7-56.9-56.5c0-31.5,26-57.2,56.9-57.2
		C692.1,232.6,718.1,258.3,718.1,289.8z M703.8,289.8c0-23.7-18.5-42.6-43.2-42.6c-23.4,0-42.6,18.8-42.6,42.6
		c0,23.4,19.2,42.2,42.6,42.2C685.3,332.1,703.8,313.2,703.8,289.8z"/>
	<path fill="#FFFFFF" d="M873.7,232.6h14.9L839,332.1l-7.1,14.3l-7.5-14.3l-21.8-42.2l-20.8,42.2l-7.5,14.3l-7.5-14.3l-48.7-99.4
		h13.6l42.6,85.5l21.4-42.2l6.8-14.9l7.5,14.9l21.8,42.2L873.7,232.6z"/>
	<path fill="#FFFFFF" d="M995.3,251.8c9.1,10.1,14.6,23.1,14.6,37.7v56.9h-14.6v-18.8v-38c0-23.7-18.8-42.6-42.2-42.6
		c-23.7,0-43.2,18.8-43.2,42.6v38v18.8h-14v-56.9v-57.2h14v19.5c11-11.7,26-19.5,43.2-19.5C969.9,232.3,984.9,240.1,995.3,251.8z"/>
</g>
<path fill="#F8F7F7" d="M491.2,528.1c-23.6-13.3-50.7-44.1-63.4-61.6c-2.4-3.6-6-4.8-9.1-5.4c-3.6-5.4-6.6-10.3-9.1-15.7
	c-7.2-14.5-29-1.8-21.7,12.7c26,52.6,81.6,89.4,113.6,139.6c5.4,8.5,16.9,7.9,21.7-0.6c20.5-33.2,44.1-64.6,68.9-94.8
	c5.4-6,10.3-11.5,15.1-16.3c1.8-1.8,2.4-3.6,3-5.4c8.5-9.7,16.9-19.3,25.4-28.4c10.9-12.1-7.2-29.6-18.1-17.5
	c-19.3,21.7-38.1,43.5-56.2,65.9c-13.3,15.1-28.4,35.6-44.7,39.3"/>
</svg>
