<?xml version="1.0" encoding="utf-8"?>
<!-- Generator: Adobe Illustrator 18.1.1, SVG Export Plug-In . SVG Version: 6.00 Build 0)  -->
<svg version="1.1" id="Layer_1" xmlns="http://www.w3.org/2000/svg" xmlns:xlink="http://www.w3.org/1999/xlink" x="0px" y="0px"
	 viewBox="0 0 169.5 123.9" enable-background="new 0 0 169.5 123.9" xml:space="preserve">
<text transform="matrix(1 0 0 1 1.411438e-04 55.7178)" fill="#FFFFFF" font-family="'Glasket-Medium'" font-size="53.7862">scroll down</text>
<path fill="#F8F7F7" d="M81.3,85.8c-3.9-2.2-8.4-7.3-10.5-10.2c-0.4-0.6-1-0.8-1.5-0.9c-0.6-0.9-1.1-1.7-1.5-2.6
	c-1.2-2.4-4.8-0.3-3.6,2.1C68.5,82.9,77.7,89,83,97.3c0.9,1.4,2.8,1.3,3.6-0.1C90,91.7,93.9,86.5,98,81.5c0.9-1,1.7-1.9,2.5-2.7
	c0.3-0.3,0.4-0.6,0.5-0.9c1.4-1.6,2.8-3.2,4.2-4.7c1.8-2-1.2-4.9-3-2.9c-3.2,3.6-6.3,7.2-9.3,10.9c-2.2,2.5-4.7,5.9-7.4,6.5"/>
</svg>
