<svg xmlns="http://www.w3.org/2000/svg" xmlns:xlink="http://www.w3.org/1999/xlink" version="1.1" id="Your_Icon" x="0px" y="0px" width="48px" height="48px" viewBox="19.4 171.575 48.0 64.8" enable-background="new 17 176.375 48 48" xml:space="preserve">
<path fill="#ffffff" d="M41,176.375c-13.255,0-24,10.745-24,24s10.745,24,24,24c13.256,0,24-10.745,24-24S54.256,176.375,41,176.375  z M44.564,211.375c0,2.2-1.271,2.727-2.83,1.172l-4.672-4.672h-7.687c-2.2,0-4-1.8-4-4v-7c0-2.2,1.8-4,4-4h7.687l4.672-4.672  c1.557-1.555,2.83-1.028,2.83,1.172V211.375z M56.102,204.994c-0.729,0.729-1.963,0.689-2.74-0.088l-1.881-1.879l-1.879,1.879  c-0.774,0.777-2.01,0.816-2.74,0.088c-0.729-0.729-0.688-1.962,0.091-2.74l1.879-1.879l-1.879-1.88  c-0.777-0.777-0.816-2.011-0.091-2.739c0.73-0.729,1.966-0.689,2.74,0.088l1.879,1.879l1.881-1.879  c0.777-0.777,2.013-0.816,2.738-0.088c0.73,0.729,0.689,1.962-0.088,2.74l-1.879,1.879l1.879,1.88  C56.789,203.032,56.83,204.266,56.102,204.994z"/>
</svg>