<svg xmlns="http://www.w3.org/2000/svg" xmlns:xlink="http://www.w3.org/1999/xlink" version="1.1" id="Your_Icon" x="0px" y="0px" width="48px" height="48px" viewBox="19.4 171.575 48.0 64.8" enable-background="new 17 176.375 48 48" xml:space="preserve">
<path fill="#ffffff" d="M41,176.375c-13.255,0-24,10.745-24,24s10.745,24,24,24c13.256,0,24-10.745,24-24S54.256,176.375,41,176.375  z M47.004,211.375c0,2.2-1.273,2.727-2.828,1.172l-4.672-4.672h-7.688c-2.2,0-4-1.8-4-4v-7c0-2.2,1.8-4,4-4h7.688l4.672-4.672  c1.555-1.555,2.828-1.028,2.828,1.172V211.375z M54.184,204.908c0,1.1-0.844,2-1.875,2s-1.875-0.9-1.875-2v-9.066  c0-1.1,0.844-2,1.875-2s1.875,0.9,1.875,2V204.908z"/>
</svg>