<?xml version="1.0" standalone="no"?>
<!DOCTYPE svg PUBLIC "-//W3C//DTD SVG 1.1//EN" "http://www.w3.org/Graphics/SVG/1.1/DTD/svg11.dtd" >
<svg>
<metadata>
Created by FontForge 20090914 at Fri Jan 23 04:13:46 2015
 By www-data
</metadata>
<defs>
<font id="Vintage" horiz-adv-x="833" >
  <font-face 
    font-family="Vintage"
    font-weight="400"
    font-stretch="normal"
    units-per-em="1000"
    panose-1="2 0 8 3 6 0 0 2 0 4"
    ascent="800"
    descent="-200"
    x-height="466"
    cap-height="670"
    bbox="-153 -301 1315 945.001"
    underline-thickness="110"
    underline-position="3"
    unicode-range="U+0020-U+2212"
  />
<missing-glyph horiz-adv-x="318" 
 />
    <glyph glyph-name=".notdef" horiz-adv-x="318" 
 />
    <glyph glyph-name="space" unicode=" " horiz-adv-x="318" 
 />
    <glyph glyph-name="space" unicode="&#xa0;" horiz-adv-x="318" 
 />
    <glyph glyph-name="exclam" unicode="!" horiz-adv-x="280" 
d="M228 207h-170v437l170 52v-489zM270 54c0 -16.667 -3.5 -32.667 -10.5 -48s-16.5 -29 -28.5 -41s-25.667 -21.5 -41 -28.5s-31.333 -10.5 -48 -10.5c-18.667 0 -36.167 3.5 -52.5 10.5s-30.666 16.5 -42.999 28.5s-22 25.667 -29 41s-10.5 31.333 -10.5 48
c0 18.667 3.5 35.834 10.5 51.501s16.667 29.334 29 41.001s26.666 20.667 42.999 27s33.833 9.5 52.5 9.5c16.667 0 32.667 -3.16699 48 -9.5s29 -15.333 41 -27s21.5 -25.334 28.5 -41.001s10.5 -32.834 10.5 -51.501z" />
    <glyph glyph-name="quotedbl" unicode="&#x22;" horiz-adv-x="432" 
d="M219 633c0 -24.667 -4.99902 -47.833 -14.999 -69.5s-23.833 -41.167 -41.5 -58.5s-38.834 -32.333 -63.501 -45s-51.667 -22 -81 -28v64c24 4 42.667 10.333 56 19s24 21 32 37c-16 4.66699 -30.667 14.167 -44 28.5s-20 31.833 -20 52.5c0 12 2.33301 23.333 7 34
s11 20 19 28s17.333 14.333 28 19s22 7 34 7s23.333 -2.33301 34 -7s20.167 -11 28.5 -19s14.833 -17.333 19.5 -28s7 -22 7 -34zM403.001 633.001c0 -25.333 -4.83105 -48.6689 -14.498 -70.002s-23.334 -40.666 -41.001 -57.999s-38.834 -32.166 -63.501 -44.499
s-51.667 -21.833 -81 -28.5v64c20 4 37.667 10.333 53 19s27 21 35 37c-20 4.66699 -35.833 14.167 -47.5 28.5s-17.5 31.833 -17.5 52.5c0 12 2.33301 23.333 7 34s11.167 20 19.5 28s17.833 14.333 28.5 19s22 7 34 7s23.333 -2.33301 34 -7s20 -11 28 -19
s14.333 -17.333 19 -28s7 -22 7 -34z" />
    <glyph glyph-name="numbersign" unicode="#" horiz-adv-x="704" 
d="M688 346h-146v-124h146v-60h-146v-162h-138v162h-107v-162h-138v162h-138v60h138v124h-138v60h138v146h138v-146h107v154h138v-154h146v-60zM404 222v124h-107v-124h107z" />
    <glyph glyph-name="dollar" unicode="$" horiz-adv-x="611" 
d="M516 281c20.667 -16.667 36.834 -35.502 48.501 -56.502s17.5 -46.167 17.5 -75.5c0 -37.333 -6.16699 -68.333 -18.5 -93s-30.5 -45 -54.5 -61c-12.667 -8.66699 -28.667 -16.834 -48 -24.501s-39 -13.5 -59 -17.5v-65h-164v57c-8 4 -16.333 6.66699 -25 8
s-19.334 4 -32.001 8l-61.5 14c-20.333 4.66699 -40.833 11.334 -61.5 20.001v162v50h66c2 -14 5.33301 -27 10 -39c4 -10 9.66699 -20 17 -30s17.333 -17 30 -21c20.667 -4 39.334 -7.83301 56.001 -11.5s33.667 -5.5 51 -5.5c20 0 35.833 3.5 47.5 10.5
s17.5 14.833 17.5 23.5c0 7.33301 -7.83301 15.166 -23.5 23.499s-37.834 16.5 -66.501 24.5l-87 33c-24.667 9.33301 -47.667 20.333 -69 33c-20 12.667 -34.5 29.334 -43.5 50.001s-13.5 47.334 -13.5 80.001c0 66.667 24.667 116 74 148
c16.667 12.667 35 22.834 55 30.501s42.333 13.5 67 17.5v25l156 74v-99c4 -4 8 -6.33301 12 -7s8.33301 -1 13 -1l52.5 -11c19 -4 36.5 -8.33301 52.5 -13v-155c-16 4 -33.5 8 -52.5 12s-36.5 8.33301 -52.5 13c-17.333 0 -32.333 1.33301 -45 4s-25 4 -37 4
c-21.333 0 -37.666 -3.5 -48.999 -10.5s-17 -14.5 -17 -22.5c0 -8.66699 7.66699 -16.667 23 -24s37.666 -13 66.999 -17c29.333 -8 56 -17.833 80 -29.5s46.333 -23.5 67 -35.5z" />
    <glyph glyph-name="uni0025" unicode="%" horiz-adv-x="891" 
d="M420 18h-163l183 647h181l-190 -647h-11zM357 482c0 -21.333 -4.83301 -41.666 -14.5 -60.999s-22.667 -36.5 -39 -51.5s-35.166 -27 -56.499 -36s-43.333 -13.5 -66 -13.5c-24.667 0 -48.167 4.5 -70.5 13.5s-41.833 21 -58.5 36s-29.834 32.167 -39.501 51.5
s-14.5 39.666 -14.5 60.999c0 22.667 4.83301 44.334 14.5 65.001s22.834 38.667 39.501 54s36.167 27.5 58.5 36.5s45.833 13.5 70.5 13.5c22.667 0 44.667 -4.5 66 -13.5s40.166 -21.167 56.499 -36.5s29.333 -33.333 39 -54s14.5 -42.334 14.5 -65.001zM174 581
c-14 0 -25.667 -9.16699 -35 -27.5s-14 -39.833 -14 -64.5c0 -28 4.66699 -51.333 14 -70s21 -28 35 -28c17.333 0 31 9.33301 41 28s15 42 15 70c0 24.667 -5 46.167 -15 64.5s-23.667 27.5 -41 27.5zM884 193c0 -21.333 -4.83301 -41.666 -14.5 -60.999
s-22.667 -36.5 -39 -51.5s-35.166 -27 -56.499 -36s-43.333 -13.5 -66 -13.5c-24.667 0 -48 4.5 -70 13.5s-41.333 21 -58 36s-30 32.167 -40 51.5s-15 39.666 -15 60.999c0 22.667 5 44.167 15 64.5s23.333 38.333 40 54s36 28 58 37s45.333 13.5 70 13.5
c22.667 0 44.667 -4.5 66 -13.5s40.166 -21.333 56.499 -37s29.333 -33.667 39 -54s14.5 -41.833 14.5 -64.5zM701 291c-14 0 -25.667 -9 -35 -27s-14 -39.333 -14 -64c0 -28 4.66699 -51.5 14 -70.5s21 -28.5 35 -28.5c17.333 0 31 9.5 41 28.5s15 42.5 15 70.5
c0 24.667 -5 46 -15 64s-23.667 27 -41 27z" />
    <glyph glyph-name="ampersand" unicode="&#x26;" horiz-adv-x="512" 
d="M503 -56c-10.667 -1.33301 -22.3311 -2.66406 -34.998 -3.99707c-22 -2 -51.333 -3 -88 -3v-71h-104v78c-26 3.33301 -51.833 9.16602 -77.5 17.499s-49.834 20 -72.501 35s-42.5 33.5 -59.5 55.5s-29.5 48.333 -37.5 79c-2.66699 6 -5 13 -7 21
c-1.33301 7.33301 -2.66602 16.166 -3.99902 26.499s-2 23.166 -2 38.499c0 32.667 1 57 3 73c1.33301 9.33301 2.66602 17.333 3.99902 24c8 32.667 20.833 60.334 38.5 83.001s38.167 41.5 61.5 56.5s48.166 26.667 74.499 35s52.5 15.166 78.5 20.499v91h110v-84
c16.667 0 32 -0.833008 46 -2.5l37 -4.5c12 -2 23.333 -4 34 -6v-130h-227c-22.667 0 -40.167 -5.5 -52.5 -16.5s-18.5 -23.167 -18.5 -36.5v-38h259v-111h-259v-40c0 -16 6.16699 -29.667 18.5 -41s29.833 -17 52.5 -17h227v-129z" />
    <glyph glyph-name="quotesingle" unicode="'" horiz-adv-x="169" 
d="M127 415l-72.0029 -0.00195312c-2 6.66699 -5.66699 20.834 -11 42.501l-16.5 69.5c-5.66699 24.667 -10.667 47.834 -15 69.501s-6.5 35.5 -6.5 41.5c0 24 7.83301 44.833 23.5 62.5s34.834 26.5 57.501 26.5c10.667 0 21.334 -2.5 32.001 -7.5
s19.834 -11.5 27.501 -19.5s13.5 -17.333 17.5 -28s5 -22 3 -34z" />
    <glyph glyph-name="parenleft" unicode="(" horiz-adv-x="485" 
d="M250 -168c-32 28 -61.6689 57.9971 -89.002 89.9971s-50 66.667 -68 104c-20.667 36 -36.5 72.667 -47.5 110s-16.5 77 -16.5 119c0 36.667 5.5 74.834 16.5 114.501s26.833 77.834 47.5 114.501c18 38 40.667 72.667 68 104s57 61 89 89h192
c-17.333 -18.667 -35.166 -35.667 -53.499 -51s-36.166 -31.666 -53.499 -48.999c-18 -19.333 -35.667 -40.833 -53 -64.5s-33 -51.834 -47 -84.501c-14 -26.667 -23.167 -54.167 -27.5 -82.5s-6.5 -58.5 -6.5 -90.5s2.16699 -63.667 6.5 -95s13.5 -60.666 27.5 -87.999
c14 -28 29.333 -53.5 46 -76.5l46 -63.5l56 -52.5c18 -17.667 37.667 -33.5 59 -47.5h-192z" />
    <glyph glyph-name="parenright" unicode=")" horiz-adv-x="397" 
d="M-34 -172c21.333 14 40.998 29.8359 58.998 47.5029l56 52.5l46 63.5c16.667 23 32 48.5 46 76.5c14 27.333 23.167 56.666 27.5 87.999s6.5 63 6.5 95s-2.16699 62.167 -6.5 90.5s-13.5 55.833 -27.5 82.5c-14 32.667 -29.667 60.834 -47 84.501s-35 45.167 -53 64.5
c-17.333 17.333 -35.166 33.666 -53.499 48.999s-36.166 32.333 -53.499 51h192c32 -28 61.667 -57.667 89 -89s50 -66 68 -104c20.667 -36.667 36.5 -74.834 47.5 -114.501s16.5 -77.834 16.5 -114.501c0 -42 -5.5 -81.667 -16.5 -119s-26.833 -74 -47.5 -110
c-18 -37.333 -40.667 -72 -68 -104s-57 -62 -89 -90h-192z" />
    <glyph glyph-name="asterisk" unicode="*" horiz-adv-x="610" 
d="M544 513c0 -7.33301 -3.16797 -16.332 -9.50098 -26.999s-13.5 -17.667 -21.5 -21l-128 -32l72 -81c3.33301 -3.33301 6.66602 -8.83301 9.99902 -16.5s5 -15.167 5 -22.5c0 -12 -5.33301 -23 -16 -33s-24 -15 -40 -15c-8 0 -14.667 0.666992 -20 2
s-12 5.66602 -20 12.999l-80 96l-89 -96c-3.33301 -7.33301 -8.83301 -13.166 -16.5 -17.499s-15.5 -6.5 -23.5 -6.5c-12 0 -23 5.33301 -33 16s-15 24.334 -15 41.001c0 4 0.333008 9.33301 1 16s3.33398 12 8.00098 16l72 88l-120 32
c-12 3.33301 -21.833 10.666 -29.5 21.999s-11.5 23 -11.5 35s5 23 15 33s21 15 33 15h17l135 -40v120c0 12 5.33301 23 16 33s24.334 15 41.001 15c12 0 23 -5 33 -15s15 -21 15 -33v-8v-112l128 40h24c12 0 23 -5.33301 33 -16s15 -24.334 15 -41.001z" />
    <glyph glyph-name="plus" unicode="+" 
d="M718 224h-239v-223h-146v223h-205v144h205v163l146 60v-223h171l68 -144v0z" />
    <glyph glyph-name="comma" unicode="," horiz-adv-x="318" 
d="M144 143c24 0 44.999 -7.83203 62.999 -23.499s27 -35.834 27 -60.501c0 -25.333 -5 -49.166 -15 -71.499s-23.833 -42.333 -41.5 -60s-38.667 -32.834 -63 -45.501s-50.833 -22.334 -79.5 -29.001v67c43.333 6 73.333 24.333 90 55
c-21.333 2.66699 -37.666 12 -48.999 28s-17 34.667 -17 56c0 24.667 8.16699 44.834 24.5 60.501s36.5 23.5 60.5 23.5z" />
    <glyph glyph-name="hyphen" unicode="-" horiz-adv-x="354" 
d="M39 161v151h249l30 -151h-279v0z" />
    <glyph glyph-name="period" unicode="." horiz-adv-x="316" 
d="M254 82c-1.33301 -22 -7 -40.167 -17 -54.5s-22.167 -25.166 -36.5 -32.499s-29.666 -11 -45.999 -11s-31.5 3.66699 -45.5 11s-25.667 18.166 -35 32.499s-14 32.5 -14 54.5c0 27.333 8.83301 49.833 26.5 67.5s40.167 26.5 67.5 26.5c13.333 0 26 -2.33301 38 -7
s22.667 -11.167 32 -19.5s16.666 -18.333 21.999 -30s8 -24.167 8 -37.5z" />
    <glyph glyph-name="slash" unicode="/" horiz-adv-x="361" 
d="M152 -91h-169l221 781h178l-230 -781v0z" />
    <glyph glyph-name="zero" unicode="0" horiz-adv-x="573" 
d="M549 292c0 -44 -5.66602 -85.498 -16.999 -124.498s-28 -73.333 -50 -103s-49.333 -53.167 -82 -70.5s-71 -26 -115 -26c-41.333 0 -77.833 8.66699 -109.5 26s-58.167 40.666 -79.5 69.999s-37.333 63.666 -48 102.999s-16 81 -16 125s5.33301 86.167 16 126.5
s26.5 75.666 47.5 105.999s47.167 54.333 78.5 72s68 25.834 110 24.501c45.333 -1.33301 84.666 -10.333 117.999 -27s61 -39.5 83 -68.5s38.167 -63.333 48.5 -103s15.5 -83.167 15.5 -130.5zM290.001 449.002c-30 0 -54.501 -13.501 -73.501 -40.501
s-28.833 -64.833 -29.5 -113.5c-0.666992 -24 1.83301 -46 7.5 -66s13.334 -37.167 23.001 -51.5s21 -25.333 34 -33s26.833 -11.5 41.5 -11.5c31.333 0 54.666 14.833 69.999 44.5s23.666 68.834 24.999 117.501c0.666992 48.667 -7.66602 86.5 -24.999 113.5
s-41.666 40.5 -72.999 40.5z" />
    <glyph glyph-name="one" unicode="1" horiz-adv-x="422" 
d="M137 471h-109v141h109h180c0 -76.667 0.333008 -147 1 -211v-81.5v-75v-59.5c0 -16.667 -0.333008 -28 -1 -34c0 -17.333 4 -30 12 -38s17 -13.667 27 -17c11.333 -3.33301 24.333 -4.33301 39 -3v-94h-258v472z" />
    <glyph glyph-name="two" unicode="2" horiz-adv-x="596" 
d="M137 243c12 12 24.667 22.3311 38 30.998l40 25l38.5 24c12.333 8 23.5 17 33.5 27c43.333 42.667 63 74.334 59 95.001c-1.33301 4.66699 -3.33301 10.334 -6 17.001s-7.16699 12.834 -13.5 18.501s-15.166 10.167 -26.499 13.5s-26.333 4 -45 2
c-13.333 -1.33301 -23.833 -6.5 -31.5 -15.5s-13.5 -18.833 -17.5 -29.5c-4.66699 -12 -8 -26 -10 -42c-10.667 -0.666992 -23.667 -0.666992 -39 0c-13.333 0 -29.5 0.333008 -48.5 1s-41.167 1.66699 -66.5 3c0.666992 39.333 6.5 72.166 17.5 98.499
s26.667 47.666 47 63.999s45.166 28.333 74.499 36s63.333 12.5 102 14.5c67.333 -4 120.5 -19 159.5 -45s62.167 -67.667 69.5 -125c4 -40 -6 -77.333 -30 -112s-60 -71 -108 -109l-48.5 -36.5l-29.5 -21.5c-8 -6 -14 -10.333 -18 -13c20.667 -4.66699 40 -8.66699 58 -12
c15.333 -3.33301 31 -6.16602 47 -8.49902s28.667 -3.5 38 -3.5c20 0 33.5 5.83301 40.5 17.5s9.5 25.5 7.5 41.5l89 1c2.66699 -70.667 -10 -124 -38 -160s-71.333 -54 -130 -54c-26 0 -48.333 3.83301 -67 11.5l-52 20.5c-20 7.33301 -37 13.833 -51 19.5s-26 8.5 -36 8.5
c-11.333 0 -22 -4 -32 -12s-17.667 -18.667 -23 -32h-79c0 57.333 7.5 104.833 22.5 142.5s36.5 70.5 64.5 98.5z" />
    <glyph glyph-name="three" unicode="3" horiz-adv-x="570" 
d="M190 357l99.998 112.001l-240 3l2 151h483v-97l-40 -39l-41 -39.5l-47 -46.5c22.667 -7.33301 42.334 -18.166 59.001 -32.499s30.5 -30.833 41.5 -49.5s19 -39 24 -61s7.5 -44 7.5 -66c0 -68.667 -22.667 -122 -68 -160s-113.666 -57 -204.999 -57
c-36 0 -68.667 4.33301 -98 13s-54.333 20.834 -75 36.501s-36.5 34.667 -47.5 57s-16.5 47.166 -16.5 74.499c0 18 3 33.667 9 47s14 24.5 24 33.5s21.5 15.833 34.5 20.5s26.5 7 40.5 7c11.333 0 22.5 -2 33.5 -6s21 -9.5 30 -16.5s16.167 -15.833 21.5 -26.5
s8 -22.334 8 -35.001c0 -24 -7.16699 -42.667 -21.5 -56s-32.5 -20 -54.5 -20c12 -12.667 24.167 -21.334 36.5 -26.001s29.5 -7 51.5 -7c40 0 70.167 11.5 90.5 34.5s30.5 54.5 30.5 94.5c0 18.667 -5.33301 33.5 -16 44.5s-24.167 19 -40.5 24s-34.833 8.16699 -55.5 9.5
s-41 2 -61 2v77z" />
    <glyph glyph-name="four" unicode="4" horiz-adv-x="610" 
d="M41 115l1.00195 105.001l315 389h121v-366h94v-79h-90v-53c0 -8.66699 0.833008 -15.834 2.5 -21.501s5.16699 -10 10.5 -13s12.666 -5 21.999 -6s21.666 -1.16699 36.999 -0.5l23 1v-71l-242 2l-1 110zM354.002 236.001l-1 148l-135 -145z" />
    <glyph glyph-name="five" unicode="5" horiz-adv-x="527" 
d="M37 623h448.994v-154h-299v-77c48.667 6 93.667 6.33301 135 1c18 -2.66699 35.833 -6.5 53.5 -11.5s34.334 -12.167 50.001 -21.5s29.5 -20.833 41.5 -34.5s21 -30.5 27 -50.5c11.333 -39.333 15.666 -74.5 12.999 -105.5s-10.5 -58 -23.5 -81
s-30.167 -42.333 -51.5 -58s-45 -27.5 -71 -35.5s-55.333 -13.833 -88 -17.5s-64.5 -3.16699 -95.5 1.5s-59.5 14.334 -85.5 29.001s-45.667 36 -59 64c-13.333 27.333 -18.666 51 -15.999 71s9.33398 36.5 20.001 49.5s23.334 22.5 38.001 28.5s27.667 9 39 9
c8 0 17.667 -2 29 -6s21.833 -10.333 31.5 -19s17.5 -19.334 23.5 -32.001s8 -27.334 6 -44.001c-1.33301 -7.33301 -3.33301 -14.666 -6 -21.999c-2.66699 -6 -6 -11.833 -10 -17.5s-9.66699 -10.167 -17 -13.5c14.667 -1.33301 29 -1.33301 43 0
c12 1.33301 24.833 3.83301 38.5 7.5s26.167 9.5 37.5 17.5c9.33301 7.33301 16.833 16.5 22.5 27.5s9.83398 22.5 12.501 34.5s3.5 23.833 2.5 35.5s-3.5 21.5 -7.5 29.5c-6 8 -14.667 16.167 -26 24.5s-24.166 14.833 -38.499 19.5s-29.166 6.66699 -44.499 6
s-30 -5.66699 -44 -15h-130v360z" />
    <glyph glyph-name="six" unicode="6" horiz-adv-x="557" 
d="M305 625h224.003c-40.667 -30.667 -77.334 -60.667 -110.001 -90l-42 -39c-14 -13.333 -27 -26.333 -39 -39s-22.333 -25 -31 -37s-14.667 -22.667 -18 -32c31.333 0 60.666 -3 87.999 -9c12 -2.66699 24 -6 36 -10s23.667 -9 35 -15s21.666 -13.167 30.999 -21.5
s17 -17.833 23 -28.5c24 -44.667 35.167 -89.334 33.5 -134.001s-19.5 -87.334 -53.5 -128.001c-11.333 -12 -27 -22.667 -47 -32s-42.167 -16.666 -66.5 -21.999s-50 -8.5 -77 -9.5s-53.333 0.833008 -79 5.5s-49.667 12.334 -72 23.001s-41.166 25 -56.499 43
c-22 26 -36.333 54 -43 84s-8.83398 59.333 -6.50098 88s7.33301 55 15 79s15.167 43.667 22.5 59c6 14 18.5 34.167 37.5 60.5s40.333 53.333 64 81s47.5 53.167 71.5 76.5s44 39 60 47zM289.003 267c-18 0 -33.833 -8.83398 -47.5 -26.501s-20.5 -39.5 -20.5 -65.5
c0 -13.333 1.83301 -25.666 5.5 -36.999s8.66699 -21.5 15 -30.5s13.5 -16 21.5 -21s16.667 -7.5 26 -7.5c20 0 37 9.5 51 28.5s21 41.5 21 67.5s-7 47.833 -21 65.5s-31 26.5 -51 26.5z" />
    <glyph glyph-name="seven" unicode="7" horiz-adv-x="571" 
d="M545 615l0.000976562 -93.998c-22.667 -38.667 -43.334 -71.667 -62.001 -99l-50 -74.5c-14.667 -22.333 -27.5 -43.833 -38.5 -64.5s-20.667 -43.834 -29 -69.501s-15.333 -55.334 -21 -89.001s-10.5 -74.5 -14.5 -122.5h-158
c-1.33301 32.667 -0.333008 64.334 3 95.001s8.33301 60.167 15 88.5s14.5 55.166 23.5 80.499s18.167 48.666 27.5 69.999c22 50.667 47.667 97 77 139c-9.33301 0.666992 -20 1.33398 -32 2.00098c-10.667 0.666992 -23.667 1.16699 -39 1.5s-33.666 0.5 -54.999 0.5
c-20.667 0 -35.167 -5 -43.5 -15s-13.5 -21 -15.5 -33c-2.66699 -14 -2.33398 -30 0.999023 -48h-112v234z" />
    <glyph glyph-name="eight" unicode="8" horiz-adv-x="575" 
d="M45 443c0 58 20.832 103.664 62.499 136.997s101.834 50 180.501 50c34.667 0 65.667 -3.83301 93 -11.5s50.5 -18.167 69.5 -31.5s33.667 -29.166 44 -47.499s15.5 -38.166 15.5 -59.499c0 -28 -8 -51.667 -24 -71s-40 -36 -72 -50c42 -18 74 -41.333 96 -70
s33 -63.334 33 -104.001c0 -63.333 -23.333 -112.833 -70 -148.5s-113.667 -53.5 -201 -53.5c-81.333 0 -143.5 15.333 -186.5 46s-64.5 74.667 -64.5 132c0 32 9.66699 59.833 29 83.5s47.666 42.834 84.999 57.501c-31.333 16.667 -54.166 36.834 -68.499 60.501
s-21.5 50.5 -21.5 80.5zM162.999 160.997c0 -24.667 9.33203 -44.5 27.999 -59.5s44.334 -22.5 77.001 -22.5c65.333 0 98 22 98 66c0 18 -12.333 32.667 -37 44s-61 26 -109 44c-38 -16.667 -57 -40.667 -57 -72zM369.998 459.997c0 18 -8.16699 33.335 -24.5 46.002
s-39.5 19 -69.5 19c-28 0 -49.167 -5.33301 -63.5 -16s-21.5 -24.334 -21.5 -41.001c0 -10 2.83301 -18.5 8.5 -25.5s14 -13.333 25 -19s24.833 -11.334 41.5 -17.001l58 -19.5c16.667 8.66699 28.5 19 35.5 31s10.5 26 10.5 42z" />
    <glyph glyph-name="nine" unicode="9" horiz-adv-x="541" 
d="M257 -18l-221.998 -1c39.333 30.667 75 60.667 107 90l41.5 39c13.667 13.333 26.167 26.5 37.5 39.5s21.333 25.333 30 37s15 22.5 19 32.5c-30.667 0 -59.667 3 -87 9c-23.333 4.66699 -47 13.167 -71 25.5s-42.333 30.166 -55 53.499
c-24 42 -35.167 85.167 -33.5 129.5s21.167 86.5 58.5 126.5c13.333 14.667 30.333 27.167 51 37.5s43 18.166 67 23.499s49 8.33301 75 9s51.333 -1.66602 76 -6.99902s47.667 -13.5 69 -24.5s39.333 -25.167 54 -42.5c22 -27.333 36.333 -56 43 -86s9 -59.333 7 -88
s-6.83301 -55.167 -14.5 -79.5s-14.5 -43.833 -20.5 -58.5c-4 -9.33301 -11 -21.666 -21 -36.999s-21.833 -32 -35.5 -50s-28.5 -36.333 -44.5 -55s-31.833 -36.167 -47.5 -52.5s-30.834 -30.833 -45.501 -43.5s-27.334 -21.667 -38.001 -27zM270.002 338
c10 0 19.333 2.66699 28 8s16.167 12.166 22.5 20.499s11.333 18.166 15 29.499s5.5 23 5.5 35c0 12.667 -1.83301 24.834 -5.5 36.501s-8.66699 21.834 -15 30.501s-13.833 15.667 -22.5 21s-18 8 -28 8c-9.33301 0 -18.166 -2.66699 -26.499 -8
s-15.666 -12.333 -21.999 -21s-11.333 -18.834 -15 -30.501s-5.5 -23.834 -5.5 -36.501c0 -12 1.83301 -23.667 5.5 -35s8.66699 -21.166 15 -29.499s13.666 -15.166 21.999 -20.499s17.166 -8 26.499 -8z" />
    <glyph glyph-name="colon" unicode=":" horiz-adv-x="318" 
d="M265 82c-1.33301 -22 -7 -40.167 -17 -54.5s-22.167 -25.166 -36.5 -32.499s-29.666 -11 -45.999 -11s-31.5 3.66699 -45.5 11s-25.667 18.166 -35 32.499s-14 32.5 -14 54.5c0 27.333 8.83301 49.833 26.5 67.5s40.167 26.5 67.5 26.5c13.333 0 26 -2.33301 38 -7
s22.667 -11.167 32 -19.5s16.666 -18.333 21.999 -30s8 -24.167 8 -37.5zM264 379c-1.33301 -22 -7 -40.167 -17 -54.5s-22.167 -25.166 -36.5 -32.499s-29.666 -11 -45.999 -11s-31.5 3.66699 -45.5 11s-25.667 18.166 -35 32.499s-14 32.5 -14 54.5
c0 27.333 8.83301 49.833 26.5 67.5s40.167 26.5 67.5 26.5c13.333 0 26 -2.33301 38 -7s22.667 -11.167 32 -19.5s16.666 -18.333 21.999 -30s8 -24.167 8 -37.5z" />
    <glyph glyph-name="semicolon" unicode=";" horiz-adv-x="318" 
d="M268 382c-1.33301 -22 -7 -40.167 -17 -54.5s-22.167 -25.166 -36.5 -32.499s-29.666 -11 -45.999 -11s-31.5 3.66699 -45.5 11s-25.667 18.166 -35 32.499s-14 32.5 -14 54.5c0 27.333 8.83301 49.833 26.5 67.5s40.167 26.5 67.5 26.5c13.333 0 26 -2.33301 38 -7
s22.667 -11.167 32 -19.5s16.666 -18.333 21.999 -30s8 -24.167 8 -37.5zM181 147c-24 0 -44.166 -7.83398 -60.499 -23.501s-24.5 -35.834 -24.5 -60.501c0 -21.333 5.66699 -40 17 -56s27.666 -25.333 48.999 -28c-16.667 -30.667 -46.667 -49 -90 -55v-67
c28.667 6.66699 55.167 16.334 79.5 29.001s45.333 27.834 63 45.501s31.5 37.667 41.5 60s15 46.166 15 71.499c0 24.667 -9 44.834 -27 60.501s-39 23.5 -63 23.5z" />
    <glyph glyph-name="less" unicode="&#x3c;" horiz-adv-x="479" 
d="M444 439l-234 -137l234 -129v-161l-412 213v157l412 211v-154z" />
    <glyph glyph-name="equal" unicode="=" 
d="M122 326v145h523l63 -145h-586zM122 132v145h523l63 -145h-586z" />
    <glyph glyph-name="greater" unicode="&#x3e;" horiz-adv-x="455" 
d="M16 597l412 -211v-157l-412 -213v161l234 129l-234 137v154z" />
    <glyph glyph-name="question" unicode="?" horiz-adv-x="554" 
d="M135 236v36.002c0 24.667 9.16699 47.667 27.5 69s47.166 40.666 86.499 57.999c70.667 29.333 106 55.333 106 78c0 7.33301 -1.66699 14.333 -5 21s-8.66602 11.667 -15.999 15c-12 14 -35.333 21 -70 21c-25.333 0 -44.666 -5 -57.999 -15s-20 -24 -20 -42
c0 -3.33301 0.166992 -6.83301 0.5 -10.5s2.16602 -9.16699 5.49902 -16.5h-178c-3.33301 7.33301 -5.16602 14.5 -5.49902 21.5s-0.5 15.833 -0.5 26.5c0 32.667 5.66699 60.167 17 82.5s29.666 42.166 54.999 59.499c21.333 18 47.5 31 78.5 39s66.167 12 105.5 12
c46 0 85.667 -5 119 -15s62 -24 86 -42c25.333 -18 44.833 -40.5 58.5 -67.5s20.5 -56.833 20.5 -89.5c0 -36 -9.16699 -67.667 -27.5 -95s-47.5 -50 -87.5 -68c-77.333 -36 -112.333 -62 -105 -78h-193zM370 73.002c0 -19.333 -3.33301 -37.333 -10 -54s-16 -31 -28 -43
s-26.333 -21.333 -43 -28s-35 -10 -55 -10c-17.333 0 -34 3.33301 -50 10s-30.167 16 -42.5 28s-22.166 26.333 -29.499 43s-11 34.667 -11 54c0 18 3.66699 35.167 11 51.5s17.166 30.666 29.499 42.999s26.5 22.333 42.5 30s32.667 11.5 50 11.5
c20 0 38.333 -3.83301 55 -11.5s31 -17.667 43 -30s21.333 -26.666 28 -42.999s10 -33.5 10 -51.5z" />
    <glyph glyph-name="at" unicode="@" horiz-adv-x="690" 
d="M572 511c27.333 -23.333 47.1641 -48.6699 59.4971 -76.0029s18.5 -59 18.5 -95c0 -30 -4.5 -56.167 -13.5 -78.5s-22.167 -45.166 -39.5 -68.499c-18 -21.333 -36.167 -38.333 -54.5 -51s-37.833 -19.667 -58.5 -21c-10 -0.666992 -19.333 0.333008 -28 3
s-16 5.66699 -22 9c-7.33301 3.33301 -14 7.33301 -20 12l-32 -22c-8.66699 -5.33301 -16.667 -10.5 -24 -15.5s-12.666 -8.16699 -15.999 -9.5c-2.66699 0 -8.16699 -1.16699 -16.5 -3.5s-18.5 -3.33301 -30.5 -3s-25.667 3.33301 -41 9s-31 16.834 -47 33.501
c-15.333 14.667 -26.333 31 -33 49s-11 34.667 -13 50c-2.66699 18 -3 36 -1 54c0.666992 20.667 4 40.334 10 59.001c5.33301 16 13.333 32.167 24 48.5s26.334 29.833 47.001 40.5c19.333 10.667 38.833 15.334 58.5 14.001s37.5 -4.66602 53.5 -9.99902
c18.667 -6.66699 36.667 -15.667 54 -27l7 11l106 12c-0.666992 -42.667 -1 -80.667 -1 -114c0 -14 -0.166992 -28 -0.5 -42s-0.5 -26.333 -0.5 -37s0.166992 -19.334 0.5 -26.001l0.5 -10c3.33301 0.666992 7 2.33398 11 5.00098c3.33301 2 7 5 11 9s8.66699 9.66699 14 17
c8 13.333 13.667 28.666 17 45.999s5 34.666 5 51.999c0 23.333 -4.16699 45 -12.5 65s-21.5 37.333 -39.5 52c-20.667 15.333 -42.834 27.166 -66.501 35.499s-50.5 12.5 -80.5 12.5c-38.667 0 -74.167 -5 -106.5 -15s-60.166 -27 -83.499 -51
c-26.667 -21.333 -45 -45.833 -55 -73.5s-15 -58.167 -15 -91.5c0 -61.333 21.667 -110.666 65 -147.999c41.333 -35.333 98.333 -53 171 -53c18 0 35.833 1.66699 53.5 5s35.167 7.66602 52.5 12.999c18.667 3.33301 36.334 8.83301 53.001 16.5s30.667 16.167 42 25.5v-73
c-15.333 -8.66699 -31.5 -16 -48.5 -22s-36.167 -12 -57.5 -18c-17.333 -6 -34.666 -9.5 -51.999 -10.5s-33.333 -1.5 -48 -1.5c-44.667 0 -86 6.16699 -124 18.5s-72 31.833 -102 58.5c-32.667 24 -56.5 52 -71.5 84s-22.5 67 -22.5 105c0 42 8.5 80.667 25.5 116
s41.833 68 74.5 98c36 29.333 73.667 51.333 113 66s82.666 22 129.999 22c42 0 79.333 -4.66699 112 -14s62 -24.666 88 -45.999zM341.998 180.996c15.333 0 28.002 10.167 38.002 30.5s15 45.5 15 75.5c0 14.667 -1.33301 28.834 -4 42.501
s-6.33398 25.834 -11.001 36.501s-10.334 19 -17.001 25s-13.667 9 -21 9c-6 0 -11.833 -3 -17.5 -9s-10.667 -14.333 -15 -25s-7.83301 -22.834 -10.5 -36.501s-4 -27.834 -4 -42.501s1.33301 -28.5 4 -41.5s6.16699 -24.167 10.5 -33.5s9.33301 -16.833 15 -22.5
s11.5 -8.5 17.5 -8.5z" />
    <glyph glyph-name="A" unicode="A" horiz-adv-x="788" 
d="M576 1l-75.999 222.999h-182l-88 -223h-216v105c19.333 0 34.666 1.83301 45.999 5.5s20.333 7.83398 27 12.501c7.33301 5.33301 13 11.333 17 18l206 527h207l264 -668h-205zM406.001 504.999l-59 -182h123z" />
    <glyph glyph-name="B" unicode="B" horiz-adv-x="722" 
d="M578 374c12.667 -8.66699 27.002 -18 43.002 -28s30.833 -22.833 44.5 -38.5s24.334 -35.334 32.001 -59.001s10.167 -53.5 7.5 -89.5c-1.33301 -18 -6 -34.167 -14 -48.5s-17.833 -26.666 -29.5 -36.999s-24.667 -19.333 -39 -27s-28.833 -14.167 -43.5 -19.5
c-34.667 -12 -73.667 -20 -117 -24l-345 -3c-0.666992 79.333 -1.33398 152.666 -2.00098 219.999c0 28.667 -0.166992 57.5 -0.5 86.5s-0.5 56.167 -0.5 81.5v68v45c0 20 -5.16699 35 -15.5 45s-21.5 16.667 -33.5 20c-14.667 4 -31 5.66699 -49 5v98h458
c21.333 -1.33301 41.333 -6.66602 60 -15.999s34.667 -19.333 48 -30c16 -12 30 -25.667 42 -41c21.333 -39.333 31.166 -72.333 29.499 -99s-8.16699 -48 -19.5 -64c-12.667 -19.333 -31.334 -34.333 -56.001 -45zM491.002 472c0 14.667 -2.33301 27.002 -7 37.002
s-11 18.5 -19 25.5s-17 12.333 -27 16s-20.333 6.5 -31 8.5c-24.667 4 -52.667 4 -84 0v-168c31.333 -6 59.333 -7.66699 84 -5c10.667 1.33301 21 3.66602 31 6.99902s19 8.33301 27 15s14.333 15.167 19 25.5s7 23.166 7 38.499zM323.002 101.002
c31.333 -5.33301 59.333 -6.33301 84 -3c10.667 1.33301 21 3.83301 31 7.5s19 8.66699 27 15s14.333 14.5 19 24.5s7 22.333 7 37c0 15.333 -2.33301 28.333 -7 39s-11 19.667 -19 27s-17 13 -27 17s-20.333 7 -31 9c-24.667 4.66699 -52.667 5 -84 1v-174z" />
    <glyph glyph-name="C" unicode="C" horiz-adv-x="719" 
d="M590 395c1.33301 4.66699 2.00293 10.3369 2.00293 17.0039c0 5.33301 -0.5 11.833 -1.5 19.5s-3.16699 16.167 -6.5 25.5c-9.33301 26.667 -21.833 47.5 -37.5 62.5s-32.834 25.333 -51.501 31s-37.667 7.33398 -57 5.00098s-37.333 -7.83301 -54 -16.5
c-16 -4.66699 -33.5 -15.334 -52.5 -32.001s-35.333 -37.5 -49 -62.5s-22.667 -53.5 -27 -85.5s0.5 -66 14.5 -102c14 -30 30.833 -53.5 50.5 -70.5s41 -29.333 64 -37s46.833 -11.167 71.5 -10.5s49 3.66699 73 9c56 12 115 35.667 177 71l-3 -164
c-2.66699 -2 -10.834 -6.16699 -24.501 -12.5s-31.5 -13 -53.5 -20s-47.333 -14 -76 -21s-58.834 -12.333 -90.501 -16s-64.167 -4.83398 -97.5 -3.50098s-65.666 6.5 -96.999 15.5s-61 22.667 -89 41s-52.333 42.833 -73 73.5c-32 55.333 -51.333 108.833 -58 160.5
s-4.66699 99.667 6 144s28 83.833 52 118.5s51 63 81 85c20.667 14 44 25.167 70 33.5s53.333 14.666 82 18.999s57.667 7.16602 87 8.49902s57.666 1.66602 84.999 0.999023c64.667 -2.66699 131 -9.66699 199 -21l-3 -267z" />
    <glyph glyph-name="D" unicode="D" horiz-adv-x="772" 
d="M750 319c0 -38.667 -3.99902 -72.832 -11.999 -102.499s-18.667 -55.5 -32 -77.5s-28.5 -40.833 -45.5 -56.5s-34.5 -28.5 -52.5 -38.5c-41.333 -24 -88.333 -38.667 -141 -44l-351 -1c0 79.333 0.333008 152.666 1 219.999v87c0 29.333 0.166992 56.666 0.5 81.999
s0.5 48 0.5 68v46c0 20.667 -5.5 35.834 -16.5 45.501s-23.167 16.5 -36.5 20.5c-16 4 -33.667 5.66699 -53 5v100h460c51.333 -3.33301 97.666 -18 138.999 -44c17.333 -11.333 34.333 -25.5 51 -42.5s31.5 -38 44.5 -63s23.5 -54.333 31.5 -88s12 -72.5 12 -116.5z
M575.001 329.002c0 37.333 -5.33301 68.1709 -16 92.5039s-24.5 43.666 -41.5 57.999s-36 24.666 -57 30.999s-41.5 10.333 -61.5 12s-38.333 2 -55 1s-29.667 -1.5 -39 -1.5l-1 -195v-192c9.33301 0 22.333 -0.5 39 -1.5s35.167 -0.666992 55.5 1s40.833 5.66699 61.5 12
s39.5 16.666 56.5 30.999s31 33.666 42 57.999s16.5 55.5 16.5 93.5z" />
    <glyph glyph-name="E" unicode="E" horiz-adv-x="694" 
d="M131 0c-0.666992 80 -0.998047 154.001 -0.998047 222.001c0 28.667 -0.166992 57.667 -0.5 87s-0.5 56.666 -0.5 81.999v67v44c0 20.667 -5.83301 35.834 -17.5 45.501s-24.167 16.5 -37.5 20.5c-16 4 -34 5.66699 -54 5v100h646l1 -112h-375
c-2.66699 -24 -2 -45.333 2 -64c3.33301 -16 10 -30.333 20 -43s26.333 -18.334 49 -17.001l243 1v-152c-32 -0.666992 -62.333 -1 -91 -1h-132c-28.667 0 -49.834 -6.83301 -63.501 -20.5s-20.334 -28.5 -20.001 -44.5s7.33301 -30.833 21 -44.5s34.167 -20.5 61.5 -20.5
h272v-153z" />
    <glyph glyph-name="F" unicode="F" horiz-adv-x="648" 
d="M310 -1l-190.998 2.00098v503c0 20.667 -5.33301 36.167 -16 46.5s-22.334 17.166 -35.001 20.499c-14.667 4 -31.334 5.33301 -50.001 4v95h604v-118h-344c-2 -22 -1.33301 -41.667 2 -59c3.33301 -14.667 9.5 -27.667 18.5 -39s24.167 -16.333 45.5 -15h242v-154h-219
c-20.667 0 -35.667 -6.5 -45 -19.5s-14 -30.167 -14 -51.5z" />
    <glyph glyph-name="G" unicode="G" horiz-adv-x="723" 
d="M176 6c-22 10.667 -43.668 29.002 -65.001 55.002s-39.5 56.667 -54.5 92s-25.833 73.833 -32.5 115.5s-6.16699 83.5 1.5 125.5s23.5 82.667 47.5 122s59.333 74.333 106 105c19.333 14.667 41.666 26.5 66.999 35.5s52 15.833 80 20.5s56.667 7.66699 86 9
s58 1.66602 86 0.999023c65.333 -2 133 -9 203 -21l6 -273h-106c0 3.33301 -0.666992 8 -2 14c-1.33301 5.33301 -2.66602 11.5 -3.99902 18.5s-3.33301 15.833 -6 26.5c-6.66699 28 -18.667 49.5 -36 64.5s-36.5 25.5 -57.5 31.5s-41.667 8 -62 6s-36.5 -6 -48.5 -12
c-14 -6 -30.5 -17.833 -49.5 -35.5s-36 -39.5 -51 -65.5s-25.5 -55.833 -31.5 -89.5s-3.33301 -69.834 8 -108.501c10 -32 24.167 -57 42.5 -75s37.833 -31.167 58.5 -39.5s40.834 -12.666 60.501 -12.999s35.834 1.16699 48.501 4.5c16.667 4 29.167 10.333 37.5 19
s14.166 17.667 17.499 27c4 10.667 5.66699 21.667 5 33c0 24 -5.5 40.833 -16.5 50.5s-23.167 15.5 -36.5 17.5c-15.333 2.66699 -32.666 1.33398 -51.999 -3.99902v91h281v-326c-60.667 -22.667 -122 -39.667 -184 -51c-26.667 -4.66699 -54.667 -8.33398 -84 -11.001
s-59 -3.16699 -89 -1.5s-59.833 5.66699 -89.5 12s-57.834 16.166 -84.501 29.499z" />
    <glyph glyph-name="H" unicode="H" horiz-adv-x="716" 
d="M294 276l-0.000976562 -274.999l-171 -1v501c0 20.667 -5.16699 36.167 -15.5 46.5s-21.833 17.166 -34.5 20.499c-14.667 4 -31.334 5.33301 -50.001 4v100h253v-77c1.33301 -48.667 3.33301 -85.5 6 -110.5s8.33398 -43 17.001 -54s21.334 -17 38.001 -18
s39.667 -1.5 69 -1.5h100l-1 261h183l-6 -671h-182l-1 276z" />
    <glyph glyph-name="I" unicode="I" horiz-adv-x="316" 
d="M287 0l-173 -0.999023v226v88c0 29.333 0.166992 56.666 0.5 81.999s0.5 47.5 0.5 66.5v42.5c0 19.333 -5 33.5 -15 42.5s-21 15.167 -33 18.5c-14 4 -29.667 5.33301 -47 4v101h267v-670z" />
    <glyph glyph-name="J" unicode="J" horiz-adv-x="594" 
d="M365 71v418.999c0 22.667 -6 39.334 -18 50.001s-25 18.334 -39 23.001c-16.667 4.66699 -35.334 6.66699 -56.001 6v101h299c1.33301 -128 2.33301 -243.667 3 -347v-130.5v-116.5c0 -34.667 -0.333008 -63.834 -1 -87.501s-1.33398 -37.834 -2.00098 -42.501
c-2 -12.667 -8.33301 -30.334 -19 -53.001s-27 -44.5 -49 -65.5s-50.833 -38.5 -86.5 -52.5s-79.834 -18.667 -132.501 -14c-52.667 3.33301 -96.667 13.833 -132 31.5s-62.666 38.834 -81.999 63.501s-31.333 51.167 -36 79.5s-2.5 54.333 6.5 78s24.5 43.167 46.5 58.5
s49.667 23 83 23c22 -4 39 -11.833 51 -23.5s19.833 -25.334 23.5 -41.001s4.16699 -31.667 1.5 -48s-7.66699 -30.666 -15 -42.999s-16.333 -21.666 -27 -27.999s-22 -6.83301 -34 -1.5c11.333 -6 23 -10.667 35 -14c10 -3.33301 21.333 -5.83301 34 -7.5s25 -1.5 37 0.5
c18.667 2 35.667 9.66699 51 23c12.667 11.333 24.834 29.333 36.501 54s18.834 59.667 21.501 105z" />
    <glyph glyph-name="K" unicode="K" horiz-adv-x="743" 
d="M452 135c-18 34.667 -35.999 60.501 -53.999 77.501s-34.333 28.5 -49 34.5s-27.334 8 -38.001 6s-18 -5 -22 -9l-1 -242l-171 -2c-1.33301 27.333 -1.33301 82.666 0 165.999s1.33301 194.333 0 333c0 20.667 -5.16699 36.167 -15.5 46.5s-21.833 17.166 -34.5 20.499
c-14.667 4 -31.334 5.33301 -50.001 4v100h265l6 -265l229 265l194 -1l-241 -305c20.667 -16 39.667 -32.667 57 -50c15.333 -14.667 30.333 -31.167 45 -49.5s25.667 -36.166 33 -53.499c4.66699 -10 11 -20.5 19 -31.5s17.333 -20.833 28 -29.5s22.5 -15.167 35.5 -19.5
s26.833 -4.83301 41.5 -1.5v-94c-33.333 -20 -66.333 -30.667 -99 -32c-14 -0.666992 -28.667 0.833008 -44 4.5s-30.666 10.334 -45.999 20.001s-30.5 23.167 -45.5 40.5s-29.167 39.666 -42.5 66.999z" />
    <glyph glyph-name="L" unicode="L" horiz-adv-x="597" 
d="M302 230c0 -26.667 3.33398 -46.499 10.001 -59.499s14 -22.167 22 -27.5c9.33301 -6.66699 20 -9.33398 32 -8.00098l207 -1v-134l-455 1l1 506c0 20.667 -5.16699 36 -15.5 46s-21.833 16.667 -34.5 20c-14.667 4 -31.334 5.33301 -50.001 4v95h283v-442z" />
    <glyph glyph-name="M" unicode="M" horiz-adv-x="859" 
d="M225 -2l-185.001 0.00195312l27.5 183.5l19 125.5l12 81.5l7.5 51.5c2 14 3.83301 26 5.5 36s3.5 21.667 5.5 35c3.33301 19.333 -0.166992 33.666 -10.5 42.999s-22.166 15.666 -35.499 18.999c-16 4 -34.333 5.33301 -55 4v95h262l179 -483l149 483h150l89 -674h-185
l-48 262l-77 -256h-149l-102 256z" />
    <glyph glyph-name="N" unicode="N" horiz-adv-x="760" 
d="M556 672l185 0.000976562v-672h-255l-198 452l6 -452l-172 -1v507c0 20.667 -5.83301 36.167 -17.5 46.5s-24.167 17.166 -37.5 20.499c-16 4 -34 5.33301 -54 4v95h338l205 -493v493z" />
    <glyph glyph-name="O" unicode="O" horiz-adv-x="726" 
d="M358 688c48 0 93.167 -9.16699 135.5 -27.5s79.166 -43.333 110.499 -75s56.166 -68.834 74.499 -111.501s27.5 -88.334 27.5 -137.001s-9.16699 -94.334 -27.5 -137.001s-43.166 -79.834 -74.499 -111.501s-68.166 -56.667 -110.499 -75s-87.5 -27.5 -135.5 -27.5
s-93.167 9.16699 -135.5 27.5s-79.166 43.333 -110.499 75s-56.166 68.834 -74.499 111.501s-27.5 88.334 -27.5 137.001s9.16699 94.334 27.5 137.001s43.166 79.834 74.499 111.501s68.166 56.667 110.499 75s87.5 27.5 135.5 27.5zM359 122c20.667 0 40 5.66699 58 17
s33.667 26.666 47 45.999s23.833 42.166 31.5 68.499s11.5 54.166 11.5 83.499s-3.83301 57 -11.5 83s-18.167 48.833 -31.5 68.5s-29 35.167 -47 46.5s-37.333 17 -58 17c-20 0 -39 -5.66699 -57 -17s-33.833 -26.833 -47.5 -46.5s-24.334 -42.5 -32.001 -68.5
s-11.5 -53.667 -11.5 -83s3.83301 -57.166 11.5 -83.499s18.334 -49.166 32.001 -68.499s29.5 -34.666 47.5 -45.999s37 -17 57 -17z" />
    <glyph glyph-name="P" unicode="P" horiz-adv-x="675" 
d="M289 0l-187.997 -0.999023v507c0 20.667 -5.16699 36.167 -15.5 46.5s-21.833 17.166 -34.5 20.499c-14.667 4 -31.334 5.33301 -50.001 4v94l436 -1c38 -2 72 -10.333 102 -25c12.667 -6 25 -13.833 37 -23.5s22.667 -21.5 32 -35.5s16.666 -30.5 21.999 -49.5
s7.66602 -40.833 6.99902 -65.5c0 -23.333 -2.83301 -44.166 -8.5 -62.499s-13 -34.5 -22 -48.5s-19.5 -25.833 -31.5 -35.5s-24 -17.834 -36 -24.501c-28.667 -16 -61 -25.667 -97 -29h-153v-271zM289.003 565.001l0.00292969 -194.002
c35.333 -1.33301 66.666 1.33398 93.999 8.00098c11.333 2.66699 22.5 6.33398 33.5 11.001s20.833 10.667 29.5 18s15.334 16.166 20.001 26.499s6.66699 22.5 6 36.5c-0.666992 14.667 -3.83398 27.334 -9.50098 38.001s-12.834 19.5 -21.501 26.5s-18.5 12.667 -29.5 17
s-22.167 7.5 -33.5 9.5c-26.667 5.33301 -56.334 6.33301 -89.001 3z" />
    <glyph glyph-name="Q" unicode="Q" horiz-adv-x="769" 
d="M732 19c5.33301 -3.33301 11.1689 -6.5 17.502 -9.5s12.5 -6.5 18.5 -10.5c-7.33301 0 -16.333 -0.166992 -27 -0.5s-22.334 -0.833008 -35.001 -1.5l-39 -2l-39 -2c-30 -2 -61.667 -4 -95 -6l-25 32l-18 23c-2.66699 -6.66699 -6.5 -11.5 -11.5 -14.5
s-9.5 -5.83301 -13.5 -8.5c-41.333 -24.667 -89.333 -37 -144 -37c-23.333 0 -47 3 -71 9s-46.667 15.333 -68 28c-25.333 14.667 -48.5 33.167 -69.5 55.5s-38.833 47.166 -53.5 74.499s-26 57 -34 89s-12 65.333 -12 100c0 48 8.16699 93.667 24.5 137
s38.5 81.333 66.5 114s60.667 58.5 98 77.5s77 28.5 119 28.5c44 0 85.167 -9.5 123.5 -28.5s71.833 -44.833 100.5 -77.5s51.167 -70.667 67.5 -114s24.5 -89 24.5 -137c0 -32.667 -4.33301 -64.167 -13 -94.5s-19.334 -58.833 -32.001 -85.5
c8 -9.33301 17.833 -20.166 29.5 -32.499l36.5 -38c12.667 -13 25.5 -25.5 38.5 -37.5s24.833 -22.333 35.5 -31zM321.003 556c-16.667 0 -32.3301 -5.99902 -46.9971 -17.999s-27.5 -28.167 -38.5 -48.5s-19.667 -44.166 -26 -71.499s-9.5 -56 -9.5 -86
c0 -8.66699 1 -16.334 3 -23.001s3 -13 3 -19c8.66699 7.33301 20 14.833 34 22.5s30.667 13 50 16s41.666 2.5 66.999 -1.5s53.666 -14.333 84.999 -31v36c0 30 -3.16699 58.667 -9.5 86s-15 51.166 -26 71.499s-23.833 36.5 -38.5 48.5s-30.334 18 -47.001 18z
M401.007 158.001c-6 7.33301 -14.667 15 -26 23s-24.5 14.333 -39.5 19s-31.333 6.5 -49 5.5s-36.167 -6.83301 -55.5 -17.5c9.33301 -28 22 -49.167 38 -63.5s33.333 -21.5 52 -21.5c15.333 0 30 4.5 44 13.5s26 22.833 36 41.5z" />
    <glyph glyph-name="R" unicode="R" horiz-adv-x="791" 
d="M305 230l-0.00585938 -230.002h-186c0.666992 78 1.33398 150.333 2.00098 217v86.5c0 29 -0.166992 56.167 -0.5 81.5s-0.666016 48.333 -0.999023 69s-0.833008 36.667 -1.5 48c0 21.333 -5.16699 36.833 -15.5 46.5s-21.5 16.5 -33.5 20.5c-14 4 -30 5.66699 -48 5v97
h436c42 -3.33301 79.667 -12.666 113 -27.999c14 -6.66699 27.833 -15 41.5 -25s26 -22.167 37 -36.5s20 -31 27 -50s10.833 -40.833 11.5 -65.5c0.666992 -17.333 0.166992 -34 -1.5 -50s-5.66699 -31 -12 -45s-15.833 -27.167 -28.5 -39.5s-29.334 -23.833 -50.001 -34.5
c13.333 -18 25.5 -39.667 36.5 -65s22.667 -48.5 35 -69.5s26.666 -37.5 42.999 -49.5s36.5 -13.333 60.5 -4v-90c-30 -16 -58.667 -27.333 -86 -34c-12 -2.66699 -24.167 -4.5 -36.5 -5.5s-24.166 -0.5 -35.499 1.5s-22.166 6 -32.499 12s-19.166 14.667 -26.499 26
c-15.333 22.667 -26.666 42.167 -33.999 58.5s-13.333 30.833 -18 43.5s-9.16699 24.334 -13.5 35.001s-10.833 21.334 -19.5 32.001c-11.333 13.333 -25 24 -41 32c-13.333 7.33301 -30.166 12.666 -50.499 15.999s-44.166 1.33301 -71.499 -6zM304.994 561.998v-192.999
c32.667 -3.33301 62.334 -2.33301 89.001 3c10.667 2 21.334 5.33301 32.001 10s20.334 10.667 29.001 18s15.5 16.5 20.5 27.5s7.5 24.167 7.5 39.5c0 14 -2.5 26.333 -7.5 37s-11.833 19.5 -20.5 26.5s-18.334 12.833 -29.001 17.5s-21.334 8 -32.001 10
c-26.667 5.33301 -56.334 6.66602 -89.001 3.99902z" />
    <glyph glyph-name="S" unicode="S" horiz-adv-x="622" 
d="M598 487l-134.995 0.00195312c-10.667 21.333 -30 38.666 -58 51.999s-61.667 20 -101 20c-22 0 -39.5 -5.33301 -52.5 -16s-19.5 -24.334 -19.5 -41.001c0 -12 4.16699 -21.667 12.5 -29s20.666 -14 36.999 -20s36.833 -11.833 61.5 -17.5l87 -20.5
c55.333 -16.667 97.833 -43 127.5 -79s44.167 -75 43.5 -117c0 -30 -5.5 -58.833 -16.5 -86.5s-27.667 -52.167 -50 -73.5s-50.333 -38.333 -84 -51s-73.5 -19 -119.5 -19c-36 0 -72.333 5.33301 -109 16s-70 22.667 -100 36c-34.667 15.333 -68 33 -100 53v172h99
c13.333 -40 35.666 -70.5 66.999 -91.5s68 -31.5 110 -31.5c28 0 49.5 4.5 64.5 13.5s22.5 23.167 22.5 42.5c0 8.66699 -1.83301 15.5 -5.5 20.5s-9.16699 9.33301 -16.5 13s-16.833 7 -28.5 10l-41.5 10.5l-120.5 33c-36.333 10 -68.166 24.667 -95.499 44
c-19.333 17.333 -34.333 36.833 -45 58.5s-16 44.834 -16 69.501c0 28.667 6 56.667 18 84s29.5 51.666 52.5 72.999s50.667 38.333 83 51s69.166 19 110.499 19c11.333 0 26.666 -0.5 45.999 -1.5s40.166 -3.5 62.499 -7.5s45.166 -10 68.499 -18s44.833 -19.333 64.5 -34
s36.5 -33.167 50.5 -55.5s22.667 -49.5 26 -81.5z" />
    <glyph glyph-name="T" unicode="T" horiz-adv-x="614" 
d="M175 534c-19.333 0 -33.668 -4.16797 -43.001 -12.501s-15.666 -17.166 -18.999 -26.499c-4 -12 -5.33301 -25 -4 -39h-89v215h571l2 -141l-192 2v-534h-196l5 536h-35z" />
    <glyph glyph-name="U" unicode="U" horiz-adv-x="704" 
d="M280 211c0 -22 5.33105 -39.502 15.998 -52.502s24.167 -22.5 40.5 -28.5s33.833 -8.33301 52.5 -7s36.167 5.66602 52.5 12.999s29.833 17.333 40.5 30s16 27.667 16 45l-2 462h191l-1 -456c-5.33301 -45.333 -19.333 -86 -42 -122
c-10 -15.333 -22.167 -30.166 -36.5 -44.499s-31.666 -27.166 -51.999 -38.499s-44.166 -20.5 -71.499 -27.5s-58.333 -10.5 -93 -10.5c-18.667 0 -39 0.666992 -61 2s-43.833 4.33301 -65.5 9s-42.5 12 -62.5 22s-38 23.667 -54 41s-29 39.5 -39 66.5
s-15.333 59.833 -16 98.5c0 28 -0.166992 55.167 -0.5 81.5s-0.833008 50.5 -1.5 72.5s-1.16699 41.333 -1.5 58s-0.5 29.334 -0.5 38.001c0 23.333 -4.5 40.5 -13.5 51.5s-18.833 18.833 -29.5 23.5c-12.667 5.33301 -27 7.33301 -43 6l1 126h274z" />
    <glyph glyph-name="V" unicode="V" horiz-adv-x="758" 
d="M753 671l-236 -673.998l-248 6l-80 225l-30 85.5l-27.5 77.5l-21 59c-5.66699 16 -9.16699 26.333 -10.5 31c-9.33301 23.333 -20 40.666 -32 51.999s-23.667 18.666 -35 21.999c-12.667 4 -26 5 -40 3v113h233l177 -473l178 473h172z" />
    <glyph glyph-name="W" unicode="W" horiz-adv-x="885" 
d="M489 427l-159.001 -427h-161c-7.33301 83.333 -14.666 159 -21.999 227l-9.5 85.5l-8.5 77.5c-2.66699 23.333 -5.16699 43 -7.5 59s-4.16602 26.333 -5.49902 31c-10.667 25.333 -22.167 43.5 -34.5 54.5s-23.833 18.167 -34.5 21.5
c-12.667 4 -25.334 4.33301 -38.001 1v113h261l35 -350l119 350h125l118 -350l36 350h172l-71 -670h-161z" />
    <glyph glyph-name="X" unicode="X" horiz-adv-x="813" 
d="M295 341l-276.999 330.002h218l172 -200l-18 -6l148 206h200l-218 -324v12l272 -359h-236l-166 242h18l-130 -242h-236h-12v12v94v11h12c21.333 -1.33301 41.666 0 60.999 4c16.667 3.33301 33.667 9.66602 51 18.999s31.333 23.666 42 42.999l99 176v-18z" />
    <glyph glyph-name="Y" unicode="Y" horiz-adv-x="677" 
d="M12 672l202 -1l158 -216l92 216h214l-359 -673h-239v73c12 -2.66699 24 -2.66699 36 0c10 2 21 6.83301 33 14.5s23 20.167 33 37.5l37 66l14.5 26.5c2.33301 4.33301 3.33301 6 3 5s0.166992 -0.333008 1.5 2l10 17.5l30 51z" />
    <glyph glyph-name="Z" unicode="Z" horiz-adv-x="633" 
d="M614 671l0.000976562 -100.997l-323 -421h112c14.667 -1.33301 27.167 -0.5 37.5 2.5s18.833 7.66699 25.5 14s11.667 13.666 15 21.999s5.66602 17.166 6.99902 26.499c2.66699 21.333 1 45.666 -5 72.999h138v-287l-613 4v91l305 420h-305l1 154z" />
    <glyph glyph-name="bracketleft" unicode="[" horiz-adv-x="615" 
d="M81 -187v861h449v-121h-234v-618h234v-122h-449v0z" />
    <glyph glyph-name="backslash" unicode="\" horiz-adv-x="355" 
d="M-21 692h177l219 -775h-160l-236 775v0z" />
    <glyph glyph-name="bracketright" unicode="]" horiz-adv-x="617" 
d="M88 -63h232v613h-232v121h446v-854h-446v120v0z" />
    <glyph glyph-name="underscore" unicode="_" horiz-adv-x="500" 
d="M2 -232l-1 88h441l58 -88h-498v0z" />
    <glyph glyph-name="a" unicode="a" horiz-adv-x="625" 
d="M371 446l150.996 12.998l-4 -250c-0.666992 -16.667 -0.333984 -31.334 0.999023 -44.001c1.33301 -11.333 3.33301 -21.333 6 -30s7 -13 13 -13c5.33301 0 9.83301 3.5 13.5 10.5s6.5 14.833 8.5 23.5c2.66699 10 4.33398 21.667 5.00098 35h43
c2 -9.33301 3 -19.666 3 -30.999c0 -9.33301 -1 -20.666 -3 -33.999s-6.33301 -27.666 -13 -42.999c-5.33301 -16 -11.833 -29.333 -19.5 -40s-16 -19.334 -25 -26.001s-18.167 -11.667 -27.5 -15s-18.333 -6 -27 -8c-9.33301 -1.33301 -21.166 1 -35.499 7
s-28.5 13 -42.5 21c-16.667 9.33301 -34 20 -52 32l-41 -27l-31.5 -21c-10.333 -6.66699 -17.5 -10.667 -21.5 -12c-3.33301 -1.33301 -11 -3.66602 -23 -6.99902s-26.667 -4.83301 -44 -4.5s-36.666 4.33301 -57.999 12s-42.666 21.834 -63.999 42.501
c-22 21.333 -37.667 44.5 -47 69.5s-15.666 48.167 -18.999 69.5c-3.33301 25.333 -3.33301 50.333 0 75c1.33301 28.667 6 56.334 14 83.001c7.33301 22.667 18.5 46 33.5 70s36.5 43.667 64.5 59s55.833 22.166 83.5 20.499s52.5 -6.16699 74.5 -13.5
c26 -8.66699 51 -21.334 75 -38.001zM271.996 381.998c-19.333 0 -35.666 -10.667 -48.999 -32s-20 -53 -20 -95c0 -43.333 6.66699 -76.666 20 -99.999s29.666 -35 48.999 -35s36.333 11.667 51 35s22 56.666 22 99.999c0 42 -7.33301 73.667 -22 95s-31.667 32 -51 32z
" />
    <glyph glyph-name="b" unicode="b" horiz-adv-x="602" 
d="M590 261c0.666992 -4 1.00098 -16.167 1.00098 -36.5s-2.33301 -43.5 -7 -69.5s-13 -52.167 -25 -78.5s-29.5 -48 -52.5 -65s-52.667 -26.833 -89 -29.5s-81.5 7.33301 -135.5 30l-31 -12h-242v84c13.333 -2 25.333 -1.66699 36 1
c9.33301 2.66699 17.666 7.66699 24.999 15s10.333 19 9 35v38.5c0 17.667 0.166992 38.334 0.5 62.001s0.666016 49.334 0.999023 77.001s0.5 55.5 0.5 83.5c0.666992 65.333 1.33398 136.666 2.00098 213.999l168 63v-261c3.33301 2 12 7.5 26 16.5
s30.833 17.167 50.5 24.5s41.334 12.5 65.001 15.5s47.167 -0.5 70.5 -10.5c29.333 -10 52.166 -24.833 68.499 -44.5s28.5 -39.834 36.5 -60.501s13.333 -39.667 16 -57s4.66699 -29 6 -35zM339.001 88c8.66699 0 17.334 3.83301 26.001 11.5s16.167 18.334 22.5 32.001
s11.5 29.334 15.5 47.001s6 36.5 6 56.5s-2 39 -6 57s-9.16699 33.833 -15.5 47.5s-13.833 24.334 -22.5 32.001s-17.334 11.5 -26.001 11.5c-10.667 0 -20.5 -3.83301 -29.5 -11.5s-16.833 -18.334 -23.5 -32.001s-11.834 -29.5 -15.501 -47.5s-5.5 -37 -5.5 -57
s1.83301 -38.833 5.5 -56.5s8.83398 -33.334 15.501 -47.001s14.5 -24.334 23.5 -32.001s18.833 -11.5 29.5 -11.5z" />
    <glyph glyph-name="c" unicode="c" horiz-adv-x="501" 
d="M486 160l-0.00292969 -110.999c-27.333 -14 -54.333 -26.333 -81 -37c-23.333 -9.33301 -48.666 -17.166 -75.999 -23.499s-52.666 -7.83301 -75.999 -4.5c-26 4 -46.5 8.33301 -61.5 13s-27.833 10 -38.5 16s-20.167 12.833 -28.5 20.5l-30.5 27.5
c-12 12 -23.833 26.333 -35.5 43s-20.834 36 -27.501 58s-9.66699 46.667 -9 74s7.33398 57.666 20.001 90.999c12.667 32 28.5 58.5 47.5 79.5s39 37.5 60 49.5s42.5 20.5 64.5 25.5s42.5 7.66699 61.5 8s35.667 -0.833984 50 -3.50098s24.833 -5.33398 31.5 -8.00098
c16.667 -6.66699 32.667 -16.334 48 -29.001c13.333 -11.333 26.166 -26.666 38.499 -45.999s21.833 -44.666 28.5 -75.999c3.33301 -21.333 2 -39.5 -4 -54.5s-14.833 -27 -26.5 -36s-24.834 -14.833 -39.501 -17.5s-28.5 -2.5 -41.5 0.5s-24.333 9 -34 18
s-15.167 20.5 -16.5 34.5c-2.66699 26.667 -1.16699 47.667 4.5 63s11.667 26.833 18 34.5s11.333 12.834 15 15.501s2.16699 5 -4.5 7c-20.667 8 -39.667 7.83301 -57 -0.5s-31.666 -21 -42.999 -38s-19.166 -37 -23.499 -60s-4.33301 -45.5 0 -67.5
s13.833 -41.833 28.5 -59.5s35.334 -29.834 62.001 -36.501c16.667 -3.33301 34.5 -4.5 53.5 -3.5s36.833 3.33301 53.5 7s31.167 8 43.5 13s20.833 9.5 25.5 13.5z" />
    <glyph glyph-name="d" unicode="d" horiz-adv-x="625" 
d="M17 263c1.33301 6 3.33301 17.667 6 35s8 36.333 16 57s20.167 40.834 36.5 60.501s39.166 34.5 68.499 44.5c23.333 10 46.833 13.5 70.5 10.5s45.334 -8.16699 65.001 -15.5s36.5 -15.5 50.5 -24.5s22.667 -14.5 26 -16.5v261l168 -63
c0.666992 -77.333 1.33398 -148.666 2.00098 -213.999c0 -28 0.166992 -55.833 0.5 -83.5s0.666016 -53.334 0.999023 -77.001s0.5 -44.334 0.5 -62.001v-38.5c-1.33301 -16 1.5 -27.667 8.5 -35s15.167 -12.333 24.5 -15c10.667 -2.66699 23 -3 37 -1v-84h-242l-31 12
c-54 -22.667 -99.167 -32.667 -135.5 -30s-66 12.5 -89 29.5s-40.5 38.667 -52.5 65s-20.333 52.5 -25 78.5s-7 49 -7 69s0.333008 32.333 1 37zM268 90c10.667 0 20.5 3.83301 29.5 11.5s16.833 18.334 23.5 32.001s11.834 29.334 15.501 47.001s5.5 36.5 5.5 56.5
s-1.83301 39 -5.5 57s-8.83398 33.833 -15.501 47.5s-14.5 24.334 -23.5 32.001s-18.833 11.5 -29.5 11.5c-9.33301 0 -18.166 -3.83301 -26.499 -11.5s-15.666 -18.334 -21.999 -32.001s-11.5 -29.5 -15.5 -47.5s-6 -37 -6 -57s2 -38.833 6 -56.5
s9.16699 -33.334 15.5 -47.001s13.666 -24.334 21.999 -32.001s17.166 -11.5 26.499 -11.5z" />
    <glyph glyph-name="e" unicode="e" horiz-adv-x="528" 
d="M381 169l135.999 7.99902c-3.33301 -35.333 -15 -67 -35 -95c-8.66699 -12 -19.5 -23.833 -32.5 -35.5s-28.667 -22.167 -47 -31.5s-40 -17.166 -65 -23.499s-53.5 -9.83301 -85.5 -10.5c-44 4 -83.667 15.333 -119 34c-15.333 8 -30.166 17.833 -44.499 29.5
s-27.333 25.834 -39 42.501s-21.167 36 -28.5 58s-11.333 47.333 -12 76c-2 84.667 18.833 150.5 62.5 197.5s104.834 71.833 183.501 74.5c48.667 1.33301 89.167 -4.16699 121.5 -16.5s58.5 -28.5 78.5 -48.5s34.833 -41.833 44.5 -65.5s16.167 -45.834 19.5 -66.501
s4.83301 -37.834 4.5 -51.501s-0.833008 -20.5 -1.5 -20.5l-344 -12c3.33301 -20 8.66602 -38 15.999 -54c6.66699 -13.333 15.834 -25.666 27.501 -36.999s27.5 -17.333 47.5 -18c20 -1.33301 36.833 0.166992 50.5 4.5s24.667 10 33 17s14.666 14.667 18.999 23
s7.5 15.5 9.5 21.5zM279.999 398.999c-20.667 -2 -36.332 -8.33203 -46.999 -18.999s-18.667 -22 -24 -34c-6 -14 -9.33301 -29.667 -10 -47l162 6c-2.66699 17.333 -7.66699 32.666 -15 45.999c-6 11.333 -14.333 22 -25 32s-24.334 15.333 -41.001 16z" />
    <glyph glyph-name="f" unicode="f" horiz-adv-x="464" 
d="M282 2l-231.004 -0.00292969v59c13.333 -1.33301 25.333 -0.666016 36 2.00098c9.33301 2 17.5 5.33301 24.5 10s10.167 12.667 9.5 24v36.5v61c0 23 0.166992 47 0.5 72s0.5 48.167 0.5 69.5l-106 1v101h105c0.666992 31.333 3.66699 61 9 89
c4.66699 24 11.834 48 21.501 72s23.834 42.667 42.501 56c18.667 14 37.834 23.333 57.501 28s37.834 7.33398 54.501 8.00098c19.333 0 38.333 -2 57 -6c28.667 -9.33301 50.667 -21 66 -35s26.666 -27.667 33.999 -41c8 -16 12.667 -32.667 14 -50
c0 -21.333 -7.66699 -39.166 -23 -53.499s-32.666 -21.5 -51.999 -21.5c-22 0 -40.333 7.16699 -55 21.5s-22 32.166 -22 53.499c0 10.667 1.5 19.334 4.5 26.001s8.5 13.667 16.5 21c-18.667 -2.66699 -34 -10 -46 -22c-10.667 -10.667 -18.667 -27.5 -24 -50.5
s-3.33301 -54.833 6 -95.5h159v-136h-159v-300z" />
    <glyph glyph-name="g" unicode="g" horiz-adv-x="580" 
d="M552 333l-93.999 0.00390625c0.666992 -22 0.333984 -41.667 -0.999023 -59s-5 -33 -11 -47s-14.667 -27 -26 -39s-26 -23.333 -44 -34c-21.333 -12.667 -42.333 -19.667 -63 -21s-39.334 -1.66602 -56.001 -0.999023s-30.834 0.166992 -42.501 -1.5
s-19.167 -9.5 -22.5 -23.5c-2.66699 -5.33301 0.666016 -9 9.99902 -11s20 -2.66699 32 -2c14 0 30 1.33301 48 4c61.333 3.33301 110.333 0.166016 147 -9.50098s64 -23 82 -40s28.833 -36.333 32.5 -58s3.16699 -42.334 -1.5 -62.001s-11.667 -37.334 -21 -53.001
s-17.666 -25.834 -24.999 -30.501c-10.667 -7.33301 -27.334 -16.333 -50.001 -27s-50 -19.667 -82 -27s-67.667 -11.333 -107 -12s-81 5.66602 -125 18.999c-22 6.66699 -39.667 14.5 -53 23.5s-23.333 18.167 -30 27.5s-10.667 19 -12 29s-1 19.667 1 29
c4.66699 22 17.334 44.333 38.001 67c-24.667 25.333 -38.667 49.833 -42 73.5s-2.33301 44.167 3 61.5c6.66699 20.667 18.334 40 35.001 58c-21.333 35.333 -35.333 67.166 -42 95.499s-8.33398 53.333 -5.00098 75s10 40.334 20 56.001s21.167 28.667 33.5 39
s24.333 18.333 36 24s20.5 9.16699 26.5 10.5c4.66699 0.666992 14.167 1 28.5 1h52h66.5h73c57.333 -0.666992 121 -1 191 -1v-134zM286.001 -55.9961c-18 0 -35.001 -1.00098 -51.001 -3.00098s-29.667 -4.66699 -41 -8s-20.333 -7 -27 -11s-10 -8 -10 -12
c0 -11.333 12.333 -20.666 37 -27.999s55.334 -11 92.001 -11c18 0 35.167 1 51.5 3s30.5 4.66699 42.5 8s21.5 7.5 28.5 12.5s10.5 10.167 10.5 15.5c0 4 -3.5 8 -10.5 12s-16.5 7.66699 -28.5 11s-26.167 6 -42.5 8s-33.5 3 -51.5 3zM239 424.003
c-7.33301 0 -14.499 -3.33301 -21.499 -10s-13 -15.667 -18 -27s-9 -24.833 -12 -40.5s-4.5 -32.5 -4.5 -50.5c0 -17.333 1.5 -33.833 4.5 -49.5s7 -29.334 12 -41.001s11 -21 18 -28s14.167 -10.5 21.5 -10.5s14.166 3.5 20.499 10.5s11.666 16.333 15.999 28
s7.83301 25.334 10.5 41.001s4 32.167 4 49.5c0 36 -4.66699 66.333 -14 91s-21.666 37 -36.999 37z" />
    <glyph glyph-name="h" unicode="h" horiz-adv-x="583" 
d="M252 -1l-235.001 -0.00195312v85c14 -2 26.333 -1.66699 37 1c9.33301 2.66699 17.666 7.5 24.999 14.5s10.333 18.5 9 34.5v38.5c0 17.667 0.166992 38.334 0.5 62.001s0.666016 49.334 0.999023 77.001s0.5 55.5 0.5 83.5c0.666992 64.667 1.33398 135.667 2.00098 213
l158 63v-258c17.333 14 36.333 25.667 57 35c17.333 8 37.833 14.167 61.5 18.5s48.834 3.5 75.501 -2.5c14.667 -4 28.334 -9.66699 41.001 -17c10.667 -6.66699 21.167 -16 31.5 -28s17.166 -28 20.499 -48c2.66699 -20 4.5 -39.833 5.5 -59.5s1.33301 -42.834 1 -69.501
s-0.833008 -59.167 -1.5 -97.5s-1 -85.833 -1 -142.5l-165 -2v272c-3.33301 28 -10.333 50.333 -21 67c-4.66699 6.66699 -10.167 12.5 -16.5 17.5s-13.666 8 -21.999 9s-18 -0.666992 -29 -5s-23.5 -12.166 -37.5 -23.499z" />
    <glyph glyph-name="i" unicode="i" horiz-adv-x="265" 
d="M231 -1l-216.002 2v79c12 -0.666992 23 0.333008 33 3c8.66699 2.66699 16.334 7 23.001 13s10.334 15.667 11.001 29l1 342h148v-468zM243.998 585c0 -22.667 -8.00098 -42.666 -24.001 -59.999s-36.667 -26 -62 -26c-11.333 0 -22.166 2.33301 -32.499 7
s-19.5 11 -27.5 19s-14.333 17.167 -19 27.5s-7 21.166 -7 32.499c0 25.333 8.66699 46 26 62s37.333 24 60 24c25.333 0 46 -8 62 -24s24 -36.667 24 -62z" />
    <glyph glyph-name="j" unicode="j" horiz-adv-x="384" 
d="M362 580c0 -25.333 -9 -46.166 -27 -62.499s-39.667 -24.5 -65 -24.5c-22.667 0 -42.834 8.16699 -60.501 24.5s-26.5 37.166 -26.5 62.499s8.83301 46.166 26.5 62.499s37.834 24.5 60.501 24.5c25.333 0 47 -8.16699 65 -24.5s27 -37.166 27 -62.499zM357 -9
c-0.666992 -31.333 -4.99707 -58.335 -12.9971 -81.002s-18 -41.667 -30 -57s-25 -27.833 -39 -37.5s-27.167 -17 -39.5 -22s-23.333 -8.33301 -33 -10s-16.167 -2.5 -19.5 -2.5s-11.333 0.166992 -24 0.5s-27 2.33301 -43 6s-32.167 9.83398 -48.5 18.501
s-29.5 21.667 -39.5 39c-10 16 -14.833 30.5 -14.5 43.5s3 24.333 8 34s11.167 17.667 18.5 24s12.666 10.5 15.999 12.5s10.333 3.66699 21 5s21.167 0 31.5 -4s19 -11.667 26 -23s8.16699 -28.333 3.5 -51c-1.33301 -14 -0.333008 -23.833 3 -29.5
s7.16602 -8.33398 11.499 -8.00098s8.66602 3 12.999 8s7.16602 11.5 8.49902 19.5c2.66699 9.33301 5.66699 21.833 9 37.5s5 33.834 5 54.501v31c0 16.667 -0.166992 37.167 -0.5 61.5s-0.666016 51.333 -0.999023 81s-0.5 59.834 -0.5 90.501
c-0.666992 71.333 -1 151.333 -1 240c44 1.33301 77.5 2 100.5 2h50.5h21v-483z" />
    <glyph glyph-name="k" unicode="k" horiz-adv-x="589" 
d="M238 -2l-221.999 0.00292969v84c13.333 -0.666992 25 0.333008 35 3c8.66699 2.66699 16.5 7.5 23.5 14.5s9.83301 17.833 8.5 32.5v38.5c0 17.667 0.166992 38.5 0.5 62.5s0.666016 49.833 0.999023 77.5s0.5 55.5 0.5 83.5c0.666992 65.333 1.33398 137 2.00098 215
l151 63v-386c10 -0.666992 20 -0.333984 30 0.999023c8.66699 1.33301 17.334 3 26.001 5s16.334 5.66699 23.001 11c10.667 10.667 14 21.834 10 33.501s-18.333 17.5 -43 17.5l4 58l225 5c6 -36 7.33301 -68.667 4 -98c-1.33301 -12.667 -3.83301 -25 -7.5 -37
s-8.83398 -23 -15.501 -33s-15.334 -18.333 -26.001 -25s-23.334 -10.667 -38.001 -12l151 -209l-201 -5l-101 121c-8 5.33301 -15 8.66602 -21 9.99902c-5.33301 1.33301 -10 0.666016 -14 -2.00098s-6 -9.33398 -6 -20.001v-109z" />
    <glyph glyph-name="l" unicode="l" horiz-adv-x="275" 
d="M248 -2h-232.999v83c12.667 -1.33301 24 -0.666016 34 2.00098c8.66699 2.66699 16.667 7.5 24 14.5s11.666 18.167 12.999 33.5c0.666992 6.66699 1.16699 18.667 1.5 36s0.5 37.5 0.5 60.5s0.166992 48.167 0.5 75.5s0.5 54.666 0.5 81.999
c0 64.667 0.333008 135.667 1 213l158 75v-675z" />
    <glyph glyph-name="m" unicode="m" horiz-adv-x="874" 
d="M862 -2l-165 -0.000976562v285c0 20.667 -7.16699 37.167 -21.5 49.5s-30.166 18.833 -47.499 19.5s-33.333 -4.83301 -48 -16.5s-22.334 -30.5 -23.001 -56.5v-24v-257h-6h-206v89c11.333 -3.33301 21 -3.66602 29 -0.999023c7.33301 2 13.666 6.5 18.999 13.5
s7.33301 19.167 6 36.5c0 19.333 -0.833008 40.5 -2.5 63.5s-2.5 49.5 -2.5 79.5c0 13.333 -3.5 25.166 -10.5 35.499s-15.667 18.833 -26 25.5s-21.5 10.834 -33.5 12.501s-23.333 0.166992 -34 -4.5s-19.667 -13 -27 -25s-11.333 -28 -12 -48
c-0.666992 -8 -1.16699 -18.167 -1.5 -30.5s-0.666016 -25.666 -0.999023 -39.999l-1 -45c-0.333008 -15.667 -0.5 -30.834 -0.5 -45.501c-0.666992 -35.333 -0.666992 -72.333 0 -111v4v-9h-236v89c13.333 -1.33301 25.333 -0.666016 36 2.00098
c9.33301 2.66699 17.833 7.66699 25.5 15s11.5 19.666 11.5 36.999c0 11.333 0.166992 23.666 0.5 36.999s0.666016 30.5 0.999023 51.5s0.833008 47.333 1.5 79s1.33398 72.167 2.00098 121.5l158 47v-43h4c25.333 15.333 51.333 26.666 78 33.999
c23.333 6.66699 49.333 9.83398 78 9.50098s58 -9.16602 88 -26.499c8 -2 15.167 -5.66699 21.5 -11s11.5 -10 15.5 -14c14.667 10.667 32 20.334 52 29.001s41.833 15 65.5 19s48.667 5.16699 75 3.5s52.833 -7.5 79.5 -17.5c15.333 -8.66699 27 -18.834 35 -30.501
s13.667 -23.167 17 -34.5c4 -12.667 6 -26 6 -40v-357z" />
    <glyph glyph-name="n" unicode="n" horiz-adv-x="560" 
d="M552 -2l-160.998 0.00195312v283c0 22.667 -7.33301 41.167 -22 55.5s-30.834 22.5 -48.501 24.5s-34.167 -3.5 -49.5 -16.5s-23.666 -35.833 -24.999 -68.5v-274h-4v-4h-231v87c12.667 -0.666992 24.334 0.666016 35.001 3.99902
c9.33301 3.33301 17.666 8.66602 24.999 15.999s11 19.333 11 36v38c0 13.333 0.166992 30.833 0.5 52.5s0.666016 48.667 0.999023 81s0.833008 73.5 1.5 123.5l161 48v-44v4c25.333 14.667 51.666 25.667 78.999 33c23.333 6 49.833 9 79.5 9s59.5 -8.33301 89.5 -25
c16.667 -8.66699 28.834 -19 36.501 -31s13.167 -23.667 16.5 -35c3.33301 -13.333 4.66602 -27 3.99902 -41z" />
    <glyph glyph-name="o" unicode="o" horiz-adv-x="584" 
d="M570 233c0 -34.667 -7.16699 -67.334 -21.5 -98.001s-34 -57.5 -59 -80.5s-54.167 -41.167 -87.5 -54.5s-69 -20 -107 -20c-38.667 0 -75 6.66699 -109 20s-63.5 31.5 -88.5 54.5s-44.833 49.833 -59.5 80.5s-22 63.334 -22 98.001c0 35.333 7.33301 68.666 22 99.999
s34.5 58.666 59.5 81.999s54.5 41.666 88.5 54.999s70.333 20 109 20c38 0 73.667 -6.66699 107 -20s62.5 -31.666 87.5 -54.999s44.667 -50.666 59 -81.999s21.5 -64.666 21.5 -99.999zM291 388c-11.333 0 -22 -4 -32 -12s-18.833 -18.667 -26.5 -32
s-13.834 -29.333 -18.501 -48s-7 -38.334 -7 -59.001c0 -21.333 2.33301 -41.166 7 -59.499s10.834 -34.166 18.501 -47.499s16.5 -24 26.5 -32s20.667 -12 32 -12c12 0 23.5 4 34.5 12s20.5 18.667 28.5 32s14.333 29.166 19 47.499s7 38.166 7 59.499
c0 20.667 -2.33301 40.334 -7 59.001s-11 34.667 -19 48s-17.5 24 -28.5 32s-22.5 12 -34.5 12z" />
    <glyph glyph-name="p" unicode="p" horiz-adv-x="593" 
d="M456 464c14.667 -5.33301 27.4971 -13.333 38.4971 -24s20.167 -23 27.5 -37s13.333 -28.833 18 -44.5s8.33398 -31.167 11.001 -46.5c6 -36.667 8 -76.334 6 -119.001c-1.33301 -5.33301 -3 -17 -5 -35s-7 -38 -15 -60s-20 -43.5 -36 -64.5s-38.333 -36.833 -67 -47.5
c-23.333 -10 -47.166 -13 -71.499 -9s-46.166 10.667 -65.499 20c-22.667 10.667 -45 24.667 -67 42v376c8 10 18.333 20.167 31 30.5s28.334 18.833 47.001 25.5s40.167 9.83398 64.5 9.50098s52.166 -5.83301 83.499 -16.5zM385.997 229c0 21.333 -2 41.333 -6 60
s-9.33301 35 -16 49s-14.334 25.167 -23.001 33.5s-17.334 12.5 -26.001 12.5c-10 0 -19.333 -4.16699 -28 -12.5s-16.167 -19.5 -22.5 -33.5s-11.333 -30.333 -15 -49s-5.5 -38.667 -5.5 -60s1.83301 -41.333 5.5 -60s8.66699 -35 15 -49s13.833 -25.167 22.5 -33.5
s18 -12.5 28 -12.5c8.66699 0 17.334 4.16699 26.001 12.5s16.334 19.5 23.001 33.5s12 30.333 16 49s6 38.667 6 60zM229.997 -218l-230 0.000976562v88c13.333 -1.33301 25 -0.666016 35 2.00098c8.66699 2.66699 16.5 7.66699 23.5 15s9.83301 19.666 8.5 36.999v40
c0 18.667 0.166992 40.5 0.5 65.5s0.666016 52.167 0.999023 81.5s0.5 58.666 0.5 87.999c0.666992 68.667 1.33398 143.667 2.00098 225l159 67v-709z" />
    <glyph glyph-name="q" unicode="q" horiz-adv-x="506" 
d="M300 438l34.9971 -24.0049v-382c-21.333 -16 -43.333 -29.333 -66 -40c-19.333 -9.33301 -41.166 -16 -65.499 -20s-48.166 -1 -71.499 9c-27.333 10.667 -48.5 26.334 -63.5 47.001s-26.167 41.834 -33.5 63.501s-12.166 41.334 -14.499 59.001s-3.83301 28.5 -4.5 32.5
c-3.33301 40.667 -2 79 4 115c2.66699 14.667 6.16699 29.667 10.5 45s10.333 29.833 18 43.5s16.834 25.834 27.501 36.501s23.667 18.667 39 24c30 10.667 56.667 16.334 80 17.001s42.666 -1 57.999 -5c18 -4.66699 33.667 -11.667 47 -21zM252.997 57.9951
c10 0 19.167 4 27.5 12s15.5 18.833 21.5 32.5s10.833 29.667 14.5 48s5.5 37.833 5.5 58.5s-1.83301 40.167 -5.5 58.5s-8.5 34.333 -14.5 48s-13.167 24.5 -21.5 32.5s-17.5 12 -27.5 12s-19.167 -4 -27.5 -12s-15.5 -18.833 -21.5 -32.5s-10.833 -29.667 -14.5 -48
s-5.5 -37.833 -5.5 -58.5s1.83301 -40.167 5.5 -58.5s8.5 -34.333 14.5 -48s13.167 -24.5 21.5 -32.5s17.5 -12 27.5 -12zM485.997 -218.005l-223.999 -0.00195312v86c12.667 -1.33301 24 -0.666016 34 2.00098c8.66699 2.66699 16.667 7.5 24 14.5s11 18.833 11 35.5
c-0.666992 8 -1.16699 21.667 -1.5 41s-0.5 42 -0.5 68s0.166992 54.333 0.5 85s0.833008 61.334 1.5 92.001c1.33301 72 2.66602 151 3.99902 237l153 32z" />
    <glyph glyph-name="r" unicode="r" horiz-adv-x="462" 
d="M246 372l-0.00390625 -370.997l-242 1v62c12 -1.33301 23.333 -1 34 1c8.66699 1.33301 16.834 4.66602 24.501 9.99902s12.167 13.666 13.5 24.999c0.666992 6 1.33398 15.5 2.00098 28.5s1.16699 28 1.5 45s0.333008 35.333 0 55s-0.5 39.5 -0.5 59.5
c-0.666992 46.667 -1.66699 97.667 -3 153l170 51v-34c8 5.33301 17 9.5 27 12.5s19.333 5.5 28 7.5c10 2.66699 20 4.33398 30 5.00098c31.333 0 55.5 -6.33301 72.5 -19s29.167 -26.334 36.5 -41.001c8.66699 -17.333 13.334 -37.333 14.001 -60
c0 -20 -8.16699 -36.833 -24.5 -50.5s-35.5 -20.5 -57.5 -20.5c-22.667 0 -41.667 6.83301 -57 20.5s-23 30.5 -23 50.5c0 9.33301 1.83301 18.166 5.5 26.499s7.16699 15.833 10.5 22.5c4 4.66699 6.83301 7 8.5 7s2.83398 -1 3.50098 -3
c0.666992 -2.66699 0.666992 -6 0 -10c-11.333 4.66699 -21.5 5.5 -30.5 2.5s-16.833 -7.16699 -23.5 -12.5c-7.33301 -6.66699 -14.333 -14.667 -21 -24h1z" />
    <glyph glyph-name="s" unicode="s" horiz-adv-x="453" 
d="M10 57l-0.00488281 120h75c11.333 -28 25.333 -49.333 42 -64s40.334 -22 71.001 -22c46 0 69 12.667 69 38c0 10.667 -5.66699 18.667 -17 24s-28.666 10.666 -51.999 15.999c-35.333 8.66699 -66.666 17.5 -93.999 26.5s-49.666 21.5 -66.999 37.5
c-10.667 10 -18.5 21 -23.5 33s-7.5 27.667 -7.5 47c0 18.667 4.66699 37.5 14 56.5s22.833 35.833 40.5 50.5s38.834 26.667 63.501 36s52 14 82 14c27.333 0 54.666 -1.33301 81.999 -4s52.166 -8.83398 74.499 -18.501s41.5 -23.834 57.5 -42.501s26.333 -43.667 31 -75
h-102c-7.33301 14.667 -19.166 26.834 -35.499 36.501s-39.5 14.5 -69.5 14.5c-17.333 0 -31.166 -3.66699 -41.499 -11s-15.5 -16.666 -15.5 -27.999c0 -8 3.16699 -14.667 9.5 -20s16 -10.166 29 -14.499s29 -8.66602 48 -12.999s41.167 -9.83301 66.5 -16.5
c42 -10.667 71 -26.334 87 -47.001s24 -46 24 -76c0 -19.333 -4.33301 -39 -13 -59s-21.5 -38.333 -38.5 -55s-38.167 -30.334 -63.5 -41.001s-54.666 -16 -87.999 -16c-28 -1.33301 -56.167 1.83398 -84.5 9.50098s-53.833 16.167 -76.5 25.5
c-26.667 11.333 -52.334 24 -77.001 38z" />
    <glyph glyph-name="t" unicode="t" horiz-adv-x="501" 
d="M370 274l101.999 0.999023c0 -8 0.166992 -19.167 0.5 -33.5s0.5 -29.833 0.5 -46.5s-0.166992 -33.167 -0.5 -49.5s-0.5 -30.5 -0.5 -42.5c-0.666992 -9.33301 -2 -18.833 -4 -28.5s-7.33301 -19.167 -16 -28.5c-17.333 -18.667 -39.666 -33.5 -66.999 -44.5
s-57 -16.5 -89 -16.5c-33.333 0 -61.666 5.83301 -84.999 17.5s-42 25.167 -56 40.5c-4.66699 5.33301 -8 11.333 -10 18s-3.66699 13 -5 19c-1.33301 7.33301 -2 14.666 -2 21.999l-3 195l-119 1v136h112v173l167 70l1 -243l177 1v-93h-178
c0 -23.333 -0.166992 -48.333 -0.5 -75s0.166992 -50.667 1.5 -72c0.666992 -11.333 2.33398 -21.666 5.00098 -30.999c2 -8 5.16699 -15.667 9.5 -23s10.166 -11.666 17.499 -12.999c7.33301 0 14.333 1.66699 21 5c5.33301 3.33301 10.166 8.5 14.499 15.5
s6.5 17.5 6.5 31.5v95v-1z" />
    <glyph glyph-name="u" unicode="u" horiz-adv-x="589" 
d="M492 144c0 -16.667 3.66602 -28.833 10.999 -36.5s15.666 -12.834 24.999 -15.501c10.667 -2.66699 22.667 -3.33398 36 -2.00098v-88h-234v30l-4 -8c-26 -15.333 -52.667 -26.666 -80 -33.999c-23.333 -6.66699 -49.666 -9.83398 -78.999 -9.50098s-59 8.83301 -89 25.5
c-15.333 8.66699 -27 19 -35 31s-13.667 23.667 -17 35c-4 12.667 -6 26 -6 40l-4 354h164c-0.666992 -34 -0.666992 -67.333 0 -100c0 -28 0.333008 -58 1 -90s1.66699 -60.667 3 -86c0 -24 7.33301 -42.167 22 -54.5s31 -18.666 49 -18.999s34.333 5.5 49 17.5
s22 30.667 22 56c0.666992 8 1.33398 18 2.00098 30s1.16699 25.333 1.5 40s0.333008 29.834 0 45.501s-0.5 31.167 -0.5 46.5c-0.666992 36 -1.66699 74 -3 114l4 -4v4h154h4c0.666992 -54.667 1.33398 -104.667 2.00098 -150c0 -19.333 0.166992 -38.5 0.5 -57.5
s0.666016 -36.333 0.999023 -52s0.5 -29 0.5 -40v-22.5z" />
    <glyph glyph-name="v" unicode="v" horiz-adv-x="631" 
d="M205 473l117 -301.001l39 105l14.5 39.5l13 35l9 25.5c2.33301 6.66699 3.5 10.667 3.5 12c0 2 -0.5 4.66699 -1.5 8s-3.16699 6.5 -6.5 9.5s-8.33301 5.33301 -15 7s-15.667 1.83398 -27 0.500977v59h276l-213 -473h-184l-218 473h193z" />
    <glyph glyph-name="w" unicode="w" horiz-adv-x="787" 
d="M158 471l100 -247.002l59 164c0.666992 5.33301 -0.333008 10 -3 14c-2 3.33301 -5.33301 6.33301 -10 9s-11.667 3.33398 -21 2.00098v58h184l101 -251l59 168c1.33301 5.33301 1 10 -1 14c-1.33301 3.33301 -4.5 6.33301 -9.5 9s-12.833 3.33398 -23.5 2.00098v58h189
l-83 -222l-93 -251h-113l-105 251v4l-92 -251h-113l-186 470z" />
    <glyph glyph-name="x" unicode="x" horiz-adv-x="614" 
d="M18 -1v75.002c11.333 -0.666992 21.666 0.166016 30.999 2.49902s17.5 5.16602 24.5 8.49902s12.5 6.5 16.5 9.5s6.33301 4.83301 7 5.5l107 150l-195 223h193l130 -155l22 26c6.66699 7.33301 14 15.833 22 25.5l23 28.5c8 10.667 11.333 18 10 22
s-4.66602 6.66699 -9.99902 8c-6 1.33301 -14.333 1 -25 -1v46h230l-168 -230l168 -244h-188l-105 148l-121 -148h-172z" />
    <glyph glyph-name="y" unicode="y" horiz-adv-x="589" 
d="M216 65l-202.995 408.002h172l140 -263l59 173c3.33301 8.66699 3.66602 16.667 0.999023 24c-2 6 -6.83301 11.333 -14.5 16s-21.167 6.33398 -40.5 5.00098v45h244l-76 -202.5l-51.5 -136.5l-32.5 -85.5l-19 -50l-11 -29l-9 -22.5
c-8.66699 -17.333 -18.5 -35.333 -29.5 -54s-23.667 -35.834 -38 -51.501s-30.166 -28.834 -47.499 -39.501s-36.166 -16.834 -56.499 -18.501s-42.333 2.33301 -66 12s-48.834 27.167 -75.501 52.5c-16 22.667 -26 45 -30 67c-2 9.33301 -2.66699 18.833 -2 28.5
s3.16699 19.167 7.5 28.5s11.166 18.166 20.499 26.499s21.666 15.5 36.999 21.5c13.333 4.66699 27.5 2.83398 42.5 -5.49902s27.167 -20 36.5 -35s13.833 -32 13.5 -51s-8.83301 -36.833 -25.5 -53.5c10 -5.33301 19.333 -7.33301 28 -6
c7.33301 1.33301 15.166 5.5 23.499 12.5s15.5 20.167 21.5 39.5c5.33301 17.333 8.16602 33.333 8.49902 48s-0.5 27 -2.5 37c-2.66699 12 -6.33398 22.667 -11.001 32z" />
    <glyph glyph-name="z" unicode="z" horiz-adv-x="475" 
d="M463 181l-0.998047 -180.999h-444v85l250 269h-250v116h438v-94l-238 -273h91h12c4 0 8.16699 1 12.5 3s8.16602 5.66699 11.499 11s6.16602 13.166 8.49902 23.499s3.5 23.5 3.5 39.5z" />
    <glyph glyph-name="braceleft" unicode="{" horiz-adv-x="426" 
d="M413 610c-24 0 -41 -0.831055 -51 -2.49805s-16.333 -5.83398 -19 -12.501s-3 -16.5 -1 -29.5s3 -30.833 3 -53.5v-534c0 -23.333 -1 -41.166 -3 -53.499s-1.66699 -21.333 1 -27s9 -9 19 -10s27 -1.83301 51 -2.5v-66h-7c-45.333 0 -83 2.83301 -113 8.5s-54 15 -72 28
s-30.833 30.167 -38.5 51.5s-11.5 48 -11.5 80v90c0 26 -2.16699 46.833 -6.5 62.5s-12.166 28.167 -23.499 37.5s-26.833 16.166 -46.5 20.499s-45.167 7.83301 -76.5 10.5v74c31.333 2.66699 56.833 6.16699 76.5 10.5s35.167 11.166 46.5 20.499
s19.166 21.833 23.499 37.5s6.5 36.5 6.5 62.5v90c0 32 3.83301 58.667 11.5 80s20.5 38.5 38.5 51.5s42 22.333 72 28s67.667 8.5 113 8.5h7v-61z" />
    <glyph glyph-name="bar" unicode="|" horiz-adv-x="253" 
d="M234 758v-994h-199v994h199z" />
    <glyph glyph-name="braceright" unicode="}" horiz-adv-x="433" 
d="M21 671l7 -0.00195312c45.333 0 83 -2.83301 113 -8.5s54 -15 72 -28s30.833 -30.167 38.5 -51.5s11.5 -48 11.5 -80v-90c0 -26 2.16699 -46.833 6.5 -62.5s12.166 -28.167 23.499 -37.5s26.833 -16.166 46.5 -20.499s45.167 -7.83301 76.5 -10.5v-74
c-31.333 -2.66699 -56.833 -6.16699 -76.5 -10.5s-35.167 -11.166 -46.5 -20.499s-19.166 -21.833 -23.499 -37.5s-6.5 -36.5 -6.5 -62.5v-90c0 -32 -3.83301 -58.667 -11.5 -80s-20.5 -38.5 -38.5 -51.5s-42 -22.333 -72 -28s-67.667 -8.5 -113 -8.5h-7v66
c24 0.666992 41 1.5 51 2.5s16.333 4.33301 19 10s3 14.667 1 27s-3 30.166 -3 53.499v534c0 22.667 1 40.5 3 53.5s1.66699 22.833 -1 29.5s-9 10.834 -19 12.501s-27 2.5 -51 2.5v61z" />
    <glyph glyph-name="exclamdown" unicode="&#xa1;" horiz-adv-x="279" 
d="M53 188h170v-437l-170 -52v489zM11 341c0 16.667 3.5 32.667 10.5 48s16.5 29 28.5 41s25.667 21.5 41 28.5s31.333 10.5 48 10.5c18.667 0 36.167 -3.5 52.5 -10.5s30.666 -16.5 42.999 -28.5s22 -25.667 29 -41s10.5 -31.333 10.5 -48
c0 -18.667 -3.5 -35.834 -10.5 -51.501s-16.667 -29.334 -29 -41.001s-26.666 -20.667 -42.999 -27s-33.833 -9.5 -52.5 -9.5c-16.667 0 -32.667 3.16699 -48 9.5s-29 15.333 -41 27s-21.5 25.334 -28.5 41.001s-10.5 32.834 -10.5 51.501z" />
    <glyph glyph-name="dieresis" unicode="&#xa8;" horiz-adv-x="500" 
d="M64 642c0 20.667 7.83398 38.832 23.501 54.499s34.167 23.5 55.5 23.5c22 0 40.5 -7.66699 55.5 -23s22.5 -33.666 22.5 -54.999c0 -23.333 -7.33301 -42.333 -22 -57s-33.334 -22 -56.001 -22c-22 0 -40.667 7.5 -56 22.5s-23 33.833 -23 56.5zM278.001 641.998
c0 20.667 7.66797 38.832 23.001 54.499s33.666 23.5 54.999 23.5c22 0 40.667 -7.66699 56 -23s23 -33.666 23 -54.999c0 -23.333 -7.5 -42.333 -22.5 -57s-33.833 -22 -56.5 -22c-22 0 -40.5 7.5 -55.5 22.5s-22.5 33.833 -22.5 56.5z" />
    <glyph glyph-name="copyright" unicode="&#xa9;" horiz-adv-x="443" 
d="M219 675c24 0 47.002 -4.66602 69.002 -13.999s41.667 -22.333 59 -39c16.667 -17.333 29.667 -37 39 -59s14 -45.333 14 -70c0 -23.333 -4.5 -46 -13.5 -68s-22.167 -41.667 -39.5 -59s-36.833 -30.5 -58.5 -39.5s-44.834 -13.5 -69.501 -13.5s-47.834 4.5 -69.501 13.5
s-41.167 22.167 -58.5 39.5c-35.333 34 -53 76.333 -53 127c0 50 17.667 92.667 53 128c16.667 17.333 36.167 30.666 58.5 39.999s45.5 14 69.5 14zM219.002 648.001c-20.667 0 -40.3311 -4.00098 -58.998 -12.001s-35 -19.333 -49 -34c-30 -30 -45 -66.333 -45 -109
c0 -20.667 3.66699 -40.167 11 -58.5s18.666 -34.833 33.999 -49.5c30 -30 66 -45 108 -45s78 15 108 45c14.667 14.667 25.834 31.334 33.501 50.001s11.5 38 11.5 58c0 20.667 -3.83301 40.667 -11.5 60s-18.834 36 -33.501 50s-31.334 25 -50.001 33s-38 12 -58 12z
M275.005 513l-0.00195312 5.00391c0 4 -1 9 -3 15c-3.33301 8.66699 -7.33301 15 -12 19s-10 6.83301 -16 8.5s-12.167 2.16699 -18.5 1.5l-18.5 -2c-5.33301 -2 -11 -5.66699 -17 -11s-11.333 -12 -16 -20s-7.66699 -17.167 -9 -27.5s0.333984 -21.5 5.00098 -33.5
c8.66699 -21.333 20.834 -33.833 36.501 -37.5s31.5 -3.83398 47.5 -0.500977c18 4 37.667 12 59 24l-1 -53c-2 -1.33301 -10.667 -4.83301 -26 -10.5s-33.5 -9.66699 -54.5 -12s-42.167 -1 -63.5 4s-39 17.5 -53 37.5c-14 19.333 -22.167 37.666 -24.5 54.999
s-1.33301 33 3 47s11 26.333 20 37s18.5 19.667 28.5 27c12 9.33301 27.5 15.166 46.5 17.499s37.833 3.16602 56.5 2.49902c22 -0.666992 44.667 -3 68 -7l-1 -87z" />
    <glyph glyph-name="ordfeminine" unicode="&#xaa;" horiz-adv-x="462" 
d="M274 668l114.003 9.99609l-3 -188c-0.666992 -12.667 -0.333984 -23.667 0.999023 -33c0.666992 -8 2 -15.333 4 -22s5.33301 -10 10 -10c4 0 7.33301 2.66699 10 8s4.66699 11.333 6 18c2 7.33301 3.33301 16 4 26h32c1.33301 -7.33301 2 -15 2 -23
c0 -7.33301 -0.666992 -16 -2 -26s-4.66602 -20.667 -9.99902 -32c-4 -12 -8.83301 -22.167 -14.5 -30.5s-11.834 -15 -18.501 -20s-13.5 -8.66699 -20.5 -11s-13.833 -4.16602 -20.5 -5.49902s-15.334 0.333984 -26.001 5.00098s-21.334 10 -32.001 16l-39 24
c-11.333 -7.33301 -21.666 -14.333 -30.999 -21l-23.5 -15c-7.66699 -4.66699 -13.167 -7.66699 -16.5 -9c-2 -1.33301 -7.5 -3.16602 -16.5 -5.49902s-20.167 -3.33301 -33.5 -3s-28 3.33301 -44 9s-32 16.167 -48 31.5c-16.667 16 -28.5 33.333 -35.5 52
s-11.5 36 -13.5 52c-2.66699 18.667 -2.66699 37.667 0 57c0 21.333 3.33301 42 10 62c5.33301 17.333 13.666 35 24.999 53s27.666 32.667 48.999 44s42.333 16.333 63 15s39.334 -4.66602 56.001 -9.99902c19.333 -6.66699 38 -16 56 -28zM200.003 619.996
c-14.667 0 -27 -8 -37 -24s-15 -39.667 -15 -71c0 -32.667 5 -57.667 15 -75s22.333 -26 37 -26s27.5 8.66699 38.5 26s16.5 42.333 16.5 75c0 31.333 -5.5 55 -16.5 71s-23.833 24 -38.5 24z" />
    <glyph glyph-name="registered" unicode="&#xae;" horiz-adv-x="442" 
d="M215 695c27.333 0 53.332 -5.33594 77.999 -16.0029s46.334 -25.667 65.001 -45c17.333 -18 30.666 -39 39.999 -63s14 -50 14 -78c0 -24.667 -5.5 -49.167 -16.5 -73.5s-26.833 -46.166 -47.5 -65.499c-17.333 -17.333 -37.5 -30.5 -60.5 -39.5
s-47.167 -13.5 -72.5 -13.5c-39.333 0 -75.666 10.667 -108.999 32c-28 19.333 -49.667 43 -65 71s-23 59 -23 93c0 26.667 4.83301 51.834 14.5 75.501s24.167 44.834 43.5 63.501c18 19.333 39.167 34 63.5 44s49.5 15 75.5 15zM214.999 664.997
c-22 0 -43.333 -4.33301 -64 -13s-38.667 -20.667 -54 -36c-32.667 -32.667 -49 -72.334 -49 -119.001c0 -46 16.333 -85.333 49 -118c34 -32.667 73.333 -49 118 -49c22.667 0 44 4.33301 64 13s37.667 20.667 53 36c16 16 28.333 34.333 37 55s13 41.667 13 63
c0 22.667 -4.5 44.334 -13.5 65.001s-21.167 38.667 -36.5 54s-33.333 27.333 -54 36s-41.667 13 -63 13zM184.999 462.997v-70.001h-57v66v87c0 6.66699 -1.66699 11.5 -5 14.5s-6.66602 5.16699 -9.99902 6.5c-4.66699 1.33301 -9.66699 1.66602 -15 0.999023v30h133
c13.333 -1.33301 25.666 -4.33301 36.999 -9c9.33301 -4 17.833 -10.167 25.5 -18.5s11.167 -20.166 10.5 -35.499c-0.666992 -8 -2.33398 -15.667 -5.00098 -23c-2 -6 -4.66699 -12.167 -8 -18.5s-7.66602 -10.833 -12.999 -13.5c4 -5.33301 7.33301 -11.666 10 -18.999
s5.66699 -14 9 -20s7.16602 -10.667 11.499 -14s10.5 -3.66602 18.5 -0.999023v-27c-10 -5.33301 -19 -9 -27 -11c-7.33301 -2 -14.666 -2.5 -21.999 -1.5s-13.333 5.16699 -18 12.5c-4.66699 6.66699 -8 12.5 -10 17.5l-5.5 13.5l-4.5 10.5
c-1.33301 3 -3.33301 6.16699 -6 9.5c-3.33301 4 -7.33301 7.33301 -12 10c-4 2 -9.16699 3.66699 -15.5 5s-13.5 0.666016 -21.5 -2.00098zM184.999 564.996v-58.999c10 -1.33301 19 -1 27 1c6.66699 1.33301 12.834 4 18.501 8s8.5 10.667 8.5 20
c0 8.66699 -2.83301 15.167 -8.5 19.5s-11.834 7.16602 -18.501 8.49902c-8 2 -17 2.66699 -27 2z" />
    <glyph glyph-name="degree" unicode="&#xb0;" horiz-adv-x="329" 
d="M165 716c20.667 0 40.167 -4.00195 58.5 -12.002s34.5 -18.833 48.5 -32.5s25 -29.667 33 -48s12 -38.166 12 -59.499c0 -20.667 -4 -40.167 -12 -58.5s-18.833 -34.5 -32.5 -48.5s-29.834 -25 -48.501 -33s-38.667 -12 -60 -12s-41.166 4 -59.499 12
s-34.166 18.833 -47.499 32.5s-24 29.667 -32 48s-12 38.166 -12 59.499s4 41.333 12 60s18.833 34.834 32.5 48.501s29.667 24.334 48 32.001s38.166 11.5 59.499 11.5zM165 644.998c-22 0 -40.999 -7.66602 -56.999 -22.999s-24 -34.333 -24 -57
s7.66699 -41.834 23 -57.501s34.666 -23.5 57.999 -23.5c22.667 0 41.667 8 57 24s23 35 23 57s-7.66699 40.833 -23 56.5s-34.333 23.5 -57 23.5z" />
    <glyph glyph-name="plusminus" unicode="&#xb1;" 
d="M124 104v-113h585v113h-585zM468 175h-135v377l135 42v-419zM129 333v104h516l68 -104h-584z" />
    <glyph glyph-name="acute" unicode="&#xb4;" horiz-adv-x="500" 
d="M190 535l118 209h141l-146 -209h-113z" />
    <glyph glyph-name="cedilla" unicode="&#xb8;" 
 />
    <glyph glyph-name="ordmasculine" unicode="&#xba;" horiz-adv-x="385" 
d="M384 506c0 -24 -5 -46.5 -15 -67.5s-23.667 -39.5 -41 -55.5s-37.5 -28.667 -60.5 -38s-47.5 -14 -73.5 -14c-26.667 0 -51.667 4.66699 -75 14s-43.833 22 -61.5 38s-31.5 34.5 -41.5 55.5s-15 43.5 -15 67.5c0 24.667 5 47.834 15 69.501s23.833 40.5 41.5 56.5
s38.167 28.667 61.5 38s48.333 14 75 14c26 0 50.5 -4.66699 73.5 -14s43.167 -22 60.5 -38s31 -34.833 41 -56.5s15 -44.834 15 -69.501zM191 613c-15.333 0 -28.833 -10 -40.5 -30s-17.5 -44.667 -17.5 -74s5.83301 -54 17.5 -74s25.167 -30 40.5 -30
c17.333 0 32 10 44 30s18 44.667 18 74s-6 54 -18 74s-26.667 30 -44 30z" />
    <glyph glyph-name="questiondown" unicode="&#xbf;" horiz-adv-x="535" 
d="M392 185c3.33301 -7.33301 5.33301 -14.165 6 -20.498s1 -12.833 1 -19.5c0 -24 -8.66699 -46.167 -26 -66.5s-44.666 -38.833 -81.999 -55.5c-34 -14 -60.5 -27.167 -79.5 -39.5s-28.5 -21.833 -28.5 -28.5c0 -20.667 7 -34 21 -40c10 -3.33301 20.5 -6.5 31.5 -9.5
s25.167 -4.5 42.5 -4.5c23.333 0 41.5 3.66699 54.5 11s19.5 19.666 19.5 36.999c0 3.33301 -1 7.66602 -3 12.999s-3 10 -3 14h168c3.33301 -7.33301 5.33301 -14.333 6 -21s1 -13.667 1 -21c0 -30 -6.16699 -56.667 -18.5 -80s-28.833 -43.666 -49.5 -60.999
c-23.333 -13.333 -49 -23.333 -77 -30s-60.667 -10 -98 -10c-44 0 -82.833 3.5 -116.5 10.5s-62.167 18.833 -85.5 35.5c-23.333 21.333 -40.5 44.166 -51.5 68.499s-16.5 53.5 -16.5 87.5s8.66699 62.833 26 86.5s44.666 44.167 81.999 61.5c67.333 34 101 61.333 101 82
h175zM170 340.001c0 16.667 3.5 32.667 10.5 48s16.5 29 28.5 41s25.667 21.5 41 28.5s31.333 10.5 48 10.5c18.667 0 36.167 -3.5 52.5 -10.5s30.666 -16.5 42.999 -28.5s22 -25.667 29 -41s10.5 -31.333 10.5 -48c0 -18.667 -3.5 -35.834 -10.5 -51.501
s-16.667 -29.334 -29 -41.001s-26.666 -20.667 -42.999 -27s-33.833 -9.5 -52.5 -9.5c-16.667 0 -32.667 3.16699 -48 9.5s-29 15.333 -41 27s-21.5 25.334 -28.5 41.001s-10.5 32.834 -10.5 51.501z" />
    <glyph glyph-name="Aacute" unicode="&#xc1;" horiz-adv-x="716" 
d="M494 1l-75.999 222.999h-182l-88 -223h-216v105c19.333 0 34.666 1.83301 45.999 5.5s20.333 7.83398 27 12.501c7.33301 5.33301 13 11.333 17 18l206 527h207l264 -668h-205zM324.001 504.999l-59 -182h123zM306.001 735.999l118 209h141l-146 -209h-113z" />
    <glyph glyph-name="Ccedilla" unicode="&#xc7;" horiz-adv-x="736" 
d="M241 -136c45.333 -26.667 87.001 -40.001 125.001 -40.001c12 0 22 3.33301 30 10s12 16.334 12 29.001c0 28 -16 42 -48 42c-4.66699 0 -9.5 -0.333008 -14.5 -1s-10.5 -1.66699 -16.5 -3v99h45v-53c11.333 2.66699 23.333 4 36 4c30 0 53.333 -7.83301 70 -23.5
s25 -37.5 25 -65.5c0 -30 -10.333 -53.833 -31 -71.5s-49.334 -26.5 -86.001 -26.5c-24 0 -50 4.16699 -78 12.5s-59.333 19.833 -94 34.5zM590.001 394.999c1.33301 4.66699 2.00293 10.3369 2.00293 17.0039c0 5.33301 -0.5 11.833 -1.5 19.5s-3.16699 16.167 -6.5 25.5
c-9.33301 26.667 -21.833 47.5 -37.5 62.5s-32.834 25.333 -51.501 31s-37.667 7.33398 -57 5.00098s-37.333 -7.83301 -54 -16.5c-16 -4.66699 -33.5 -15.334 -52.5 -32.001s-35.333 -37.5 -49 -62.5s-22.667 -53.5 -27 -85.5s0.5 -66 14.5 -102
c14 -30 30.833 -53.5 50.5 -70.5s41 -29.333 64 -37s46.833 -11.167 71.5 -10.5s49 3.66699 73 9c56 12 115 35.667 177 71l-3 -164c-2.66699 -2 -10.834 -6.16699 -24.501 -12.5s-31.5 -13 -53.5 -20s-47.333 -14 -76 -21s-58.834 -12.333 -90.501 -16
s-64.167 -4.83398 -97.5 -3.50098s-65.666 6.5 -96.999 15.5s-61 22.667 -89 41s-52.333 42.833 -73 73.5c-32 55.333 -51.333 108.833 -58 160.5s-4.66699 99.667 6 144s28 83.833 52 118.5s51 63 81 85c20.667 14 44 25.167 70 33.5s53.333 14.666 82 18.999
s57.667 7.16602 87 8.49902s57.666 1.66602 84.999 0.999023c64.667 -2.66699 131 -9.66699 199 -21l-3 -267z" />
    <glyph glyph-name="Eacute" unicode="&#xc9;" horiz-adv-x="682" 
d="M131 0c-0.666992 80 -0.998047 154.001 -0.998047 222.001c0 28.667 -0.166992 57.667 -0.5 87s-0.5 56.666 -0.5 81.999v67v44c0 20.667 -5.83301 35.834 -17.5 45.501s-24.167 16.5 -37.5 20.5c-16 4 -34 5.66699 -54 5v100h646l1 -112h-375
c-2.66699 -24 -2 -45.333 2 -64c3.33301 -16 10 -30.333 20 -43s26.333 -18.334 49 -17.001l243 1v-152c-32 -0.666992 -62.333 -1 -91 -1h-132c-28.667 0 -49.834 -6.83301 -63.501 -20.5s-20.334 -28.5 -20.001 -44.5s7.33301 -30.833 21 -44.5s34.167 -20.5 61.5 -20.5
h272v-153zM309.002 736.001l118 209h141l-146 -209h-113z" />
    <glyph glyph-name="Iacute" unicode="&#xcd;" horiz-adv-x="353" 
d="M287 0l-173 -0.999023v226v88c0 29.333 0.166992 56.666 0.5 81.999s0.5 47.5 0.5 66.5v42.5c0 19.333 -5 33.5 -15 42.5s-21 15.167 -33 18.5c-14 4 -29.667 5.33301 -47 4v101h267v-670zM160 736.001l118 209h141l-146 -209h-113z" />
    <glyph glyph-name="Ntilde" unicode="&#xd1;" horiz-adv-x="753" 
d="M552 672l185 0.000976562v-672h-255l-198 452l6 -452l-172 -1v507c0 20.667 -5.83301 36.167 -17.5 46.5s-24.167 17.166 -37.5 20.499c-16 4 -34 5.33301 -54 4v95h338l205 -493v493zM251 754.001c16.667 92 56.666 137.999 119.999 137.999c12 0 25.667 -2 41 -6
l62 -16c4.66699 -1.33301 9 -2.33301 13 -3s7.66699 -1 11 -1c13.333 0 23.5 3.83301 30.5 11.5s13.167 19.834 18.5 36.501h43c-18 -92 -57.333 -138 -118 -138c-9.33301 0 -21.333 1.66699 -36 5l-60 17c-14.667 3.33301 -24.667 5 -30 5
c-27.333 0 -44.666 -16.333 -51.999 -49h-43z" />
    <glyph glyph-name="Oacute" unicode="&#xd3;" horiz-adv-x="722" 
d="M359 688c48 0 93.167 -9.16699 135.5 -27.5s79.166 -43.333 110.499 -75s56.166 -68.834 74.499 -111.501s27.5 -88.334 27.5 -137.001s-9.16699 -94.334 -27.5 -137.001s-43.166 -79.834 -74.499 -111.501s-68.166 -56.667 -110.499 -75s-87.5 -27.5 -135.5 -27.5
s-93.167 9.16699 -135.5 27.5s-79.166 43.333 -110.499 75s-56.166 68.834 -74.499 111.501s-27.5 88.334 -27.5 137.001s9.16699 94.334 27.5 137.001s43.166 79.834 74.499 111.501s68.166 56.667 110.499 75s87.5 27.5 135.5 27.5zM360 122c20.667 0 40 5.66699 58 17
s33.667 26.666 47 45.999s23.833 42.166 31.5 68.499s11.5 54.166 11.5 83.499s-3.83301 57 -11.5 83s-18.167 48.833 -31.5 68.5s-29 35.167 -47 46.5s-37.333 17 -58 17c-20 0 -39 -5.66699 -57 -17s-33.833 -26.833 -47.5 -46.5s-24.334 -42.5 -32.001 -68.5
s-11.5 -53.667 -11.5 -83s3.83301 -57.166 11.5 -83.499s18.334 -49.166 32.001 -68.499s29.5 -34.666 47.5 -45.999s37 -17 57 -17zM355 736l118 209h141l-146 -209h-113z" />
    <glyph glyph-name="multiply" unicode="&#xd7;" 
d="M425 378l215 215l79 -79l-215 -216l215 -215l-79 -79l-215 215l-215 -215l-79 79l215 215l-215 216l79 79z" />
    <glyph glyph-name="Uacute" unicode="&#xda;" horiz-adv-x="703" 
d="M280 211c0 -22 5.33105 -39.502 15.998 -52.502s24.167 -22.5 40.5 -28.5s33.833 -8.33301 52.5 -7s36.167 5.66602 52.5 12.999s29.833 17.333 40.5 30s16 27.667 16 45l-2 462h191l-1 -456c-5.33301 -45.333 -19.333 -86 -42 -122
c-10 -15.333 -22.167 -30.166 -36.5 -44.499s-31.666 -27.166 -51.999 -38.499s-44.166 -20.5 -71.499 -27.5s-58.333 -10.5 -93 -10.5c-18.667 0 -39 0.666992 -61 2s-43.833 4.33301 -65.5 9s-42.5 12 -62.5 22s-38 23.667 -54 41s-29 39.5 -39 66.5
s-15.333 59.833 -16 98.5c0 28 -0.166992 55.167 -0.5 81.5s-0.833008 50.5 -1.5 72.5s-1.16699 41.333 -1.5 58s-0.5 29.334 -0.5 38.001c0 23.333 -4.5 40.5 -13.5 51.5s-18.833 18.833 -29.5 23.5c-12.667 5.33301 -27 7.33301 -43 6l1 126h274zM361.998 735.998l118 209
h141l-146 -209h-113z" />
    <glyph glyph-name="Udieresis" unicode="&#xdc;" horiz-adv-x="771" 
d="M280 211c0 -22 5.33105 -39.502 15.998 -52.502s24.167 -22.5 40.5 -28.5s33.833 -8.33301 52.5 -7s36.167 5.66602 52.5 12.999s29.833 17.333 40.5 30s16 27.667 16 45l-2 462h191l-1 -456c-5.33301 -45.333 -19.333 -86 -42 -122
c-10 -15.333 -22.167 -30.166 -36.5 -44.499s-31.666 -27.166 -51.999 -38.499s-44.166 -20.5 -71.499 -27.5s-58.333 -10.5 -93 -10.5c-18.667 0 -39 0.666992 -61 2s-43.833 4.33301 -65.5 9s-42.5 12 -62.5 22s-38 23.667 -54 41s-29 39.5 -39 66.5
s-15.333 59.833 -16 98.5c0 28 -0.166992 55.167 -0.5 81.5s-0.833008 50.5 -1.5 72.5s-1.16699 41.333 -1.5 58s-0.5 29.334 -0.5 38.001c0 23.333 -4.5 40.5 -13.5 51.5s-18.833 18.833 -29.5 23.5c-12.667 5.33301 -27 7.33301 -43 6l1 126h274zM235.998 842.998
c0 20.667 7.83398 38.832 23.501 54.499s34.167 23.5 55.5 23.5c22 0 40.5 -7.66699 55.5 -23s22.5 -33.666 22.5 -54.999c0 -23.333 -7.33301 -42.333 -22 -57s-33.334 -22 -56.001 -22c-22 0 -40.667 7.5 -56 22.5s-23 33.833 -23 56.5zM449.999 842.996
c0 20.667 7.66797 38.832 23.001 54.499s33.666 23.5 54.999 23.5c22 0 40.667 -7.66699 56 -23s23 -33.666 23 -54.999c0 -23.333 -7.5 -42.333 -22.5 -57s-33.833 -22 -56.5 -22c-22 0 -40.5 7.5 -55.5 22.5s-22.5 33.833 -22.5 56.5z" />
    <glyph glyph-name="aacute" unicode="&#xe1;" horiz-adv-x="616" 
d="M379 446l150.996 12.998l-4 -250c-0.666992 -16.667 -0.333984 -31.334 0.999023 -44.001c1.33301 -11.333 3.33301 -21.333 6 -30s7 -13 13 -13c5.33301 0 9.83301 3.5 13.5 10.5s6.5 14.833 8.5 23.5c2.66699 10 4.33398 21.667 5.00098 35h43
c2 -9.33301 3 -19.666 3 -30.999c0 -9.33301 -1 -20.666 -3 -33.999s-6.33301 -27.666 -13 -42.999c-5.33301 -16 -11.833 -29.333 -19.5 -40s-16 -19.334 -25 -26.001s-18.167 -11.667 -27.5 -15s-18.333 -6 -27 -8c-9.33301 -1.33301 -21.166 1 -35.499 7
s-28.5 13 -42.5 21c-16.667 9.33301 -34 20 -52 32l-41 -27l-31.5 -21c-10.333 -6.66699 -17.5 -10.667 -21.5 -12c-3.33301 -1.33301 -11 -3.66602 -23 -6.99902s-26.667 -4.83301 -44 -4.5s-36.666 4.33301 -57.999 12s-42.666 21.834 -63.999 42.501
c-22 21.333 -37.667 44.5 -47 69.5s-15.666 48.167 -18.999 69.5c-3.33301 25.333 -3.33301 50.333 0 75c1.33301 28.667 6 56.334 14 83.001c7.33301 22.667 18.5 46 33.5 70s36.5 43.667 64.5 59s55.833 22.166 83.5 20.499s52.5 -6.16699 74.5 -13.5
c26 -8.66699 51 -21.334 75 -38.001zM279.996 381.998c-19.333 0 -35.666 -10.667 -48.999 -32s-20 -53 -20 -95c0 -43.333 6.66699 -76.666 20 -99.999s29.666 -35 48.999 -35s36.333 11.667 51 35s22 56.666 22 99.999c0 42 -7.33301 73.667 -22 95s-31.667 32 -51 32z
M227.996 534.998l118 209h141l-146 -209h-113z" />
    <glyph glyph-name="eacute" unicode="&#xe9;" horiz-adv-x="540" 
d="M398 169l135.999 7.99902c-3.33301 -35.333 -15 -67 -35 -95c-8.66699 -12 -19.5 -23.833 -32.5 -35.5s-28.667 -22.167 -47 -31.5s-40 -17.166 -65 -23.499s-53.5 -9.83301 -85.5 -10.5c-44 4 -83.667 15.333 -119 34c-15.333 8 -30.166 17.833 -44.499 29.5
s-27.333 25.834 -39 42.501s-21.167 36 -28.5 58s-11.333 47.333 -12 76c-2 84.667 18.833 150.5 62.5 197.5s104.834 71.833 183.501 74.5c48.667 1.33301 89.167 -4.16699 121.5 -16.5s58.5 -28.5 78.5 -48.5s34.833 -41.833 44.5 -65.5s16.167 -45.834 19.5 -66.501
s4.83301 -37.834 4.5 -51.501s-0.833008 -20.5 -1.5 -20.5l-344 -12c3.33301 -20 8.66602 -38 15.999 -54c6.66699 -13.333 15.834 -25.666 27.501 -36.999s27.5 -17.333 47.5 -18c20 -1.33301 36.833 0.166992 50.5 4.5s24.667 10 33 17s14.666 14.667 18.999 23
s7.5 15.5 9.5 21.5zM296.999 398.999c-20.667 -2 -36.332 -8.33203 -46.999 -18.999s-18.667 -22 -24 -34c-6 -14 -9.33301 -29.667 -10 -47l162 6c-2.66699 17.333 -7.66699 32.666 -15 45.999c-6 11.333 -14.333 22 -25 32s-24.334 15.333 -41.001 16zM201.001 535
l118 209h141l-146 -209h-113z" />
    <glyph glyph-name="iacute" unicode="&#xed;" horiz-adv-x="362" 
d="M101 330l-0.00195312 -201.999c0 -19.333 -2.83301 -32 -8.5 -38s-18.5 -9 -38.5 -9h-30v-81h316v81h-25c-19.333 0 -31.666 3 -36.999 9s-8 18.667 -8 38v344h-246v-83h32c10.667 0 19.167 -0.833008 25.5 -2.5s10.833 -4.5 13.5 -8.5s4.33398 -9.33301 5.00098 -16
s1 -15.334 1 -26.001v-6zM116.998 535.001l118 209h141l-146 -209h-113z" />
    <glyph glyph-name="ntilde" unicode="&#xf1;" horiz-adv-x="603" 
d="M552 -2l-160.998 0.00195312v283c0 22.667 -7.33301 41.167 -22 55.5s-30.834 22.5 -48.501 24.5s-34.167 -3.5 -49.5 -16.5s-23.666 -35.833 -24.999 -68.5v-274h-4v-4h-231v87c12.667 -0.666992 24.334 0.666016 35.001 3.99902
c9.33301 3.33301 17.666 8.66602 24.999 15.999s11 19.333 11 36v38c0 13.333 0.166992 30.833 0.5 52.5s0.666016 48.667 0.999023 81s0.833008 73.5 1.5 123.5l161 48v-44v4c25.333 14.667 51.666 25.667 78.999 33c23.333 6 49.833 9 79.5 9s59.5 -8.33301 89.5 -25
c16.667 -8.66699 28.834 -19 36.501 -31s13.167 -23.667 16.5 -35c3.33301 -13.333 4.66602 -27 3.99902 -41zM136.002 553.002c16.667 92 56.666 137.999 119.999 137.999c12 0 25.667 -2 41 -6l62 -16c4.66699 -1.33301 9 -2.33301 13 -3s7.66699 -1 11 -1
c13.333 0 23.5 3.83301 30.5 11.5s13.167 19.834 18.5 36.501h43c-18 -92 -57.333 -138 -118 -138c-9.33301 0 -21.333 1.66699 -36 5l-60 17c-14.667 3.33301 -24.667 5 -30 5c-27.333 0 -44.666 -16.333 -51.999 -49h-43z" />
    <glyph glyph-name="oacute" unicode="&#xf3;" horiz-adv-x="576" 
d="M569 233c0 -34.667 -7.16699 -67.334 -21.5 -98.001s-34 -57.5 -59 -80.5s-54.167 -41.167 -87.5 -54.5s-69 -20 -107 -20c-38.667 0 -75 6.66699 -109 20s-63.5 31.5 -88.5 54.5s-44.833 49.833 -59.5 80.5s-22 63.334 -22 98.001c0 35.333 7.33301 68.666 22 99.999
s34.5 58.666 59.5 81.999s54.5 41.666 88.5 54.999s70.333 20 109 20c38 0 73.667 -6.66699 107 -20s62.5 -31.666 87.5 -54.999s44.667 -50.666 59 -81.999s21.5 -64.666 21.5 -99.999zM290 388c-11.333 0 -22 -4 -32 -12s-18.833 -18.667 -26.5 -32
s-13.834 -29.333 -18.501 -48s-7 -38.334 -7 -59.001c0 -21.333 2.33301 -41.166 7 -59.499s10.834 -34.166 18.501 -47.499s16.5 -24 26.5 -32s20.667 -12 32 -12c12 0 23.5 4 34.5 12s20.5 18.667 28.5 32s14.333 29.166 19 47.499s7 38.166 7 59.499
c0 20.667 -2.33301 40.334 -7 59.001s-11 34.667 -19 48s-17.5 24 -28.5 32s-22.5 12 -34.5 12zM233 535l118 209h141l-146 -209h-113z" />
    <glyph glyph-name="divide" unicode="&#xf7;" 
d="M417 577c10.667 0 20.834 -2.16895 30.501 -6.50195s18.167 -10.166 25.5 -17.499s13.166 -15.833 17.499 -25.5s6.5 -20.167 6.5 -31.5c0 -10.667 -2 -20.834 -6 -30.501s-9.66699 -18.167 -17 -25.5s-16 -13.166 -26 -17.499s-20.667 -6.5 -32 -6.5
c-22.667 0 -41.667 7.83301 -57 23.5s-23 34.5 -23 56.5c0 22.667 8 41.834 24 57.501s35 23.5 57 23.5zM709 354.998v-113h-585v113h585zM417 180.998c22 0 40.833 -7.83301 56.5 -23.5s23.5 -34.834 23.5 -57.501c0 -21.333 -7.5 -40 -22.5 -56s-34.167 -24 -57.5 -24
c-22 0 -41 7.66699 -57 23s-24 34.333 -24 57s8 41.834 24 57.501s35 23.5 57 23.5z" />
    <glyph glyph-name="uacute" unicode="&#xfa;" horiz-adv-x="583" 
d="M473 144c0 -16.667 3.66602 -28.833 10.999 -36.5s15.666 -12.834 24.999 -15.501c10.667 -2.66699 22.667 -3.33398 36 -2.00098v-88h-234v30l-4 -8c-26 -15.333 -52.667 -26.666 -80 -33.999c-23.333 -6.66699 -49.666 -9.83398 -78.999 -9.50098s-59 8.83301 -89 25.5
c-15.333 8.66699 -27 19 -35 31s-13.667 23.667 -17 35c-4 12.667 -6 26 -6 40l-4 354h164c-0.666992 -34 -0.666992 -67.333 0 -100c0 -28 0.333008 -58 1 -90s1.66699 -60.667 3 -86c0 -24 7.33301 -42.167 22 -54.5s31 -18.666 49 -18.999s34.333 5.5 49 17.5
s22 30.667 22 56c0.666992 8 1.33398 18 2.00098 30s1.16699 25.333 1.5 40s0.333008 29.834 0 45.501s-0.5 31.167 -0.5 46.5c-0.666992 36 -1.66699 74 -3 114l4 -4v4h154h4c0.666992 -54.667 1.33398 -104.667 2.00098 -150c0 -19.333 0.166992 -38.5 0.5 -57.5
s0.666016 -36.333 0.999023 -52s0.5 -29 0.5 -40v-22.5zM223.999 535.001l118 209h141l-146 -209h-113z" />
    <glyph glyph-name="udieresis" unicode="&#xfc;" horiz-adv-x="577" 
d="M470 144c0 -16.667 3.66602 -28.833 10.999 -36.5s15.666 -12.834 24.999 -15.501c10.667 -2.66699 22.667 -3.33398 36 -2.00098v-88h-234v30l-4 -8c-26 -15.333 -52.667 -26.666 -80 -33.999c-23.333 -6.66699 -49.666 -9.83398 -78.999 -9.50098s-59 8.83301 -89 25.5
c-15.333 8.66699 -27 19 -35 31s-13.667 23.667 -17 35c-4 12.667 -6 26 -6 40l-4 354h164c-0.666992 -34 -0.666992 -67.333 0 -100c0 -28 0.333008 -58 1 -90s1.66699 -60.667 3 -86c0 -24 7.33301 -42.167 22 -54.5s31 -18.666 49 -18.999s34.333 5.5 49 17.5
s22 30.667 22 56c0.666992 8 1.33398 18 2.00098 30s1.16699 25.333 1.5 40s0.333008 29.834 0 45.501s-0.5 31.167 -0.5 46.5c-0.666992 36 -1.66699 74 -3 114l4 -4v4h154h4c0.666992 -54.667 1.33398 -104.667 2.00098 -150c0 -19.333 0.166992 -38.5 0.5 -57.5
s0.666016 -36.333 0.999023 -52s0.5 -29 0.5 -40v-22.5zM77.999 642.001c0 20.667 7.83398 38.832 23.501 54.499s34.167 23.5 55.5 23.5c22 0 40.5 -7.66699 55.5 -23s22.5 -33.666 22.5 -54.999c0 -23.333 -7.33301 -42.333 -22 -57s-33.334 -22 -56.001 -22
c-22 0 -40.667 7.5 -56 22.5s-23 33.833 -23 56.5zM292 641.999c0 20.667 7.66797 38.832 23.001 54.499s33.666 23.5 54.999 23.5c22 0 40.667 -7.66699 56 -23s23 -33.666 23 -54.999c0 -23.333 -7.5 -42.333 -22.5 -57s-33.833 -22 -56.5 -22c-22 0 -40.5 7.5 -55.5 22.5
s-22.5 33.833 -22.5 56.5z" />
    <glyph glyph-name="tilde" unicode="&#x2dc;" horiz-adv-x="500" 
d="M80 553c16.667 92 56.666 137.999 119.999 137.999c12 0 25.667 -2 41 -6l62 -16c4.66699 -1.33301 9 -2.33301 13 -3s7.66699 -1 11 -1c13.333 0 23.5 3.83301 30.5 11.5s13.167 19.834 18.5 36.501h43c-18 -92 -57.333 -138 -118 -138
c-9.33301 0 -21.333 1.66699 -36 5l-60 17c-14.667 3.33301 -24.667 5 -30 5c-27.333 0 -44.666 -16.333 -51.999 -49h-43z" />
    <glyph glyph-name="quoteleft" unicode="&#x2018;" horiz-adv-x="262" 
d="M125 402c-13.333 0 -25.167 3.00098 -35.5 9.00098s-19.166 14 -26.499 24s-13 21.5 -17 34.5s-6 26.5 -6 40.5c6 46 26.167 84.667 60.5 116s78.833 53.333 133.5 66v-67c-43.333 -6 -73.333 -24.333 -90 -55c21.333 -2.66699 37.666 -12 48.999 -28s17 -34.667 17 -56
c0 -24.667 -8.16699 -44.834 -24.5 -60.501s-36.5 -23.5 -60.5 -23.5z" />
    <glyph glyph-name="quoteright" unicode="&#x2019;" horiz-adv-x="262" 
d="M146 696c24 0 44.999 -7.83203 62.999 -23.499s27 -35.834 27 -60.501c0 -25.333 -5 -49.166 -15 -71.499s-23.833 -42.333 -41.5 -60s-38.667 -32.834 -63 -45.501s-50.833 -22.334 -79.5 -29.001v67c43.333 6 73.333 24.333 90 55
c-21.333 2.66699 -37.666 12 -48.999 28s-17 34.667 -17 56c0 24.667 8.16699 44.834 24.5 60.501s36.5 23.5 60.5 23.5z" />
    <glyph glyph-name="quotesinglbase" unicode="&#x201a;" horiz-adv-x="262" 
d="M136 -14c-4 -1.33301 -7.83301 -2 -11.5 -2h-11.5c-22.667 0 -40.834 7 -54.501 21s-20.5 32.333 -20.5 55c0 24.667 8.33301 45.167 25 61.5s37.334 24.5 62.001 24.5c29.333 0 53 -9.66699 71 -29s27 -45.666 27 -78.999c0 -44.667 -16 -83.834 -48 -117.501
s-76.333 -55.5 -133 -65.5v56c26 4 46.667 12 62 24s26 29 32 51z" />
    <glyph glyph-name="quotedblleft" unicode="&#x201c;" horiz-adv-x="453" 
d="M227 520c8 44 28 81.5 60 112.5s76.333 52.5 133 64.5v-65c-20 -3.33301 -37.667 -9.5 -53 -18.5s-27 -21.5 -35 -37.5c20 -4 35.667 -13.333 47 -28s17 -32 17 -52c0 -12 -2.33301 -23.5 -7 -34.5s-11 -20.5 -19 -28.5s-17.333 -14.333 -28 -19s-22 -7 -34 -7
c-24.667 0 -45.667 8.66699 -63 26s-26 38.333 -26 63c0 4 1.33301 8 4 12s4 8 4 12zM147 576c20 -4 35.667 -13.333 47 -28s17 -32 17 -52c0 -24.667 -8.66699 -45.667 -26 -63s-38.333 -26 -63 -26c-24 0 -43.333 8.66699 -58 26s-22 38.333 -22 63v24
c8 44 28 81.5 60 112.5s76.333 52.5 133 64.5v-65c-20 -3.33301 -37.667 -9.5 -53 -18.5s-27 -21.5 -35 -37.5z" />
    <glyph glyph-name="quotedblright" unicode="&#x201d;" horiz-adv-x="494" 
d="M261 601c0 -24.667 -5.33301 -47.834 -16 -69.501s-25 -41.167 -43 -58.5s-39.167 -32.166 -63.5 -44.499s-50.5 -21.833 -78.5 -28.5v65c20 3.33301 37.667 9.5 53 18.5s27 21.5 35 37.5c-20 4 -35.667 13.333 -47 28s-17 32 -17 52c0 12 2.33301 23.5 7 34.5
s11 20.5 19 28.5s17.333 14.333 28 19s22 7 34 7c24.667 0 45.667 -8.66699 63 -26s26 -38.333 26 -63zM333 521c-20 4 -35.668 13.333 -47.001 28s-17 32 -17 52c0 24.667 8.66699 45.667 26 63s38.333 26 63 26c24 0 43.333 -8.66699 58 -26s22 -38.333 22 -63
c0 -26.667 -5.16699 -51 -15.5 -73s-24.166 -41.5 -41.499 -58.5s-37.833 -31.333 -61.5 -43s-48.5 -20.5 -74.5 -26.5v65c20 3.33301 37.667 9.5 53 18.5s27 21.5 35 37.5z" />
    <glyph glyph-name="quotedblbase" unicode="&#x201e;" horiz-adv-x="494" 
d="M259 56c0 -24.667 -5.33301 -47.834 -16 -69.501s-25 -41.167 -43 -58.5s-39.167 -32.166 -63.5 -44.499s-50.5 -21.833 -78.5 -28.5v65c20 3.33301 37.667 9.5 53 18.5s27 21.5 35 37.5c-20 4 -35.667 13.333 -47 28s-17 32 -17 52c0 12 2.33301 23.5 7 34.5
s11 20.5 19 28.5s17.333 14.333 28 19s22 7 34 7c24.667 0 45.667 -8.66699 63 -26s26 -38.333 26 -63zM331 -24c-20 4 -35.668 13.333 -47.001 28s-17 32 -17 52c0 24.667 8.66699 45.667 26 63s38.333 26 63 26c24 0 43.333 -8.66699 58 -26s22 -38.333 22 -63
c0 -26.667 -5.16699 -51 -15.5 -73s-24.166 -41.5 -41.499 -58.5s-37.833 -31.333 -61.5 -43s-48.5 -20.5 -74.5 -26.5v65c20 3.33301 37.667 9.5 53 18.5s27 21.5 35 37.5z" />
    <glyph glyph-name="bullet" unicode="&#x2022;" horiz-adv-x="590" 
d="M150 372c0 20 3.83301 38.666 11.5 55.999s18 32.5 31 45.5s28.333 23.333 46 31s36.5 11.5 56.5 11.5s38.667 -3.83301 56 -11.5s32.5 -18 45.5 -31s23.333 -28.167 31 -45.5s11.5 -36 11.5 -56s-3.83301 -38.667 -11.5 -56s-18 -32.666 -31 -45.999
s-28.333 -23.833 -46 -31.5s-36.5 -11.5 -56.5 -11.5s-38.833 3.83301 -56.5 11.5s-33 18 -46 31s-23.167 28.333 -30.5 46s-11 36.5 -11 56.5z" />
    <glyph glyph-name="ellipsis" unicode="&#x2026;" horiz-adv-x="1000" 
d="M265 80c-1.33301 -22 -7 -40.167 -17 -54.5s-22.167 -25.166 -36.5 -32.499s-29.666 -11 -45.999 -11s-31.5 3.66699 -45.5 11s-25.667 18.166 -35 32.499s-14 32.5 -14 54.5c0 27.333 8.83301 49.833 26.5 67.5s40.167 26.5 67.5 26.5c13.333 0 26 -2.33301 38 -7
s22.667 -11.167 32 -19.5s16.666 -18.333 21.999 -30s8 -24.167 8 -37.5zM615 79c-1.33301 -22 -7 -40.167 -17 -54.5s-22.167 -25.166 -36.5 -32.499s-29.666 -11 -45.999 -11s-31.5 3.66699 -45.5 11s-25.667 18.166 -35 32.499s-14 32.5 -14 54.5
c0 27.333 8.83301 49.833 26.5 67.5s40.167 26.5 67.5 26.5c13.333 0 26 -2.33301 38 -7s22.667 -11.167 32 -19.5s16.666 -18.333 21.999 -30s8 -24.167 8 -37.5zM925 81c-1.33301 -22 -7 -40.167 -17 -54.5s-22.167 -25.166 -36.5 -32.499s-29.666 -11 -45.999 -11
s-31.5 3.66699 -45.5 11s-25.667 18.166 -35 32.499s-14 32.5 -14 54.5c0 27.333 8.83301 49.833 26.5 67.5s40.167 26.5 67.5 26.5c13.333 0 26 -2.33301 38 -7s22.667 -11.167 32 -19.5s16.666 -18.333 21.999 -30s8 -24.167 8 -37.5z" />
    <glyph glyph-name="perthousand" unicode="&#x2030;" horiz-adv-x="1390" 
d="M437 -19h-163l183 647h181l-190 -647h-11zM374 445c0 -21.333 -4.83301 -41.666 -14.5 -60.999s-22.667 -36.5 -39 -51.5s-35.166 -27 -56.499 -36s-43.333 -13.5 -66 -13.5c-24.667 0 -48.167 4.5 -70.5 13.5s-41.833 21 -58.5 36s-29.834 32.167 -39.501 51.5
s-14.5 39.666 -14.5 60.999c0 22.667 4.83301 44.334 14.5 65.001s22.834 38.667 39.501 54s36.167 27.5 58.5 36.5s45.833 13.5 70.5 13.5c22.667 0 44.667 -4.5 66 -13.5s40.166 -21.167 56.499 -36.5s29.333 -33.333 39 -54s14.5 -42.334 14.5 -65.001zM191 544
c-14 0 -25.667 -9.16699 -35 -27.5s-14 -39.833 -14 -64.5c0 -28 4.66699 -51.333 14 -70s21 -28 35 -28c17.333 0 31 9.33301 41 28s15 42 15 70c0 24.667 -5 46.167 -15 64.5s-23.667 27.5 -41 27.5zM901 156c0 -21.333 -4.83301 -41.666 -14.5 -60.999
s-22.667 -36.5 -39 -51.5s-35.166 -27 -56.499 -36s-43.333 -13.5 -66 -13.5c-24.667 0 -48 4.5 -70 13.5s-41.333 21 -58 36s-30 32.167 -40 51.5s-15 39.666 -15 60.999c0 22.667 5 44.167 15 64.5s23.333 38.333 40 54s36 28 58 37s45.333 13.5 70 13.5
c22.667 0 44.667 -4.5 66 -13.5s40.166 -21.333 56.499 -37s29.333 -33.667 39 -54s14.5 -41.833 14.5 -64.5zM718 254c-14 0 -25.667 -9 -35 -27s-14 -39.333 -14 -64c0 -28 4.66699 -51.5 14 -70.5s21 -28.5 35 -28.5c17.333 0 31 9.5 41 28.5s15 42.5 15 70.5
c0 24.667 -5 46 -15 64s-23.667 27 -41 27zM1315 154c0 -21.333 -4.83301 -41.666 -14.5 -60.999s-22.667 -36.5 -39 -51.5s-35.166 -27 -56.499 -36s-43.333 -13.5 -66 -13.5c-24.667 0 -48 4.5 -70 13.5s-41.333 21 -58 36s-30 32.167 -40 51.5s-15 39.666 -15 60.999
c0 22.667 5 44.167 15 64.5s23.333 38.333 40 54s36 28 58 37s45.333 13.5 70 13.5c22.667 0 44.667 -4.5 66 -13.5s40.166 -21.333 56.499 -37s29.333 -33.667 39 -54s14.5 -41.833 14.5 -64.5zM1132 252c-14 0 -25.667 -9 -35 -27s-14 -39.333 -14 -64
c0 -28 4.66699 -51.5 14 -70.5s21 -28.5 35 -28.5c17.333 0 31 9.5 41 28.5s15 42.5 15 70.5c0 24.667 -5 46 -15 64s-23.667 27 -41 27z" />
    <glyph glyph-name="fraction" unicode="&#x2044;" horiz-adv-x="167" 
d="M-28 -11h-125l395 645h134z" />
    <glyph glyph-name="Euro" unicode="&#x20ac;" horiz-adv-x="658" 
d="M631 120l-2 -145.998c-89.333 -13.333 -171.666 -16 -246.999 -8c-32 3.33301 -64 9.16602 -96 17.499s-61.833 20.5 -89.5 36.5s-51.667 36.167 -72 60.5s-34.833 54.5 -43.5 90.5h-67l2 103h51l1 21h-52l2 103h60c10 35.333 25.667 65.333 47 90s46 45.167 74 61.5
s58.167 29 90.5 38s64.5 15.5 96.5 19.5c75.333 9.33301 157.666 8 246.999 -4l-3 -146h-259c-31.333 0 -53.5 -6 -66.5 -18s-19.5 -25.667 -19.5 -41h344l-2 -103h-367l-1 -21h367l-3 -103h-343c4 -14.667 12.167 -26.834 24.5 -36.501s31.833 -14.5 58.5 -14.5h268z" />
    <glyph glyph-name="minus" unicode="&#x2212;" 
d="M709 356v-115h-585v115h585z" />
    <glyph glyph-name=".null" horiz-adv-x="0" 
 />
    <glyph glyph-name="nonmarkingreturn" horiz-adv-x="318" 
 />
    <glyph glyph-name="percent" horiz-adv-x="915" 
d="M437 -19h-163l183 647h181l-190 -647h-11zM374 445c0 -21.333 -4.83301 -41.666 -14.5 -60.999s-22.667 -36.5 -39 -51.5s-35.166 -27 -56.499 -36s-43.333 -13.5 -66 -13.5c-24.667 0 -48.167 4.5 -70.5 13.5s-41.833 21 -58.5 36s-29.834 32.167 -39.501 51.5
s-14.5 39.666 -14.5 60.999c0 22.667 4.83301 44.334 14.5 65.001s22.834 38.667 39.501 54s36.167 27.5 58.5 36.5s45.833 13.5 70.5 13.5c22.667 0 44.667 -4.5 66 -13.5s40.166 -21.167 56.499 -36.5s29.333 -33.333 39 -54s14.5 -42.334 14.5 -65.001zM191 544
c-14 0 -25.667 -9.16699 -35 -27.5s-14 -39.833 -14 -64.5c0 -28 4.66699 -51.333 14 -70s21 -28 35 -28c17.333 0 31 9.33301 41 28s15 42 15 70c0 24.667 -5 46.167 -15 64.5s-23.667 27.5 -41 27.5zM901 156c0 -21.333 -4.83301 -41.666 -14.5 -60.999
s-22.667 -36.5 -39 -51.5s-35.166 -27 -56.499 -36s-43.333 -13.5 -66 -13.5c-24.667 0 -48 4.5 -70 13.5s-41.333 21 -58 36s-30 32.167 -40 51.5s-15 39.666 -15 60.999c0 22.667 5 44.167 15 64.5s23.333 38.333 40 54s36 28 58 37s45.333 13.5 70 13.5
c22.667 0 44.667 -4.5 66 -13.5s40.166 -21.333 56.499 -37s29.333 -33.667 39 -54s14.5 -41.833 14.5 -64.5zM718 254c-14 0 -25.667 -9 -35 -27s-14 -39.333 -14 -64c0 -28 4.66699 -51.5 14 -70.5s21 -28.5 35 -28.5c17.333 0 31 9.5 41 28.5s15 42.5 15 70.5
c0 24.667 -5 46 -15 64s-23.667 27 -41 27z" />
    </font>
</defs>
</svg>
